<svg width="30" height="30" viewBox="0 0 30 30" fill="none" xmlns="http://www.w3.org/2000/svg">
<path fill-rule="evenodd" clip-rule="evenodd" d="M15.3 6.09415C10.5471 6.09415 6.69407 9.94714 6.69407 14.7C6.69407 19.4529 10.5471 23.3059 15.3 23.3059C20.0528 23.3059 23.9058 19.4529 23.9058 14.7C23.9058 9.94714 20.0528 6.09415 15.3 6.09415ZM5.32495 14.7C5.32495 9.191 9.79091 4.72504 15.3 4.72504C20.809 4.72504 25.275 9.191 25.275 14.7C25.275 20.2091 20.809 24.675 15.3 24.675C9.79091 24.675 5.32495 20.2091 5.32495 14.7ZM18.8244 12.1009C19.1196 12.3371 19.1675 12.7679 18.9313 13.0631L14.8022 18.2245C14.6806 18.3765 14.5 18.4696 14.3055 18.4804C14.1111 18.4911 13.9213 18.4186 13.7836 18.2809L11.7191 16.2164C11.4517 15.949 11.4517 15.5156 11.7191 15.2483C11.9864 14.9809 12.4199 14.9809 12.6872 15.2483L14.2109 16.772L17.8622 12.2079C18.0984 11.9126 18.5292 11.8648 18.8244 12.1009Z" fill="#CEFF00"/>
</svg>
