<svg width="17" height="17" viewBox="0 0 17 17" fill="none" xmlns="http://www.w3.org/2000/svg">
<path fill-rule="evenodd" clip-rule="evenodd" d="M8.92562 4.00315C8.66304 3.84774 8.33657 3.84774 8.07399 4.00315C6.89004 4.70384 5.86287 5.14158 4.39903 5.28939C3.92215 5.33755 3.59038 5.70478 3.60954 6.09409C3.66145 7.14846 3.8449 8.37125 4.48401 9.60471C5.12113 10.8343 6.22516 12.1016 8.16059 13.2225C8.36976 13.3436 8.62985 13.3436 8.83901 13.2225C10.7744 12.1016 11.8785 10.8343 12.5156 9.60471C13.1547 8.37125 13.3382 7.14846 13.3901 6.09409C13.4092 5.70478 13.0775 5.33755 12.6006 5.28939C11.1367 5.14158 10.1096 4.70384 8.92562 4.00315ZM7.66122 3.30946C8.17826 3.00346 8.82135 3.00346 9.33839 3.30946C10.456 3.97088 11.3698 4.35435 12.6821 4.48686C13.4964 4.56909 14.2424 5.23023 14.1979 6.13364C14.1429 7.25053 13.9463 8.60054 13.2342 9.97501C12.52 11.3533 11.3015 12.7291 9.24518 13.92C8.78487 14.1866 8.21473 14.1866 7.75443 13.92C5.69808 12.7291 4.4796 11.3533 3.76545 9.97501C3.05328 8.60054 2.85668 7.25053 2.8017 6.13364C2.75722 5.23023 3.50325 4.56909 4.31755 4.48686C5.62982 4.35435 6.54362 3.97088 7.66122 3.30946ZM10.5651 6.89713C10.7187 7.05883 10.7118 7.3141 10.5496 7.4673L8.18737 9.69919C8.03139 9.84656 7.78709 9.84656 7.63111 9.69919L6.44997 8.58324C6.28783 8.43005 6.28092 8.17478 6.43452 8.01307C6.58813 7.85137 6.84409 7.84447 7.00624 7.99766L7.90924 8.85083L9.99337 6.88172C10.1555 6.72852 10.4115 6.73542 10.5651 6.89713Z" fill="#CEFF00"/>
</svg>
