<svg width="32" height="32" viewBox="0 0 32 32" fill="none" xmlns="http://www.w3.org/2000/svg">
<path fill-rule="evenodd" clip-rule="evenodd" d="M7.75 16.6292V21.5381C7.75 22.8983 8.85802 24 10.2236 24L21.7764 24C23.142 24 24.25 22.8983 24.25 21.5381V16.6292C24.25 16.2645 23.953 15.9698 23.588 15.9698C23.2229 15.9698 22.9259 16.2645 22.9259 16.6292L22.926 21.5381C22.926 22.1689 22.4119 22.6813 21.7764 22.6813L10.2236 22.6813C9.58813 22.6813 9.07405 22.1689 9.07405 21.5381L9.07405 16.6292C9.07405 16.2645 8.77708 15.9699 8.41202 15.9699C8.04697 15.9699 7.75 16.2645 7.75 16.6292ZM11.3287 12.166C11.0634 12.4169 11.0526 12.8345 11.3047 13.0986C11.5565 13.3624 11.9752 13.373 12.2402 13.1225L15.338 10.1942L15.338 18.3071C15.338 18.6718 15.6349 18.9664 16 18.9664C16.3651 18.9664 16.662 18.6718 16.662 18.3071L16.662 10.1942L19.7598 13.1225C20.0248 13.373 20.4435 13.3624 20.6953 13.0986C20.9474 12.8345 20.9366 12.4169 20.6713 12.166L16.4557 8.18111C16.2003 7.93963 15.7997 7.93963 15.5442 8.18111L11.3287 12.166Z" fill="white"/>
<path d="M10.2236 24V24.25V24ZM21.7764 24V23.75V24ZM22.9259 16.6292H22.6759V16.6292L22.9259 16.6292ZM22.926 21.5381H23.176H22.926ZM21.7764 22.6813V22.4313V22.6813ZM10.2236 22.6813V22.9313V22.6813ZM9.07405 21.5381H8.82405V21.5381L9.07405 21.5381ZM9.07405 16.6292H8.82405H9.07405ZM11.3047 13.0986L11.4855 12.926L11.4855 12.926L11.3047 13.0986ZM11.3287 12.166L11.157 11.9844L11.157 11.9844L11.3287 12.166ZM12.2402 13.1225L12.4119 13.3042L12.2402 13.1225ZM15.338 10.1942H15.588C15.588 10.0944 15.5286 10.0041 15.4369 9.96461C15.3452 9.92511 15.2388 9.94395 15.1662 10.0125L15.338 10.1942ZM15.338 18.3071H15.588H15.338ZM16.662 18.3071H16.912H16.662ZM16.662 10.1942L16.8338 10.0125C16.7612 9.94395 16.6548 9.92511 16.5631 9.96461C16.4714 10.0041 16.412 10.0944 16.412 10.1942H16.662ZM19.7598 13.1225L19.5881 13.3042L19.7598 13.1225ZM20.6953 13.0986L20.8761 13.2713L20.8761 13.2713L20.6953 13.0986ZM20.6713 12.166L20.4996 12.3477L20.4996 12.3477L20.6713 12.166ZM16.4557 8.18111L16.284 8.36279L16.284 8.36279L16.4557 8.18111ZM15.5442 8.18111L15.716 8.36279L15.716 8.36279L15.5442 8.18111ZM8 21.5381V16.6292H7.5V21.5381H8ZM10.2236 23.75C8.9949 23.75 8 22.7591 8 21.5381H7.5C7.5 23.0376 8.72114 24.25 10.2236 24.25V23.75ZM21.7764 23.75L10.2236 23.75V24.25L21.7764 24.25V23.75ZM24 21.5381C24 22.7591 23.0051 23.75 21.7764 23.75V24.25C23.2789 24.25 24.5 23.0376 24.5 21.5381H24ZM24 16.6292V21.5381H24.5V16.6292H24ZM23.588 16.2198C23.8162 16.2198 24 16.4038 24 16.6292H24.5C24.5 16.1252 24.0899 15.7198 23.588 15.7198V16.2198ZM23.1759 16.6292C23.1759 16.4038 23.3598 16.2198 23.588 16.2198V15.7198C23.0861 15.7198 22.6759 16.1252 22.6759 16.6292H23.1759ZM23.176 21.5381L23.1759 16.6292L22.6759 16.6292L22.676 21.5381L23.176 21.5381ZM21.7764 22.9313C22.5488 22.9313 23.176 22.3081 23.176 21.5381H22.676C22.676 22.0297 22.2749 22.4313 21.7764 22.4313V22.9313ZM10.2236 22.9313L21.7764 22.9313V22.4313L10.2236 22.4313V22.9313ZM8.82405 21.5381C8.82405 22.3081 9.45119 22.9313 10.2236 22.9313V22.4313C9.72507 22.4313 9.32405 22.0297 9.32405 21.5381L8.82405 21.5381ZM8.82405 16.6292L8.82405 21.5381H9.32405L9.32405 16.6292H8.82405ZM8.41202 16.2198C8.64025 16.2198 8.82405 16.4038 8.82405 16.6292H9.32405C9.32405 16.1252 8.91391 15.7199 8.41202 15.7199V16.2198ZM8 16.6292C8 16.4038 8.1838 16.2198 8.41202 16.2198V15.7199C7.91014 15.7199 7.5 16.1252 7.5 16.6292H8ZM11.4855 12.926C11.3291 12.7622 11.3357 12.5034 11.5004 12.3477L11.157 11.9844C10.791 12.3303 10.776 12.9069 11.1239 13.2713L11.4855 12.926ZM12.0685 12.9408C11.9034 13.0969 11.6423 13.0902 11.4855 12.926L11.1239 13.2713C11.4707 13.6346 12.047 13.6492 12.4119 13.3042L12.0685 12.9408ZM15.1662 10.0125L12.0685 12.9408L12.4119 13.3042L15.5097 10.3759L15.1662 10.0125ZM15.588 18.3071L15.588 10.1942H15.088L15.088 18.3071H15.588ZM16 18.7164C15.7718 18.7164 15.588 18.5325 15.588 18.3071H15.088C15.088 18.8111 15.4981 19.2164 16 19.2164V18.7164ZM16.412 18.3071C16.412 18.5325 16.2282 18.7164 16 18.7164V19.2164C16.5019 19.2164 16.912 18.8111 16.912 18.3071H16.412ZM16.412 10.1942L16.412 18.3071H16.912L16.912 10.1942H16.412ZM19.9315 12.9408L16.8338 10.0125L16.4903 10.3759L19.5881 13.3042L19.9315 12.9408ZM20.5145 12.926C20.3577 13.0902 20.0966 13.0969 19.9315 12.9408L19.5881 13.3042C19.953 13.6492 20.5293 13.6346 20.8761 13.2713L20.5145 12.926ZM20.4996 12.3477C20.6643 12.5034 20.6709 12.7622 20.5145 12.926L20.8761 13.2713C21.224 12.9069 21.209 12.3303 20.843 11.9844L20.4996 12.3477ZM16.284 8.36279L20.4996 12.3477L20.843 11.9844L16.6275 7.99944L16.284 8.36279ZM15.716 8.36279C15.8751 8.2124 16.1249 8.2124 16.284 8.36279L16.6275 7.99944C16.2757 7.66685 15.7243 7.66685 15.3725 7.99944L15.716 8.36279ZM11.5004 12.3477L15.716 8.36279L15.3725 7.99944L11.157 11.9844L11.5004 12.3477Z" fill="white"/>
</svg>
