<svg width="27" height="28" viewBox="0 0 27 28" fill="none" xmlns="http://www.w3.org/2000/svg">
<path fill-rule="evenodd" clip-rule="evenodd" d="M13.44 4.90137C13.0212 4.90137 12.6819 5.24144 12.6819 5.66067V11.2345C12.6819 11.6537 13.0212 11.9938 13.44 11.9938C13.8588 11.9938 14.1981 11.6537 14.1981 11.2345V5.66067C14.1981 5.24144 13.8588 4.90137 13.44 4.90137ZM10.7482 7.20374C10.5704 6.82416 10.1189 6.66078 9.73983 6.83906C6.82434 8.21024 4.8 11.157 4.8 14.5787C4.8 19.3161 8.67665 23.1414 13.44 23.1414C18.2033 23.1414 22.08 19.3161 22.08 14.5787C22.08 11.157 20.0556 8.21024 17.1402 6.83906C16.7611 6.66078 16.3096 6.82416 16.1317 7.20374C15.9539 7.58324 16.1168 8.03542 16.4958 8.21367C18.906 9.34724 20.5639 11.7748 20.5639 14.5787C20.5639 18.4608 17.3827 21.6228 13.44 21.6228C9.49727 21.6228 6.31612 18.4608 6.31612 14.5787C6.31612 11.7748 7.97394 9.34724 10.3842 8.21367C10.7632 8.03542 10.9261 7.58324 10.7482 7.20374Z" fill="white"/>
</svg>
