<svg width="336" height="336" viewBox="0 0 336 336" fill="none" xmlns="http://www.w3.org/2000/svg">
<g clip-path="url(#clip0_964_10833)">
<path d="M168 0C75.2162 0 0 75.2162 0 168C0 200.695 9.34639 231.199 25.5038 257.008L4.58068 312.691C2.73541 317.597 3.67055 323.118 7.03105 327.149C10.3915 331.174 15.6523 333.085 20.8131 332.154L94.089 318.902C116.397 329.849 141.481 336.005 168.005 336.005C260.789 336.005 336.005 260.789 336.005 168.005C336.005 75.2212 260.784 0 168 0ZM168 300.315C168 300.315 141.361 299.875 114.227 289.173C106.206 285.167 98.9247 286.473 98.9247 286.473L43.8965 296.229L58.9888 256.903C62.6643 246.592 56.3884 238.475 56.3884 238.475C43.6715 218.207 36.2554 194.264 36.2554 168.57C36.2554 95.8092 95.2392 36.8255 168 36.8255C240.761 36.8255 299.745 95.8092 299.745 168.57C299.745 241.331 240.761 300.315 168 300.315Z" fill="white"/>
</g>
<defs>
<clipPath id="clip0_964_10833">
<rect width="336" height="336" fill="white"/>
</clipPath>
</defs>
</svg>
