<svg width="21" height="21" viewBox="0 0 21 21" fill="none" xmlns="http://www.w3.org/2000/svg">
<path d="M13.0501 4.63796L13.1152 4.50283C14.0627 4.95947 14.8949 5.62412 15.5498 6.44726C16.2047 7.27039 16.6653 8.23075 16.8976 9.25671C17.1298 10.2827 17.1274 11.3479 16.8907 12.3728C16.6542 13.3978 16.1892 14.3562 15.5307 15.1763C14.8724 15.9967 14.0372 16.6577 13.0878 17.1102C12.1383 17.5628 11.099 17.7951 10.0473 17.7898C9.06469 17.785 8.095 17.5729 7.20121 17.1684L3.81966 17.7801C3.60029 17.8197 3.37652 17.7385 3.23373 17.5673C3.09094 17.3961 3.05117 17.1614 3.12958 16.9527L4.08926 14.3986C3.49562 13.4099 3.15493 12.288 3.0999 11.1326C3.03974 9.86969 3.32316 8.61408 3.92 7.49953M13.0501 4.63796L3.92 7.49953M13.0501 4.63796L13.1152 4.50283C12.1678 4.04621 11.1296 3.80937 10.0779 3.80996L13.0501 4.63796ZM3.92 7.49953C4.51683 6.38497 5.40472 5.4532 6.48912 4.80345L6.56621 4.93213M3.92 7.49953L6.56621 4.93213M6.56621 4.93213L6.48912 4.80345C7.57348 4.15374 8.81386 3.81039 10.0779 3.80996L6.56621 4.93213ZM10.0784 5.04878L10.0785 5.04878C10.9437 5.04827 11.7979 5.24312 12.5774 5.6188C13.3568 5.99449 14.0416 6.54132 14.5804 7.21855C15.1192 7.89577 15.4982 8.68594 15.6893 9.53018C15.8804 10.3743 15.8784 11.2508 15.6836 12.0942L15.6836 12.0942C15.489 12.9375 15.1064 13.7261 14.5646 14.4009L14.5646 14.4009C14.023 15.0758 13.3358 15.6197 12.5548 15.9919L12.5547 15.9919C11.7736 16.3642 10.9186 16.5553 10.0534 16.551C9.18819 16.5467 8.3351 16.3472 7.55769 15.9672C7.43917 15.9092 7.30524 15.8906 7.17543 15.9141L4.67312 16.3668L5.35722 14.5461C5.42726 14.3597 5.40342 14.151 5.29317 13.9852C4.71717 13.1191 4.38682 12.1128 4.33732 11.0737C4.28782 10.0345 4.52103 9.00138 5.0121 8.08433C5.50316 7.16729 6.23368 6.40068 7.12584 5.86613C8.01799 5.33158 9.03851 5.04911 10.0784 5.04878Z" fill="white" stroke="white" stroke-width="0.3" stroke-linecap="round" stroke-linejoin="round"/>
</svg>
