<svg width="32" height="36" viewBox="0 0 32 36" fill="none" xmlns="http://www.w3.org/2000/svg">
<g filter="url(#filter0_d_1117_18519)">
<path fill-rule="evenodd" clip-rule="evenodd" d="M17.9483 4.7841C18.2899 4.88305 18.5228 5.17926 18.5228 5.51462V12.8157H23.6849C23.9871 12.8157 24.2645 12.9726 24.4057 13.2233C24.5468 13.4739 24.5285 13.7773 24.3581 14.0114L14.9654 26.9165C14.7638 27.1934 14.3933 27.3149 14.0517 27.2159C13.7101 27.117 13.4772 26.8207 13.4772 26.4854V19.1843H8.31507C8.01286 19.1843 7.73546 19.0274 7.59433 18.7767C7.45321 18.5261 7.47152 18.2227 7.64192 17.9886L17.0346 5.08352C17.2362 4.80656 17.6067 4.68515 17.9483 4.7841ZM9.85845 17.6551H14.2922C14.7424 17.6551 15.1073 17.9974 15.1073 18.4197V24.0096L22.1416 14.3449H17.7078C17.2576 14.3449 16.8927 14.0026 16.8927 13.5803V7.99044L9.85845 17.6551Z" fill="white"/>
</g>
<defs>
<filter id="filter0_d_1117_18519" x="-4" y="0" width="40" height="40" filterUnits="userSpaceOnUse" color-interpolation-filters="sRGB">
<feFlood flood-opacity="0" result="BackgroundImageFix"/>
<feColorMatrix in="SourceAlpha" type="matrix" values="0 0 0 0 0 0 0 0 0 0 0 0 0 0 0 0 0 0 127 0" result="hardAlpha"/>
<feOffset dy="4"/>
<feGaussianBlur stdDeviation="2"/>
<feComposite in2="hardAlpha" operator="out"/>
<feColorMatrix type="matrix" values="0 0 0 0 0.127132 0 0 0 0 0.127132 0 0 0 0 0.127132 0 0 0 0.25 0"/>
<feBlend mode="normal" in2="BackgroundImageFix" result="effect1_dropShadow_1117_18519"/>
<feBlend mode="normal" in="SourceGraphic" in2="effect1_dropShadow_1117_18519" result="shape"/>
</filter>
</defs>
</svg>
