<svg width="40" height="40" viewBox="0 0 40 40" fill="none" xmlns="http://www.w3.org/2000/svg">
<path fill-rule="evenodd" clip-rule="evenodd" d="M22.6824 20C22.6824 21.4815 21.4814 22.6825 19.9999 22.6825C18.5183 22.6825 17.3173 21.4815 17.3173 20C17.3173 18.5184 18.5183 17.3174 19.9999 17.3174C21.4814 17.3174 22.6824 18.5184 22.6824 20ZM20.9511 20C20.9511 20.5253 20.5252 20.9512 19.9999 20.9512C19.4745 20.9512 19.0486 20.5253 19.0486 20C19.0486 19.4746 19.4745 19.0487 19.9999 19.0487C20.5252 19.0487 20.9511 19.4746 20.9511 20Z" fill="white"/>
<path fill-rule="evenodd" clip-rule="evenodd" d="M20.0003 6.76782C20.4784 6.76782 20.8659 7.15539 20.8659 7.63348V10.6121C25.3815 11.0232 28.9771 14.6187 29.3882 19.1343H32.3662C32.8443 19.1343 33.2318 19.5219 33.2318 20C33.2318 20.478 32.8443 20.8656 32.3662 20.8656H29.3882C28.9771 25.3812 25.3816 28.9767 20.8659 29.3878V32.3664C20.8659 32.8445 20.4784 33.2321 20.0003 33.2321C19.5222 33.2321 19.1346 32.8445 19.1346 32.3664V29.3878C14.619 28.9767 11.0236 25.3812 10.6125 20.8656H7.63386C7.15577 20.8656 6.7682 20.478 6.7682 20C6.7682 19.5219 7.15577 19.1343 7.63386 19.1343H10.6125C11.0236 14.6187 14.6191 11.0232 19.1346 10.6121V7.63348C19.1346 7.15539 19.5222 6.76782 20.0003 6.76782ZM12.3046 20.0056C12.3046 20.0037 12.3046 20.0018 12.3046 20C12.3046 19.9981 12.3046 19.9962 12.3046 19.9943C12.3076 15.7467 15.752 12.3042 20.0003 12.3042C24.2402 12.3042 27.6792 15.7329 27.696 19.9687C27.6958 19.9743 27.6957 19.9799 27.6956 19.9855C27.6955 19.9903 27.6955 19.9951 27.6955 20C27.6955 20.0044 27.6955 20.0089 27.6956 20.0133C27.6957 20.0193 27.6958 20.0252 27.696 20.0312C27.6792 24.2652 24.2431 27.6928 20.0058 27.6957L20.0003 27.6957C15.752 27.6957 12.3076 24.2533 12.3046 20.0056Z" fill="white"/>
</svg>
