<svg width="34" height="34" viewBox="0 0 34 34" fill="none" xmlns="http://www.w3.org/2000/svg">
<path fill-rule="evenodd" clip-rule="evenodd" d="M5.2558 17.6796V24.5423C5.2558 26.4439 6.80622 27.984 8.71697 27.984L24.8826 27.984C26.7934 27.984 28.3438 26.4439 28.3438 24.5423L28.3438 17.6796C28.3438 17.1698 27.9283 16.7579 27.4174 16.7579C26.9066 16.7579 26.4911 17.1698 26.4911 17.6796L26.4911 24.5423C26.4911 25.4242 25.7718 26.1405 24.8826 26.1405H8.71697C7.82784 26.1405 7.1085 25.4242 7.1085 24.5423L7.1085 17.6796C7.1085 17.1698 6.69296 16.7579 6.18215 16.7579C5.67134 16.7579 5.2558 17.1698 5.2558 17.6796ZM10.2634 11.4401C9.8921 11.7908 9.87699 12.3747 10.2298 12.7439C10.5821 13.1126 11.168 13.1275 11.5388 12.7773L15.8734 8.68353V20.0253C15.8734 20.5352 16.289 20.9471 16.7998 20.9471C17.3106 20.9471 17.7261 20.5352 17.7261 20.0253V8.68353L22.0608 12.7773C22.4316 13.1275 23.0175 13.1126 23.3698 12.7439C23.7226 12.3747 23.7075 11.7908 23.3362 11.4401L17.4375 5.86923C17.0801 5.53163 16.5195 5.53163 16.1621 5.86923L10.2634 11.4401Z" fill="white"/>
</svg>
