<svg width="58" height="50" viewBox="0 0 58 50" fill="none" xmlns="http://www.w3.org/2000/svg">
<g filter="url(#filter0_d_1179_8153)">
<path fill-rule="evenodd" clip-rule="evenodd" d="M45.2281 10.0913C45.5907 9.732 45.5907 9.14949 45.2281 8.79021C44.8654 8.43093 44.2775 8.43093 43.9149 8.79021L40.978 11.7001L38.0412 8.79021C37.6785 8.43093 37.0906 8.43093 36.728 8.79021C36.3654 9.14949 36.3654 9.732 36.728 10.0913L39.6649 13.0012L36.728 15.911C36.3654 16.2703 36.3654 16.8528 36.728 17.2121C37.0906 17.5714 37.6785 17.5714 38.0412 17.2121L40.978 14.3022L43.9149 17.2121C44.2775 17.5714 44.8654 17.5714 45.2281 17.2121C45.5907 16.8528 45.5907 16.2703 45.2281 15.911L42.2912 13.0012L45.2281 10.0913Z" fill="white"/>
<path fill-rule="evenodd" clip-rule="evenodd" d="M33.5221 3.51674C33.576 0.905778 30.6441 -0.661766 28.4718 0.827436L28.4664 0.83119L19.1241 7.33389H15.8242C14.0065 7.33389 12.5 8.82656 12.5 10.6275V15.3747C12.5 17.1756 14.0065 18.6683 15.8242 18.6683H19.1186L28.2427 25.1652C28.2471 25.1684 28.2517 25.1715 28.2562 25.1747C30.4077 26.6496 33.4636 25.1182 33.5219 22.5159C33.522 22.5091 33.5221 22.5023 33.5221 22.4955V3.51674ZM29.5308 2.33893C30.4554 1.70764 31.6922 2.36838 31.6653 3.48471C31.6652 3.49201 31.6651 3.49931 31.6651 3.50662V22.484C31.6327 23.6073 30.2566 24.3016 29.3189 23.6656L19.9595 17.0012C19.8016 16.8888 19.6121 16.8283 19.4176 16.8283H15.8242C15.0322 16.8283 14.3571 16.1594 14.3571 15.3747V10.6275C14.3571 9.84276 15.0322 9.17387 15.8242 9.17387H19.4176C19.6087 9.17387 19.795 9.11549 19.9514 9.00668L29.5308 2.33893Z" fill="white"/>
</g>
<defs>
<filter id="filter0_d_1179_8153" x="0.5" y="0.25" width="57" height="49.5" filterUnits="userSpaceOnUse" color-interpolation-filters="sRGB">
<feFlood flood-opacity="0" result="BackgroundImageFix"/>
<feColorMatrix in="SourceAlpha" type="matrix" values="0 0 0 0 0 0 0 0 0 0 0 0 0 0 0 0 0 0 127 0" result="hardAlpha"/>
<feOffset dy="12"/>
<feGaussianBlur stdDeviation="6"/>
<feComposite in2="hardAlpha" operator="out"/>
<feColorMatrix type="matrix" values="0 0 0 0 0 0 0 0 0 0 0 0 0 0 0 0 0 0 0.1 0"/>
<feBlend mode="normal" in2="BackgroundImageFix" result="effect1_dropShadow_1179_8153"/>
<feBlend mode="normal" in="SourceGraphic" in2="effect1_dropShadow_1179_8153" result="shape"/>
</filter>
</defs>
</svg>
