<svg width="21" height="21" viewBox="0 0 21 21" fill="none" xmlns="http://www.w3.org/2000/svg">
<path fill-rule="evenodd" clip-rule="evenodd" d="M10.5 0.5C4.97655 0.5 0.5 4.97655 0.5 10.5C0.5 16.0235 4.97655 20.5 10.5 20.5C16.0235 20.5 20.5 16.0235 20.5 10.5C20.5 4.97655 16.0235 0.5 10.5 0.5ZM11.3939 18.6679V16.9242C11.3939 16.4313 10.9963 16.0337 10.5034 16.0337C10.0105 16.0337 9.61285 16.4313 9.61285 16.9242V18.6679C5.78552 18.2532 2.75017 15.2179 2.33549 11.3906H4.0792C4.57206 11.3906 4.96975 10.9929 4.96975 10.5C4.96975 10.0071 4.57206 9.60945 4.0792 9.60945H2.33549C2.74677 5.78212 5.78212 2.74677 9.60945 2.33209V4.0758C9.60945 4.56866 10.0071 4.96635 10.5 4.96635C10.9929 4.96635 11.3906 4.56866 11.3906 4.0758V2.33209C15.2179 2.74677 18.2532 5.78212 18.6679 9.60945H16.9242C16.4313 9.60945 16.0337 10.0071 16.0337 10.5C16.0337 10.9929 16.4313 11.3906 16.9242 11.3906H18.6679C18.2532 15.2179 15.2179 18.2532 11.3906 18.6679H11.3939Z" fill="white"/>
<path fill-rule="evenodd" clip-rule="evenodd" d="M12.2877 10.5003C12.2877 11.486 11.4855 12.2882 10.4998 12.2882C9.51409 12.2882 8.71191 11.486 8.71191 10.5003C8.71191 9.51458 9.51409 8.7124 10.4998 8.7124C11.4855 8.7124 12.2877 9.51458 12.2877 10.5003Z" fill="white"/>
</svg>
