<svg width="30" height="30" viewBox="0 0 30 30" fill="none" xmlns="http://www.w3.org/2000/svg">
<path fill-rule="evenodd" clip-rule="evenodd" d="M11.9758 6.73636C11.9758 5.62557 12.8762 4.7251 13.987 4.7251H15.413C16.5237 4.7251 17.4242 5.62557 17.4242 6.73636V7.15904C17.4242 7.20838 17.462 7.29207 17.5691 7.33382C17.6671 7.37203 17.7453 7.34262 17.7816 7.30632L18.1114 6.97653C18.932 6.15589 20.2625 6.15589 21.0832 6.97653L22.0826 7.97596C22.8378 8.73109 22.8378 9.95541 22.0826 10.7105L22.0365 10.7566C21.8685 10.9247 21.8066 11.2225 21.9389 11.5235C22.0682 11.8179 22.3197 11.9759 22.5438 11.9759H22.6637C23.7745 11.9759 24.675 12.8763 24.675 13.9871V15.4131C24.675 16.5238 23.7745 17.4243 22.6637 17.4243H22.3975C22.258 17.4243 22.0871 17.5239 22.0021 17.7287C21.9192 17.9283 21.9673 18.1147 22.0691 18.2166L22.1593 18.3068C22.8721 19.0196 22.8721 20.1752 22.1593 20.888L20.8879 22.1594C20.1751 22.8722 19.0195 22.8722 18.3067 22.1594L18.2165 22.0692C18.1146 21.9674 17.9282 21.9193 17.7285 22.0022C17.5238 22.0872 17.4242 22.2581 17.4242 22.3976V22.6638C17.4242 23.7746 16.5237 24.6751 15.413 24.6751H13.987C12.8763 24.6751 11.9758 23.7746 11.9758 22.6638V22.5439C11.9758 22.3198 11.8178 22.0683 11.5234 21.939C11.2224 21.8067 10.9246 21.8686 10.7565 22.0366L10.7104 22.0827C9.95529 22.8379 8.73097 22.8379 7.97584 22.0827L6.97643 21.0833C6.15577 20.2627 6.15577 18.9321 6.97643 18.1115L7.30622 17.7817C7.34252 17.7454 7.37193 17.6672 7.33372 17.5692C7.29198 17.4621 7.20828 17.4243 7.15895 17.4243H6.73626C5.62547 17.4243 4.725 16.5238 4.725 15.4131V13.9871C4.725 12.8763 5.62547 11.9759 6.73626 11.9759H7.00254C7.14201 11.9759 7.31287 11.8763 7.39789 11.6715C7.48078 11.4719 7.43272 11.2855 7.33088 11.1836L7.04431 10.897C6.18618 10.0389 6.18618 8.6476 7.04431 7.78946L7.78936 7.04441C8.64749 6.18628 10.0388 6.18628 10.8969 7.04441L11.1835 7.33098C11.2854 7.43283 11.4718 7.48088 11.6714 7.39799C11.8762 7.31297 11.9758 7.14211 11.9758 7.00263V6.73636ZM13.987 6.03024C13.5971 6.03024 13.2809 6.34638 13.2809 6.73636V7.00263C13.2809 7.74944 12.7856 8.34856 12.1719 8.60337C11.5527 8.86045 10.7857 8.77894 10.2606 8.25385L9.97407 7.96729C9.62562 7.61884 9.06068 7.61884 8.71223 7.96729L7.96718 8.71234C7.61874 9.06078 7.61874 9.62572 7.96718 9.97417L8.25375 10.2607C8.77884 10.7858 8.86035 11.5528 8.60327 12.172C8.34846 12.7857 7.74934 13.281 7.00254 13.281H6.73626C6.34628 13.281 6.03014 13.5972 6.03014 13.9871V15.4131C6.03014 15.803 6.34628 16.1192 6.73626 16.1192H7.15895C7.81031 16.1192 8.33706 16.5495 8.54976 17.0952C8.75609 17.6246 8.66893 18.2647 8.22909 18.7046L7.8993 19.0343C7.58834 19.3453 7.58834 19.8495 7.8993 20.1604L8.89871 21.1599C9.14416 21.4053 9.54211 21.4053 9.78756 21.1599L9.83366 21.1138C10.4446 20.5028 11.3409 20.4332 12.0484 20.7441C12.7243 21.0411 13.2809 21.708 13.2809 22.5439V22.6638C13.2809 23.0538 13.5971 23.37 13.987 23.37H15.413C15.8029 23.37 16.1191 23.0538 16.1191 22.6638V22.3976C16.1191 21.6508 16.6144 21.0516 17.2281 20.7968C17.8473 20.5397 18.6143 20.6213 19.1394 21.1463L19.2296 21.2366C19.4327 21.4396 19.7619 21.4396 19.965 21.2366L21.2365 19.9651C21.4395 19.762 21.4395 19.4328 21.2365 19.2297L21.1462 19.1395C20.6212 18.6144 20.5396 17.8474 20.7967 17.2282C21.0515 16.6145 21.6507 16.1192 22.3975 16.1192H22.6637C23.0537 16.1192 23.3699 15.803 23.3699 15.4131V13.9871C23.3699 13.5972 23.0537 13.281 22.6637 13.281H22.5438C21.7079 13.281 21.041 12.7244 20.744 12.0485C20.4331 11.341 20.5027 10.4447 21.1137 9.83376L21.1598 9.78766C21.4052 9.54222 21.4052 9.14428 21.1598 8.89884L20.1603 7.89941C19.8494 7.58845 19.3452 7.58845 19.0342 7.89941L18.7045 8.22919C18.2646 8.66903 17.6245 8.75619 17.0951 8.54986C16.5494 8.33716 16.1191 7.8104 16.1191 7.15904V6.73636C16.1191 6.34638 15.8029 6.03024 15.413 6.03024H13.987ZM14.7 12.2452C13.3442 12.2452 12.2451 13.3443 12.2451 14.7001C12.2451 16.0559 13.3442 17.155 14.7 17.155C16.0558 17.155 17.1549 16.0559 17.1549 14.7001C17.1549 13.3443 16.0558 12.2452 14.7 12.2452ZM10.94 14.7001C10.94 12.6235 12.6234 10.9401 14.7 10.9401C16.7766 10.9401 18.46 12.6235 18.46 14.7001C18.46 16.7767 16.7766 18.4601 14.7 18.4601C12.6234 18.4601 10.94 16.7767 10.94 14.7001Z" fill="white"/>
</svg>
