<svg width="58" height="58" viewBox="0 0 58 58" fill="none" xmlns="http://www.w3.org/2000/svg">
<g filter="url(#filter0_d_44_705)">
<g filter="url(#filter1_d_44_705)">
<path fill-rule="evenodd" clip-rule="evenodd" d="M45.2281 18.0913C45.5907 17.732 45.5907 17.1495 45.2281 16.7902C44.8654 16.4309 44.2775 16.4309 43.9149 16.7902L40.978 19.7001L38.0412 16.7902C37.6785 16.4309 37.0906 16.4309 36.728 16.7902C36.3654 17.1495 36.3654 17.732 36.728 18.0913L39.6649 21.0012L36.728 23.911C36.3654 24.2703 36.3654 24.8528 36.728 25.2121C37.0906 25.5714 37.6785 25.5714 38.0412 25.2121L40.978 22.3022L43.9149 25.2121C44.2775 25.5714 44.8654 25.5714 45.2281 25.2121C45.5907 24.8528 45.5907 24.2703 45.2281 23.911L42.2912 21.0012L45.2281 18.0913Z" fill="white"/>
<path fill-rule="evenodd" clip-rule="evenodd" d="M33.5221 11.5167C33.576 8.90578 30.6441 7.33823 28.4718 8.82744L28.4664 8.83119L19.1241 15.3339H15.8242C14.0065 15.3339 12.5 16.8266 12.5 18.6275V23.3747C12.5 25.1756 14.0065 26.6683 15.8242 26.6683H19.1186L28.2427 33.1652C28.2471 33.1684 28.2517 33.1715 28.2562 33.1747C30.4077 34.6496 33.4636 33.1182 33.5219 30.5159C33.522 30.5091 33.5221 30.5023 33.5221 30.4955V11.5167ZM29.5308 10.3389C30.4554 9.70764 31.6922 10.3684 31.6653 11.4847C31.6652 11.492 31.6651 11.4993 31.6651 11.5066V30.484C31.6327 31.6073 30.2566 32.3016 29.3189 31.6656L19.9595 25.0012C19.8016 24.8888 19.6121 24.8283 19.4176 24.8283H15.8242C15.0322 24.8283 14.3571 24.1594 14.3571 23.3747V18.6275C14.3571 17.8428 15.0322 17.1739 15.8242 17.1739H19.4176C19.6087 17.1739 19.795 17.1155 19.9514 17.0067L29.5308 10.3389Z" fill="white"/>
</g>
</g>
<defs>
<filter id="filter0_d_44_705" x="4" y="0" width="50" height="50" filterUnits="userSpaceOnUse" color-interpolation-filters="sRGB">
<feFlood flood-opacity="0" result="BackgroundImageFix"/>
<feColorMatrix in="SourceAlpha" type="matrix" values="0 0 0 0 0 0 0 0 0 0 0 0 0 0 0 0 0 0 127 0" result="hardAlpha"/>
<feOffset dy="4"/>
<feGaussianBlur stdDeviation="2"/>
<feComposite in2="hardAlpha" operator="out"/>
<feColorMatrix type="matrix" values="0 0 0 0 0.127132 0 0 0 0 0.127132 0 0 0 0 0.127132 0 0 0 0.25 0"/>
<feBlend mode="normal" in2="BackgroundImageFix" result="effect1_dropShadow_44_705"/>
<feBlend mode="normal" in="SourceGraphic" in2="effect1_dropShadow_44_705" result="shape"/>
</filter>
<filter id="filter1_d_44_705" x="0.5" y="8.25" width="57" height="49.5" filterUnits="userSpaceOnUse" color-interpolation-filters="sRGB">
<feFlood flood-opacity="0" result="BackgroundImageFix"/>
<feColorMatrix in="SourceAlpha" type="matrix" values="0 0 0 0 0 0 0 0 0 0 0 0 0 0 0 0 0 0 127 0" result="hardAlpha"/>
<feOffset dy="12"/>
<feGaussianBlur stdDeviation="6"/>
<feComposite in2="hardAlpha" operator="out"/>
<feColorMatrix type="matrix" values="0 0 0 0 0 0 0 0 0 0 0 0 0 0 0 0 0 0 0.1 0"/>
<feBlend mode="normal" in2="BackgroundImageFix" result="effect1_dropShadow_44_705"/>
<feBlend mode="normal" in="SourceGraphic" in2="effect1_dropShadow_44_705" result="shape"/>
</filter>
</defs>
</svg>
