<svg width="34" height="34" viewBox="0 0 34 34" fill="none" xmlns="http://www.w3.org/2000/svg">
<path fill-rule="evenodd" clip-rule="evenodd" d="M7.58931 6.4224C7.15985 6.00846 6.47615 6.02105 6.06221 6.4505C5.64828 6.87996 5.66086 7.56366 6.09032 7.9776L15.2436 16.8L6.09032 25.6224C5.66086 26.0363 5.64828 26.72 6.06221 27.1495C6.47615 27.5789 7.15985 27.5915 7.58931 27.1776L16.7998 18.3L26.0103 27.1776C26.4398 27.5915 27.1235 27.5789 27.5374 27.1495C27.9513 26.72 27.9388 26.0363 27.5093 25.6224L18.3561 16.8L27.5093 7.9776C27.9388 7.56366 27.9513 6.87996 27.5374 6.4505C27.1235 6.02105 26.4398 6.00846 26.0103 6.4224L16.7998 15.3L7.58931 6.4224Z" fill="white"/>
</svg>
