<svg width="52" height="53" viewBox="0 0 52 53" fill="none" xmlns="http://www.w3.org/2000/svg">
<g filter="url(#filter0_d_46_2080)">
<g filter="url(#filter1_d_46_2080)">
<path fill-rule="evenodd" clip-rule="evenodd" d="M40.6053 16.3821C40.9316 16.0588 40.9316 15.5345 40.6053 15.2111C40.2789 14.8878 39.7498 14.8878 39.4235 15.2111L36.7803 17.83L34.1371 15.2111C33.8107 14.8878 33.2816 14.8878 32.9552 15.2111C32.6289 15.5345 32.6289 16.0588 32.9552 16.3821L35.5984 19.001L32.9552 21.6199C32.6289 21.9432 32.6289 22.4675 32.9552 22.7908C33.2816 23.1142 33.8107 23.1142 34.1371 22.7908L36.7803 20.172L39.4235 22.7908C39.7498 23.1142 40.2789 23.1142 40.6053 22.7908C40.9316 22.4675 40.9316 21.9432 40.6053 21.6199L37.9621 19.001L40.6053 16.3821Z" fill="#A3A3A3"/>
<path fill-rule="evenodd" clip-rule="evenodd" d="M30.0699 10.4651C30.1184 8.11522 27.4797 6.70443 25.5247 8.04472L25.5198 8.0481L17.1117 13.9005H14.1418C12.5059 13.9005 11.15 15.2439 11.15 16.8648V21.1373C11.15 22.7581 12.5059 24.1015 14.1418 24.1015H17.1067L25.3184 29.9487C25.3225 29.9516 25.3265 29.9544 25.3306 29.9572C27.2669 31.2847 30.0173 29.9064 30.0697 27.5643C30.0699 27.5582 30.0699 27.5521 30.0699 27.546V10.4651ZM26.4778 9.40506C27.3099 8.8369 28.423 9.43157 28.3988 10.4363C28.3987 10.4428 28.3986 10.4494 28.3986 10.456V27.5356C28.3695 28.5466 27.131 29.1714 26.287 28.5991L17.8636 22.6011C17.7215 22.4999 17.5509 22.4455 17.3759 22.4455H14.1418C13.429 22.4455 12.8214 21.8435 12.8214 21.1373V16.8648C12.8214 16.1585 13.429 15.5565 14.1418 15.5565H17.3759C17.5478 15.5565 17.7156 15.504 17.8563 15.406L26.4778 9.40506Z" fill="#A3A3A3"/>
</g>
</g>
<defs>
<filter id="filter0_d_46_2080" x="3.10001" y="0.100098" width="45.8" height="45.8" filterUnits="userSpaceOnUse" color-interpolation-filters="sRGB">
<feFlood flood-opacity="0" result="BackgroundImageFix"/>
<feColorMatrix in="SourceAlpha" type="matrix" values="0 0 0 0 0 0 0 0 0 0 0 0 0 0 0 0 0 0 127 0" result="hardAlpha"/>
<feOffset dy="4"/>
<feGaussianBlur stdDeviation="2"/>
<feComposite in2="hardAlpha" operator="out"/>
<feColorMatrix type="matrix" values="0 0 0 0 0.127132 0 0 0 0 0.127132 0 0 0 0 0.127132 0 0 0 0.25 0"/>
<feBlend mode="normal" in2="BackgroundImageFix" result="effect1_dropShadow_46_2080"/>
<feBlend mode="normal" in="SourceGraphic" in2="effect1_dropShadow_46_2080" result="shape"/>
</filter>
<filter id="filter1_d_46_2080" x="0.350025" y="7.52502" width="51.3" height="44.5499" filterUnits="userSpaceOnUse" color-interpolation-filters="sRGB">
<feFlood flood-opacity="0" result="BackgroundImageFix"/>
<feColorMatrix in="SourceAlpha" type="matrix" values="0 0 0 0 0 0 0 0 0 0 0 0 0 0 0 0 0 0 127 0" result="hardAlpha"/>
<feOffset dy="10.8"/>
<feGaussianBlur stdDeviation="5.4"/>
<feComposite in2="hardAlpha" operator="out"/>
<feColorMatrix type="matrix" values="0 0 0 0 0 0 0 0 0 0 0 0 0 0 0 0 0 0 0.1 0"/>
<feBlend mode="normal" in2="BackgroundImageFix" result="effect1_dropShadow_46_2080"/>
<feBlend mode="normal" in="SourceGraphic" in2="effect1_dropShadow_46_2080" result="shape"/>
</filter>
</defs>
</svg>
