<svg width="20" height="20" viewBox="0 0 20 20" fill="none" xmlns="http://www.w3.org/2000/svg">
<path fill-rule="evenodd" clip-rule="evenodd" d="M8.922 1.62805C8.922 1.03269 9.40464 0.550049 10 0.550049C10.5954 0.550049 11.078 1.03269 11.078 1.62805V8.66048C11.078 8.77646 11.172 8.87048 11.288 8.87048H18.372C18.9674 8.87048 19.45 9.35312 19.45 9.94848C19.45 10.5438 18.9674 11.0265 18.372 11.0265H11.288C11.172 11.0265 11.078 11.1205 11.078 11.2365V18.372C11.078 18.9674 10.5954 19.45 10 19.45C9.40464 19.45 8.922 18.9674 8.922 18.372V11.2365C8.922 11.1205 8.82798 11.0265 8.712 11.0265H1.628C1.03264 11.0265 0.550003 10.5438 0.550003 9.94848C0.550003 9.35312 1.03264 8.87048 1.628 8.87048H8.712C8.82798 8.87048 8.922 8.77646 8.922 8.66048V1.62805Z" fill="#2F2F2F"/>
</svg>
