<svg width="56" height="56" viewBox="0 0 56 56" fill="none" xmlns="http://www.w3.org/2000/svg">
<rect width="56" height="56" rx="28" fill="#CEFF00"/>
<path fill-rule="evenodd" clip-rule="evenodd" d="M26.9218 19.6278C26.9218 19.0324 27.4044 18.5498 27.9998 18.5498C28.5952 18.5498 29.0778 19.0324 29.0778 19.6278V26.6602C29.0778 26.7762 29.1718 26.8702 29.2878 26.8702H36.3718C36.9672 26.8702 37.4498 27.3529 37.4498 27.9482C37.4498 28.5436 36.9672 29.0262 36.3718 29.0262H29.2878C29.1718 29.0262 29.0778 29.1203 29.0778 29.2362V36.3718C29.0778 36.9672 28.5952 37.4498 27.9998 37.4498C27.4044 37.4498 26.9218 36.9672 26.9218 36.3718V29.2362C26.9218 29.1203 26.8278 29.0262 26.7118 29.0262H19.6278C19.0324 29.0262 18.5498 28.5436 18.5498 27.9482C18.5498 27.3529 19.0324 26.8702 19.6278 26.8702H26.7118C26.8278 26.8702 26.9218 26.7762 26.9218 26.6602V19.6278Z" fill="#2F2F2F"/>
</svg>
