<svg width="27" height="28" viewBox="0 0 27 28" fill="none" xmlns="http://www.w3.org/2000/svg">
<path fill-rule="evenodd" clip-rule="evenodd" d="M14.1216 6.68511C13.7015 6.43647 13.1791 6.43647 12.759 6.68511C10.8647 7.80622 9.22122 8.50661 6.87907 8.74311C6.11606 8.82016 5.58523 9.40773 5.6159 10.0306C5.69895 11.7176 5.99247 13.6741 7.01504 15.6476C8.03444 17.615 9.80088 19.6426 12.8976 21.436C13.2322 21.6298 13.6484 21.6298 13.983 21.436C17.0797 19.6426 18.8462 17.615 19.8656 15.6476C20.8882 13.6741 21.1817 11.7176 21.2647 10.0306C21.2954 9.40773 20.7646 8.82016 20.0016 8.74311C17.6594 8.50661 16.0159 7.80622 14.1216 6.68511ZM12.0986 5.57521C12.9258 5.08561 13.9548 5.08561 14.7821 5.57521C16.5702 6.63348 18.0323 7.24704 20.1319 7.45906C21.4348 7.59062 22.6284 8.64844 22.5573 10.0939C22.4693 11.8809 22.1547 14.0409 21.0153 16.2401C19.8726 18.4454 17.9231 20.6467 14.6329 22.5521C13.8964 22.9786 12.9842 22.9786 12.2477 22.5521C8.95755 20.6467 7.00799 18.4454 5.86535 16.2401C4.72588 14.0409 4.41132 11.8809 4.32334 10.0939C4.25218 8.64844 5.44583 7.59062 6.7487 7.45906C8.84833 7.24704 10.3104 6.63348 12.0986 5.57521Z" fill="white"/>
<path d="M11.0156 11.6157C11.1966 11.4347 11.4901 11.4347 11.671 11.6157L13.4399 13.3846L15.2087 11.6157C15.3897 11.4347 15.6832 11.4347 15.8641 11.6157C16.0451 11.7967 16.0451 12.0901 15.8641 12.2711L14.0953 14.04L15.8641 15.8088C16.0451 15.9898 16.0451 16.2833 15.8641 16.4642C15.6832 16.6452 15.3897 16.6452 15.2087 16.4642L13.4399 14.6954L11.671 16.4642C11.4901 16.6452 11.1966 16.6452 11.0156 16.4642C10.8346 16.2833 10.8346 15.9898 11.0156 15.8088L12.7845 14.04L11.0156 12.2711C10.8346 12.0901 10.8346 11.7967 11.0156 11.6157Z" fill="white"/>
</svg>
