<svg width="85" height="84" viewBox="0 0 85 84" fill="none" xmlns="http://www.w3.org/2000/svg">
<path fill-rule="evenodd" clip-rule="evenodd" d="M52.0762 15.5567C52.0762 14.4208 52.997 13.5 54.1329 13.5H69.2434C70.3792 13.5 71.3001 14.4208 71.3001 15.5567V30.6672C71.3001 31.803 70.3792 32.7239 69.2434 32.7239C68.1075 32.7239 67.1866 31.803 67.1866 30.6672V20.522L44.2544 43.4543C43.4512 44.2575 42.1489 44.2575 41.3457 43.4543C40.5426 42.6511 40.5426 41.3489 41.3457 40.5457L64.278 17.6134H54.1329C52.997 17.6134 52.0762 16.6926 52.0762 15.5567ZM23.9959 25.1686C20.9128 25.1686 18.4135 27.668 18.4135 30.7511V60.8041C18.4135 63.8872 20.9128 66.3866 23.9959 66.3866H54.0489C57.1321 66.3866 59.6314 63.8872 59.6314 60.8041V42C59.6314 40.8641 60.5522 39.9433 61.6881 39.9433C62.824 39.9433 63.7448 40.8641 63.7448 42V60.8041C63.7448 66.159 59.4038 70.5 54.0489 70.5H23.9959C18.641 70.5 14.3 66.159 14.3 60.8041V30.7511C14.3 25.3962 18.641 21.0552 23.9959 21.0552H42.8001C43.9359 21.0552 44.8568 21.976 44.8568 23.1119C44.8568 24.2478 43.9359 25.1686 42.8001 25.1686H23.9959Z" fill="white"/>
</svg>
