<svg width="56" height="56" viewBox="0 0 56 56" fill="none" xmlns="http://www.w3.org/2000/svg">
<rect width="56" height="56" rx="28" fill="#A9D000"/>
<path fill-rule="evenodd" clip-rule="evenodd" d="M26.922 19.628C26.922 19.0327 27.4046 18.55 28 18.55C28.5953 18.55 29.078 19.0327 29.078 19.628V26.6605C29.078 26.7765 29.172 26.8705 29.288 26.8705H36.372C36.9674 26.8705 37.45 27.3531 37.45 27.9485C37.45 28.5438 36.9674 29.0265 36.372 29.0265H29.288C29.172 29.0265 29.078 29.1205 29.078 29.2365V36.372C29.078 36.9674 28.5953 37.45 28 37.45C27.4046 37.45 26.922 36.9674 26.922 36.372V29.2365C26.922 29.1205 26.828 29.0265 26.712 29.0265H19.628C19.0326 29.0265 18.55 28.5438 18.55 27.9485C18.55 27.3531 19.0326 26.8705 19.628 26.8705H26.712C26.828 26.8705 26.922 26.7765 26.922 26.6605V19.628Z" fill="#2F2F2F"/>
</svg>
