<svg width="24" height="23" viewBox="0 0 24 23" fill="none" xmlns="http://www.w3.org/2000/svg">
<path fill-rule="evenodd" clip-rule="evenodd" d="M12.6024 5.29848C12.2546 5.0926 11.822 5.0926 11.4742 5.29848C9.90568 6.22676 8.54489 6.80668 6.60559 7.0025C5.97382 7.0663 5.53429 7.55281 5.55968 8.06856C5.62845 9.46539 5.87148 11.0853 6.71817 12.7194C7.56224 14.3485 9.02485 16.0273 11.5889 17.5122C11.866 17.6727 12.2106 17.6727 12.4877 17.5122C15.0517 16.0273 16.5144 14.3485 17.3584 12.7194C18.2051 11.0853 18.4482 9.46539 18.5169 8.06856C18.5423 7.55281 18.1028 7.0663 17.471 7.0025C15.5317 6.80668 14.1709 6.22676 12.6024 5.29848ZM10.9273 4.37948C11.6123 3.97409 12.4643 3.97409 13.1493 4.37948C14.6298 5.25573 15.8405 5.76376 17.579 5.93931C18.6577 6.04824 19.6461 6.92412 19.5872 8.12096C19.5143 9.60062 19.2538 11.3891 18.3104 13.21C17.3643 15.036 15.75 16.8586 13.0258 18.4364C12.416 18.7895 11.6606 18.7895 11.0508 18.4364C8.32657 16.8586 6.71234 15.036 5.76623 13.21C4.82275 11.3891 4.56229 9.60062 4.48945 8.12096C4.43053 6.92412 5.41887 6.04824 6.49765 5.93931C8.23614 5.76376 9.44675 5.25573 10.9273 4.37948Z" fill="#A3A3A3"/>
<path d="M10.031 9.38107C10.1809 9.23121 10.4238 9.23121 10.5737 9.38107L12.0383 10.8457L13.5029 9.38107C13.6528 9.23121 13.8957 9.23121 14.0456 9.38107C14.1954 9.53093 14.1954 9.7739 14.0456 9.92375L12.581 11.3884L14.0456 12.853C14.1954 13.0028 14.1954 13.2458 14.0456 13.3956C13.8957 13.5455 13.6528 13.5455 13.5029 13.3956L12.0383 11.931L10.5737 13.3956C10.4238 13.5455 10.1809 13.5455 10.031 13.3956C9.88114 13.2458 9.88115 13.0028 10.031 12.853L11.4956 11.3884L10.031 9.92375C9.88115 9.7739 9.88115 9.53093 10.031 9.38107Z" fill="#A3A3A3"/>
</svg>
