<svg width="27" height="27" viewBox="0 0 27 27" fill="none" xmlns="http://www.w3.org/2000/svg">
<path fill-rule="evenodd" clip-rule="evenodd" d="M11.2482 6.53267C11.2482 5.53296 12.0586 4.72253 13.0583 4.72253H14.3417C15.3414 4.72253 16.1518 5.53296 16.1518 6.53267V6.91309C16.1518 6.95749 16.1858 7.03281 16.2822 7.07038C16.3704 7.10477 16.4408 7.0783 16.4734 7.04563L16.7702 6.74883C17.5088 6.01024 18.7063 6.01024 19.4449 6.74883L20.3444 7.64831C21.024 8.32793 21.024 9.42981 20.3444 10.1094L20.3029 10.1509C20.1516 10.3022 20.0959 10.5702 20.215 10.8411C20.3314 11.1061 20.5578 11.2482 20.7594 11.2482H20.8674C21.8671 11.2482 22.6775 12.0587 22.6775 13.0584V14.3417C22.6775 15.3414 21.8671 16.1518 20.8674 16.1518H20.6277C20.5022 16.1518 20.3484 16.2414 20.2719 16.4257C20.1973 16.6054 20.2405 16.7732 20.3322 16.8649L20.4134 16.9461C21.0549 17.5876 21.0549 18.6276 20.4134 19.2692L19.2691 20.4134C18.6276 21.0549 17.5875 21.0549 16.946 20.4134L16.8648 20.3322C16.7732 20.2406 16.6054 20.1973 16.4257 20.2719C16.2414 20.3485 16.1518 20.5022 16.1518 20.6277V20.8674C16.1518 21.8671 15.3414 22.6775 14.3417 22.6775H13.0583C12.0586 22.6775 11.2482 21.8671 11.2482 20.8674V20.7594C11.2482 20.5578 11.106 20.3314 10.8411 20.215C10.5701 20.096 10.3021 20.1516 10.1509 20.3029L10.1094 20.3444C9.42976 21.024 8.32788 21.024 7.64825 20.3444L6.74878 19.4449C6.0102 18.7063 6.0102 17.5089 6.74878 16.7703L7.04559 16.4735C7.07827 16.4408 7.10473 16.3704 7.07035 16.2822C7.03278 16.1858 6.95745 16.1518 6.91305 16.1518H6.53263C5.53292 16.1518 4.7225 15.3414 4.7225 14.3417V13.0584C4.7225 12.0587 5.53292 11.2482 6.53263 11.2482H6.77228C6.89781 11.2482 7.05158 11.1586 7.1281 10.9743C7.2027 10.7947 7.15945 10.6269 7.06779 10.5352L6.80988 10.2773C6.03756 9.50496 6.03756 8.25278 6.80988 7.48046L7.48042 6.80992C8.25274 6.0376 9.50492 6.0376 10.2772 6.80992L10.5352 7.06783C10.6268 7.15949 10.7946 7.20274 10.9743 7.12814C11.1586 7.05162 11.2482 6.89784 11.2482 6.77232V6.53267ZM13.0583 5.89716C12.7074 5.89716 12.4228 6.18169 12.4228 6.53267V6.77232C12.4228 7.44444 11.9771 7.98365 11.4247 8.21298C10.8674 8.44435 10.1772 8.37099 9.70457 7.89841L9.44666 7.6405C9.13306 7.3269 8.62461 7.3269 8.31101 7.6405L7.64047 8.31105C7.32686 8.62465 7.32686 9.1331 7.64047 9.4467L7.89838 9.70461C8.37096 10.1772 8.44431 10.8675 8.21294 11.4247C7.98361 11.9771 7.44441 12.4229 6.77228 12.4229H6.53263C6.18165 12.4229 5.89712 12.7074 5.89712 13.0584V14.3417C5.89712 14.6927 6.18165 14.9772 6.53263 14.9772H6.91305C7.49927 14.9772 7.97335 15.3645 8.16479 15.8557C8.35048 16.3321 8.27204 16.9082 7.87618 17.304L7.57937 17.6009C7.2995 17.8807 7.2995 18.3345 7.57937 18.6143L8.47884 19.5138C8.69974 19.7347 9.0579 19.7347 9.2788 19.5138L9.32029 19.4723C9.87012 18.9225 10.6768 18.8598 11.3136 19.1396C11.9219 19.4069 12.4228 20.0072 12.4228 20.7594V20.8674C12.4228 21.2184 12.7074 21.5029 13.0583 21.5029H14.3417C14.6926 21.5029 14.9772 21.2184 14.9772 20.8674V20.6277C14.9772 19.9556 15.4229 19.4164 15.9753 19.1871C16.5326 18.9557 17.2228 19.0291 17.6954 19.5017L17.7766 19.5828C17.9594 19.7656 18.2557 19.7656 18.4385 19.5828L19.5828 18.4386C19.7656 18.2558 19.7656 17.9594 19.5828 17.7766L19.5016 17.6955C19.029 17.2229 18.9557 16.5326 19.187 15.9753C19.4164 15.423 19.9556 14.9772 20.6277 14.9772H20.8674C21.2183 14.9772 21.5029 14.6927 21.5029 14.3417V13.0584C21.5029 12.7074 21.2183 12.4229 20.8674 12.4229H20.7594C20.0071 12.4229 19.4069 11.9219 19.1396 11.3136C18.8598 10.6768 18.9225 9.87015 19.4723 9.32033L19.5138 9.27884C19.7347 9.05795 19.7347 8.6998 19.5138 8.4789L18.6143 7.57941C18.3344 7.29955 17.8807 7.29955 17.6008 7.57941L17.304 7.87622C16.9082 8.27207 16.3321 8.35051 15.8556 8.16482C15.3644 7.97339 14.9772 7.49931 14.9772 6.91309V6.53267C14.9772 6.18169 14.6926 5.89716 14.3417 5.89716H13.0583ZM13.7 11.4906C12.4798 11.4906 11.4906 12.4798 11.4906 13.7C11.4906 14.9203 12.4798 15.9094 13.7 15.9094C14.9202 15.9094 15.9094 14.9203 15.9094 13.7C15.9094 12.4798 14.9202 11.4906 13.7 11.4906ZM10.316 13.7C10.316 11.8311 11.831 10.316 13.7 10.316C15.569 10.316 17.084 11.8311 17.084 13.7C17.084 15.569 15.569 17.0841 13.7 17.0841C11.831 17.0841 10.316 15.569 10.316 13.7Z" fill="#A3A3A3"/>
</svg>
