<svg width="38" height="41" viewBox="0 0 38 41" fill="none" xmlns="http://www.w3.org/2000/svg">
<path d="M10.9 12.7437L15.0555 18.2843C15.1957 18.4733 15.3754 18.6268 15.581 18.7336C15.7867 18.8401 16.0129 18.8971 16.2428 18.8999C16.469 18.9028 16.6929 18.8531 16.8983 18.7549C17.1037 18.6565 17.2853 18.5119 17.4301 18.3317L27.1 6.30005" stroke="white" stroke-width="1.8" stroke-linecap="round" stroke-linejoin="round"/>
<path d="M7.30701 36.2H4.18396V27.0085H7.35779C10.1 27.0085 11.7631 28.7351 11.7631 31.5916C11.7631 34.4607 10.1 36.2 7.30701 36.2ZM5.83436 34.7654H7.21814C9.13514 34.7654 10.1127 33.7117 10.1127 31.5916C10.1127 29.4841 9.13514 28.4431 7.26893 28.4431H5.83436V34.7654ZM16.0756 36.3396C14.0698 36.3396 12.7749 34.9177 12.7749 32.7849C12.7749 30.6394 14.0698 29.2175 16.0756 29.2175C18.0942 29.2175 19.3764 30.6394 19.3764 32.7849C19.3764 34.9177 18.0942 36.3396 16.0756 36.3396ZM16.0883 35.0447C17.1928 35.0447 17.7387 34.0417 17.7387 32.7722C17.7387 31.5154 17.1928 30.4998 16.0883 30.4998C14.9585 30.4998 14.4126 31.5154 14.4126 32.7722C14.4126 34.0417 14.9585 35.0447 16.0883 35.0447ZM22.1783 32.1628V36.2H20.5533V29.3064H22.1021V30.4744H22.191C22.5083 29.7 23.2066 29.2175 24.2349 29.2175C25.6695 29.2175 26.6089 30.157 26.5962 31.8074V36.2H24.9839V32.0613C24.9839 31.1345 24.4888 30.5886 23.6382 30.5886C22.7749 30.5886 22.1783 31.1599 22.1783 32.1628ZM31.1246 36.3396C29.0426 36.3396 27.7731 34.9558 27.7731 32.7976C27.7731 30.6648 29.068 29.2175 31.0358 29.2175C32.7242 29.2175 34.1842 30.2712 34.1842 32.696V33.2039H29.3727C29.3917 34.3782 30.0836 35.0701 31.1373 35.0701C31.8483 35.0701 32.3307 34.7654 32.5338 34.3591H34.1207C33.8287 35.5525 32.7242 36.3396 31.1246 36.3396ZM29.3854 32.0994H32.6354C32.6227 31.1599 32.0006 30.4744 31.0612 30.4744C30.0836 30.4744 29.4362 31.217 29.3854 32.0994Z" fill="white"/>
</svg>
