<svg width="27" height="27" viewBox="0 0 27 27" fill="none" xmlns="http://www.w3.org/2000/svg">
<path fill-rule="evenodd" clip-rule="evenodd" d="M4.20483 14.1437L4.20483 19.6338C4.20483 21.1551 5.44517 22.3872 6.97378 22.3872H19.9063C21.4349 22.3872 22.6752 21.1551 22.6752 19.6338L22.6752 14.1437C22.6752 13.7358 22.3428 13.4063 21.9342 13.4063C21.5255 13.4063 21.1931 13.7358 21.1931 14.1437V19.6338C21.1931 20.3393 20.6176 20.9124 19.9063 20.9124H6.97378C6.26247 20.9124 5.687 20.3393 5.687 19.6338L5.687 14.1437C5.687 13.7358 5.35457 13.4063 4.94592 13.4063C4.53727 13.4063 4.20483 13.7358 4.20483 14.1437ZM8.2109 9.1521C7.91387 9.43262 7.90179 9.89974 8.18403 10.1951C8.4659 10.4901 8.93461 10.502 9.23125 10.2218L12.699 6.9468L12.699 16.0202C12.699 16.4281 13.0314 16.7576 13.44 16.7576C13.8487 16.7576 14.1811 16.4281 14.1811 16.0202V6.9468L17.6488 10.2218C17.9455 10.502 18.4142 10.4901 18.696 10.1951C18.9783 9.89974 18.9662 9.43262 18.6692 9.1521L13.9502 4.69536C13.6642 4.42528 13.2158 4.42528 12.9299 4.69536L8.2109 9.1521Z" fill="white"/>
</svg>
