<svg width="59" height="59" viewBox="0 0 59 59" fill="none" xmlns="http://www.w3.org/2000/svg">
<rect width="59" height="59" rx="13.9455" fill="#202020" fill-opacity="0.6"/>
<path fill-rule="evenodd" clip-rule="evenodd" d="M29.546 30.7433C29.5317 30.744 29.5173 30.7444 29.5029 30.7444C28.8155 30.7444 28.2587 30.187 28.2587 29.5C28.2587 28.8273 28.7926 28.2789 29.4603 28.2564C29.4745 28.2557 29.4889 28.2553 29.5034 28.2553C30.1908 28.2553 30.7476 28.8126 30.7476 29.4996C30.7476 30.1724 30.2136 30.7208 29.546 30.7433Z" fill="white"/>
<path fill-rule="evenodd" clip-rule="evenodd" d="M24.8428 30.7422C24.8225 30.7437 24.8019 30.7445 24.7812 30.7445C24.0938 30.7445 23.537 30.1871 23.537 29.5001C23.537 28.8337 24.0611 28.2892 24.72 28.2573C24.7403 28.2558 24.7609 28.255 24.7816 28.255C25.469 28.255 26.0258 28.8123 26.0258 29.4993C26.0258 30.1658 25.5017 30.7103 24.8428 30.7422Z" fill="white"/>
<path fill-rule="evenodd" clip-rule="evenodd" d="M34.2676 30.7433C34.2534 30.744 34.239 30.7444 34.2245 30.7444C33.5372 30.7444 32.9803 30.187 32.9803 29.5C32.9803 28.8273 33.5144 28.2788 34.1821 28.2564C34.1963 28.2557 34.2107 28.2553 34.2251 28.2553C34.9123 28.2553 35.4694 28.8124 35.4694 29.4996C35.4694 30.1726 34.9351 30.7209 34.2676 30.7433Z" fill="white"/>
<path fill-rule="evenodd" clip-rule="evenodd" d="M29.4965 17.625C31.2831 17.624 33.0469 18.0263 34.6565 18.8021C36.266 19.5778 37.6798 20.707 38.7924 22.1054C39.905 23.5037 40.6876 25.1352 41.082 26.8782C41.4766 28.6213 41.4725 30.4309 41.0705 32.1721C40.6686 33.9134 39.8786 35.5415 38.76 36.9349C37.6415 38.3285 36.2227 39.4515 34.6098 40.2202C32.9968 40.989 31.2312 41.3837 29.4445 41.3748C27.7483 41.3664 26.0747 40.9945 24.5361 40.2855L18.585 41.362C18.2964 41.4142 18.002 41.3073 17.8141 41.082C17.6263 40.8568 17.5739 40.5479 17.6771 40.2734L19.3877 35.7207C18.3391 34.0151 17.7374 32.0697 17.6419 30.0651C17.5397 27.9196 18.0212 25.7865 19.0351 23.893C20.0491 21.9995 21.5575 20.4166 23.3997 19.3128C25.2419 18.209 27.3491 17.6257 29.4965 17.625ZM33.9488 20.2703C32.5602 19.6011 31.0386 19.254 29.4972 19.2549C27.6447 19.2555 25.8267 19.7587 24.2374 20.7109C22.6481 21.6632 21.3468 23.0288 20.472 24.6624C19.5972 26.296 19.1818 28.1364 19.27 29.9876C19.3581 31.8387 19.9466 33.6312 20.9727 35.1742C21.1178 35.3923 21.1491 35.6669 21.057 35.9121L19.7079 39.5025L24.5037 38.635C24.6745 38.6041 24.8507 38.6286 25.0067 38.7048C26.3915 39.3817 27.9112 39.7373 29.4525 39.7449C30.9939 39.7526 32.517 39.4121 33.9085 38.7489C35.2999 38.0858 36.524 37.1169 37.4889 35.9147C38.454 34.7125 39.1356 33.3078 39.4823 31.8055C39.8292 30.3032 39.8327 28.7418 39.4924 27.238C39.152 25.7341 38.4768 24.3265 37.5169 23.1201C36.5571 21.9137 35.3374 20.9396 33.9488 20.2703Z" fill="white"/>
</svg>
