<svg width="28" height="27" viewBox="0 0 28 27" fill="none" xmlns="http://www.w3.org/2000/svg">
<path fill-rule="evenodd" clip-rule="evenodd" d="M14.6812 6.09221C14.2611 5.84357 13.7387 5.84357 13.3186 6.09221C11.4243 7.21332 9.78079 7.91371 7.43864 8.15021C6.67563 8.22726 6.1448 8.81483 6.17547 9.43772C6.25852 11.1247 6.55204 13.0812 7.57461 15.0547C8.59401 17.0221 10.3605 19.0497 13.4571 20.8431C13.7918 21.0369 14.208 21.0369 14.5426 20.8431C17.6393 19.0497 19.4058 17.0221 20.4252 15.0547C21.4477 13.0812 21.7413 11.1247 21.8243 9.43772C21.855 8.81483 21.3241 8.22726 20.5611 8.15021C18.219 7.91371 16.5755 7.21332 14.6812 6.09221ZM12.6581 4.98231C13.4854 4.49271 14.5144 4.49271 15.3416 4.98231C17.1298 6.04059 18.5919 6.65415 20.6915 6.86616C21.9944 6.99772 23.188 8.05555 23.1169 9.50101C23.0289 11.288 22.7143 13.448 21.5748 15.6472C20.4322 17.8525 18.4826 20.0538 15.1925 21.9592C14.456 22.3857 13.5438 22.3857 12.8073 21.9592C9.51712 20.0538 7.56756 17.8525 6.42492 15.6472C5.28545 13.448 4.97089 11.288 4.88291 9.50101C4.81175 8.05555 6.0054 6.99772 7.30827 6.86616C9.4079 6.65415 10.87 6.04059 12.6581 4.98231ZM17.3043 10.7226C17.5501 10.9813 17.539 11.3897 17.2796 11.6349L13.5 15.2059C13.2504 15.4417 12.8595 15.4417 12.61 15.2059L10.7202 13.4204C10.4607 13.1753 10.4497 12.7668 10.6954 12.5081C10.9412 12.2494 11.3507 12.2383 11.6102 12.4834L13.055 13.8485L16.3896 10.6979C16.649 10.4528 17.0586 10.4639 17.3043 10.7226Z" fill="#FF5959"/>
</svg>
