<svg width="85" height="84" viewBox="0 0 85 84" fill="none" xmlns="http://www.w3.org/2000/svg">
<path fill-rule="evenodd" clip-rule="evenodd" d="M30.1075 12.9C28.4715 12.9 26.9129 13.5812 25.7716 14.7767C24.6319 15.9705 24 17.5792 24 19.2465V67.4069C24 70.7131 27.933 72.3471 30.193 69.9799L42.6 56.984L55.007 69.9799C57.267 72.3471 61.2 70.7131 61.2 67.4069V19.2465C61.2 17.5791 60.5679 15.9705 59.4286 14.7769C58.2872 13.5811 56.7283 12.9 55.0925 12.9H30.1075ZM27.6 66.6V19.1753V19.0642C27.6 17.8137 28.6137 16.8 29.8641 16.8H55.3358C56.5863 16.8 57.6 17.8137 57.6 19.0642V19.1753V66.6L45.2343 53.9053C43.7903 52.4229 41.4096 52.4228 39.9657 53.9053L27.6 66.6Z" fill="white"/>
</svg>
