<?xml version="1.0" encoding="UTF-8"?>
<svg id="_레이어_1" xmlns="http://www.w3.org/2000/svg" version="1.1" viewBox="0 0 40 40">
  <!-- Generator: Adobe Illustrator 29.4.0, SVG Export Plug-In . SVG Version: 2.1.0 Build 152)  -->
  <defs>
    <style>
      .st0 {
        fill: #fff;
      }
    </style>
  </defs>
  <path id="Rectangle" d="M20,0h0C31.05,0,40,8.95,40,20h0c0,11.05-8.95,20-20,20h0C8.95,40,0,31.05,0,20h0C0,8.95,8.95,0,20,0Z"/>
  <path id="_xF8FF_" class="st0" d="M20.2,13.98c.75,0,1.71-.53,2.27-1.23.51-.64.88-1.53.88-2.42,0-.12,0-.25-.04-.34-.85.04-1.85.58-2.46,1.32-.48.56-.92,1.44-.92,2.34,0,.13.02.26.04.31.05,0,.14.02.23.02ZM17.54,27.27c1.04,0,1.49-.72,2.78-.72s1.6.69,2.75.69,1.88-1.07,2.6-2.13c.8-1.21,1.13-2.39,1.15-2.45-.07-.02-2.24-.94-2.24-3.49,0-2.22,1.71-3.22,1.8-3.29-1.13-1.67-2.85-1.71-3.31-1.71-1.26,0-2.3.79-2.95.79-.7,0-1.63-.75-2.73-.75-2.09,0-4.21,1.78-4.21,5.14,0,2.08.79,4.29,1.75,5.72.83,1.21,1.55,2.2,2.6,2.2h0Z"/>
</svg>