<svg width="20" height="20" viewBox="0 0 20 20" fill="none" xmlns="http://www.w3.org/2000/svg">
<path fill-rule="evenodd" clip-rule="evenodd" d="M10 2.38462C5.79414 2.38462 2.38462 5.79414 2.38462 10C2.38462 14.2059 5.79414 17.6154 10 17.6154C14.2059 17.6154 17.6154 14.2059 17.6154 10C17.6154 5.79414 14.2059 2.38462 10 2.38462ZM1 10C1 5.02944 5.02944 1 10 1C14.9706 1 19 5.02944 19 10C19 14.9706 14.9706 19 10 19C5.02944 19 1 14.9706 1 10ZM7.81275 6.62832C8.02979 6.50543 8.29616 6.5088 8.51004 6.63712L13.1254 9.40635C13.3339 9.53147 13.4615 9.75682 13.4615 10C13.4615 10.2432 13.3339 10.4685 13.1254 10.5936L8.51004 13.3629C8.29616 13.4912 8.02979 13.4946 7.81275 13.3717C7.5957 13.2488 7.46154 13.0186 7.46154 12.7692V7.23077C7.46154 6.98135 7.5957 6.75121 7.81275 6.62832ZM8.84615 8.45352V11.5465L11.4236 10L8.84615 8.45352Z" fill="white"/>
</svg>
