<svg width="24" height="23" viewBox="0 0 24 23" fill="none" xmlns="http://www.w3.org/2000/svg">
<path fill-rule="evenodd" clip-rule="evenodd" d="M4.39154 11.971L4.39154 16.5169C4.39154 17.7765 5.41854 18.7967 6.68422 18.7967L17.3924 18.7967C18.658 18.7967 19.685 17.7765 19.685 16.5169V11.971C19.685 11.6333 19.4098 11.3605 19.0714 11.3605C18.7331 11.3605 18.4578 11.6333 18.4578 11.971V16.5169C18.4578 17.101 17.9813 17.5755 17.3924 17.5755H6.68422C6.09526 17.5755 5.61877 17.101 5.61877 16.5169L5.61877 11.971C5.61877 11.6333 5.34352 11.3605 5.00516 11.3605C4.66679 11.3605 4.39154 11.6333 4.39154 11.971ZM7.70857 7.838C7.46263 8.07028 7.45262 8.45705 7.68631 8.7016C7.9197 8.94584 8.30779 8.9557 8.55342 8.72373L11.4247 6.01202V13.5248C11.4247 13.8625 11.6999 14.1354 12.0383 14.1354C12.3766 14.1354 12.6519 13.8625 12.6519 13.5248V6.01202L15.5232 8.72373C15.7688 8.9557 16.1569 8.94584 16.3903 8.7016C16.624 8.45705 16.6139 8.07028 16.368 7.838L12.4607 4.14782C12.2239 3.9242 11.8526 3.9242 11.6159 4.14782L7.70857 7.838Z" fill="#A3A3A3"/>
</svg>
