<svg width="393" height="852" viewBox="0 0 393 852" fill="none" xmlns="http://www.w3.org/2000/svg">
<rect width="393" height="852" fill="#202020"/>
<path d="M196.791 269.174C201.751 250.264 198.831 233.624 188.551 228.934C175.761 223.104 156.451 237.994 145.421 262.184C134.391 286.384 135.821 310.724 148.611 316.554C161.401 322.384 180.711 307.494 191.741 283.304C192.731 281.124 193.591 278.954 194.381 276.784H157.121L196.781 269.174H196.791Z" fill="white"/>
<path d="M265.431 203.624C249.001 196.134 224.191 215.264 210.021 246.344C206.701 253.624 204.271 260.914 202.691 267.904L276.841 251.964C282.031 229.074 278.021 209.364 265.431 203.624Z" fill="white"/>
<path d="M214.111 316.194C229.951 323.414 253.571 305.894 267.941 276.784H201.111C198.721 295.734 203.191 311.214 214.111 316.194Z" fill="white"/>
</svg>
