<svg width="155" height="155" viewBox="0 0 155 155" fill="none" xmlns="http://www.w3.org/2000/svg">
<path d="M100.48 102.442C90.9977 111.178 79.8191 116.118 69.4969 117.139C59.1764 118.161 49.8902 115.272 43.744 108.601C37.5977 101.93 35.4775 92.439 37.3391 82.2365C39.201 72.0324 45.0375 61.2948 54.5199 52.5582C64.0022 43.8216 75.1809 38.8823 85.503 37.8606C95.8236 36.8391 105.11 39.7279 111.256 46.3988C117.402 53.0697 119.522 62.5609 117.661 72.7635C115.799 82.9676 109.962 93.7051 100.48 102.442Z" stroke="white" stroke-width="5.5"/>
<path d="M95.7269 96.6978C87.987 103.829 78.9418 108.037 70.5947 109.097C62.246 110.158 54.6484 108.069 49.6876 102.684C44.7268 97.3002 43.2659 89.5573 45.0052 81.3232C46.7441 73.0907 51.6771 64.4197 59.417 57.2885C67.157 50.1573 76.2021 45.9494 84.5493 44.8892C92.898 43.8288 100.496 45.9176 105.456 51.3019C110.417 56.6862 111.878 64.429 110.139 72.6631C108.4 80.8957 103.467 89.5667 95.7269 96.6978Z" fill="white" stroke="white" stroke-width="1.16914"/>
</svg>
