<svg width="27" height="26" viewBox="0 0 27 26" fill="none" xmlns="http://www.w3.org/2000/svg">
<path fill-rule="evenodd" clip-rule="evenodd" d="M15.2332 12.9995C15.2332 13.9568 14.4571 14.7328 13.4998 14.7328C12.5425 14.7328 11.7665 13.9568 11.7665 12.9995C11.7665 12.0422 12.5425 11.2661 13.4998 11.2661C14.4571 11.2661 15.2332 12.0422 15.2332 12.9995ZM14.1145 12.9995C14.1145 13.3389 13.8393 13.6141 13.4998 13.6141C13.1604 13.6141 12.8852 13.3389 12.8852 12.9995C12.8852 12.66 13.1604 12.3848 13.4998 12.3848C13.8393 12.3848 14.1145 12.66 14.1145 12.9995Z" fill="#202020"/>
<path fill-rule="evenodd" clip-rule="evenodd" d="M13.5002 4.44971C13.8091 4.44971 14.0595 4.70013 14.0595 5.00905V6.93373C16.9773 7.19935 19.3005 9.5226 19.5662 12.4404H21.4904C21.7993 12.4404 22.0498 12.6908 22.0498 12.9997C22.0498 13.3086 21.7993 13.5591 21.4904 13.5591H19.5662C19.3005 16.4768 16.9773 18.8001 14.0595 19.0657V20.9904C14.0595 21.2994 13.8091 21.5498 13.5002 21.5498C13.1912 21.5498 12.9408 21.2994 12.9408 20.9904V19.0657C10.0231 18.8001 7.69981 16.4768 7.43418 13.5591H5.50954C5.20062 13.5591 4.9502 13.3086 4.9502 12.9997C4.9502 12.6908 5.20062 12.4404 5.50954 12.4404H7.43418C7.69981 9.52262 10.023 7.19937 12.9408 6.93373V5.00905C12.9408 4.70013 13.1912 4.44971 13.5002 4.44971ZM8.52753 13.0036C8.52754 13.0023 8.52755 13.001 8.52755 12.9997C8.52755 12.9985 8.52754 12.9973 8.52753 12.9961C8.52949 10.2515 10.7551 8.02708 13.5002 8.02708C16.2397 8.02708 18.4619 10.2425 18.4728 12.9795C18.4725 12.9862 18.4724 12.993 18.4724 12.9997C18.4724 13.0065 18.4725 13.0132 18.4728 13.0199C18.4619 15.757 16.2397 17.9724 13.5002 17.9724C10.7552 17.9724 8.52964 15.7481 8.52753 13.0036Z" fill="#202020"/>
</svg>
