<svg width="200" height="181" viewBox="0 0 200 181" fill="none" xmlns="http://www.w3.org/2000/svg">
<path d="M182.85 18.7601C169.63 5.86009 154.43 -0.619908 138.93 0.0500925C125.71 0.610092 112.55 6.18009 99.78 16.6201C87.01 6.18009 73.85 0.610092 60.63 0.0500925C45.12 -0.599908 29.93 5.86009 16.7 18.7601C4.24998 30.9101 -1.29002 45.4301 0.249983 61.9201C1.36998 73.8901 6.22998 86.7301 15.12 101.18C18.76 107.09 25.01 114.59 34.25 124.11C41.27 131.34 49.97 139.69 60.12 148.92C67.31 155.46 75.06 162.29 83.14 169.22C86.18 171.83 88.67 173.94 90.41 175.4C91.28 176.13 93.21 177.74 93.23 177.76C95.13 179.31 97.45 180.08 99.77 180.08C102.09 180.08 104.52 179.27 106.46 177.65L107.16 177.06C107.63 176.67 108.32 176.09 109.19 175.34C110.94 173.85 113.46 171.71 116.52 169.07C122.1 164.25 130.64 156.78 139.66 148.55C149.84 139.26 158.54 130.91 165.54 123.71C174.75 114.24 180.93 106.87 184.43 101.18C193.32 86.7301 198.18 73.8901 199.3 61.9201C200.84 45.4301 195.3 30.9101 182.85 18.7601ZM178.67 60.0101C177.86 68.7501 173.96 78.6801 166.77 90.3701C164.15 94.6201 158.59 101.18 150.67 109.32C143.96 116.22 135.55 124.29 125.67 133.3C116.82 141.38 108.43 148.71 102.95 153.44C101.8 154.44 100.72 155.36 99.74 156.2C98.79 155.39 97.75 154.5 96.64 153.55C91.22 148.91 82.91 141.69 74.08 133.65C64.25 124.71 55.85 116.66 49.13 109.74C41.18 101.55 35.53 94.8501 32.77 90.3701C25.58 78.6801 21.69 68.7501 20.87 60.0101C19.91 49.7501 23.19 41.3401 31.18 33.5501C39.93 25.0101 49.1 20.6901 58.45 20.6901C58.88 20.6901 59.31 20.6901 59.74 20.7201C70.26 21.1701 81.29 26.9501 92.52 37.9101C96.51 41.8101 103.01 41.8101 107.01 37.9101C118.24 26.9501 129.27 21.1701 139.79 20.7201C149.59 20.3101 159.19 24.6201 168.35 33.5601C176.34 41.3501 179.61 49.7601 178.66 60.0201L178.67 60.0101Z" fill="white"/>
</svg>
