<svg width="42" height="44" viewBox="0 0 42 44" fill="none" xmlns="http://www.w3.org/2000/svg">
<g filter="url(#filter0_d_46_2118)">
<path d="M22.7652 16.2284L19.3983 22.2859H23.6741L22.9305 16.2284H22.7652ZM24.2938 28.1194L23.8497 24.3628H18.3242L16.2276 28.1194H13.4287L21.97 13.4287H24.9134L26.9894 28.1194H24.2938Z" fill="white"/>
<path fill-rule="evenodd" clip-rule="evenodd" d="M6.75 9.81245C6.75 8.12111 8.12111 6.75 9.81245 6.75H32.1875C33.8789 6.75 35.25 8.12111 35.25 9.81245V32.1875C35.25 33.8789 33.8789 35.25 32.1875 35.25H9.81245C8.12111 35.25 6.75 33.8789 6.75 32.1875V9.81245ZM9.81245 8.8067C9.25699 8.8067 8.8067 9.25699 8.8067 9.81245V32.1875C8.8067 32.743 9.25698 33.1933 9.81245 33.1933H32.1875C32.743 33.1933 33.1933 32.743 33.1933 32.1875V9.81245C33.1933 9.25698 32.743 8.8067 32.1875 8.8067H9.81245Z" fill="white"/>
</g>
<defs>
<filter id="filter0_d_46_2118" x="-4" y="0" width="50" height="50" filterUnits="userSpaceOnUse" color-interpolation-filters="sRGB">
<feFlood flood-opacity="0" result="BackgroundImageFix"/>
<feColorMatrix in="SourceAlpha" type="matrix" values="0 0 0 0 0 0 0 0 0 0 0 0 0 0 0 0 0 0 127 0" result="hardAlpha"/>
<feOffset dy="4"/>
<feGaussianBlur stdDeviation="2"/>
<feComposite in2="hardAlpha" operator="out"/>
<feColorMatrix type="matrix" values="0 0 0 0 0.127132 0 0 0 0 0.127132 0 0 0 0 0.127132 0 0 0 0.25 0"/>
<feBlend mode="normal" in2="BackgroundImageFix" result="effect1_dropShadow_46_2118"/>
<feBlend mode="normal" in="SourceGraphic" in2="effect1_dropShadow_46_2118" result="shape"/>
</filter>
</defs>
</svg>
