<svg width="44" height="44" viewBox="0 0 44 44" fill="none" xmlns="http://www.w3.org/2000/svg">
<rect width="44" height="44" rx="22" fill="#3E3E3E"/>
<path fill-rule="evenodd" clip-rule="evenodd" d="M24.6825 22C24.6825 23.4815 23.4815 24.6825 22 24.6825C20.5184 24.6825 19.3174 23.4815 19.3174 22C19.3174 20.5184 20.5184 19.3174 22 19.3174C23.4815 19.3174 24.6825 20.5184 24.6825 22ZM22.9512 22C22.9512 22.5253 22.5253 22.9512 22 22.9512C21.4746 22.9512 21.0487 22.5253 21.0487 22C21.0487 21.4746 21.4746 21.0487 22 21.0487C22.5253 21.0487 22.9512 21.4746 22.9512 22Z" fill="white"/>
<path fill-rule="evenodd" clip-rule="evenodd" d="M22.0001 8.76807C22.4782 8.76807 22.8658 9.15563 22.8658 9.63372V12.6124C27.3814 13.0235 30.9769 16.619 31.388 21.1346H34.366C34.8441 21.1346 35.2317 21.5221 35.2317 22.0002C35.2317 22.4783 34.8441 22.8659 34.366 22.8659H31.388C30.9769 27.3815 27.3814 30.977 22.8658 31.3881V34.3667C22.8658 34.8448 22.4782 35.2323 22.0001 35.2323C21.5221 35.2323 21.1345 34.8448 21.1345 34.3667V31.3881C16.6189 30.977 13.0234 27.3815 12.6123 22.8659H9.63372C9.15563 22.8659 8.76807 22.4783 8.76807 22.0002C8.76807 21.5221 9.15563 21.1346 9.63372 21.1346H12.6123C13.0234 16.619 16.6189 13.0235 21.1345 12.6124V9.63372C21.1345 9.15563 21.5221 8.76807 22.0001 8.76807ZM14.3044 22.009C14.3044 22.0061 14.3044 22.0032 14.3044 22.0002C14.3044 21.9973 14.3044 21.9944 14.3044 21.9914C14.3092 17.7452 17.7528 14.3045 22.0002 14.3045C26.2402 14.3045 29.6794 17.7335 29.6959 21.9698C29.6955 21.9799 29.6953 21.99 29.6953 22.0002C29.6953 22.0104 29.6955 22.0206 29.6959 22.0307C29.6794 26.264 26.2449 29.6913 22.0089 29.696L22.0001 29.6959L21.9914 29.696C17.7481 29.6913 14.3091 26.2523 14.3044 22.009Z" fill="white"/>
</svg>
