<svg width="38" height="40" viewBox="0 0 38 40" fill="none" xmlns="http://www.w3.org/2000/svg">
<g filter="url(#filter0_d_46_2119)">
<path d="M20.5887 14.7055L17.5585 20.1573H21.4067L20.7374 14.7055H20.5887ZM21.9644 25.4074L21.5647 22.0264H16.5918L14.7049 25.4074H12.1859L19.873 12.1858H22.5221L24.3905 25.4074H21.9644Z" fill="#A3A3A3"/>
<path fill-rule="evenodd" clip-rule="evenodd" d="M6.17499 8.93113C6.17499 7.40892 7.40898 6.17493 8.93119 6.17493H29.0688C30.591 6.17493 31.825 7.40893 31.825 8.93113V29.0687C31.825 30.591 30.591 31.8249 29.0688 31.8249H8.93119C7.40899 31.8249 6.17499 30.591 6.17499 29.0687V8.93113ZM8.93119 8.02596C8.43128 8.02596 8.02602 8.43122 8.02602 8.93113V29.0687C8.02602 29.5687 8.43127 29.9739 8.93119 29.9739H29.0688C29.5687 29.9739 29.974 29.5687 29.974 29.0687V8.93113C29.974 8.43121 29.5687 8.02596 29.0688 8.02596H8.93119Z" fill="#A3A3A3"/>
</g>
<defs>
<filter id="filter0_d_46_2119" x="-3.90002" y="0.0999756" width="45.8" height="45.8" filterUnits="userSpaceOnUse" color-interpolation-filters="sRGB">
<feFlood flood-opacity="0" result="BackgroundImageFix"/>
<feColorMatrix in="SourceAlpha" type="matrix" values="0 0 0 0 0 0 0 0 0 0 0 0 0 0 0 0 0 0 127 0" result="hardAlpha"/>
<feOffset dy="4"/>
<feGaussianBlur stdDeviation="2"/>
<feComposite in2="hardAlpha" operator="out"/>
<feColorMatrix type="matrix" values="0 0 0 0 0.127132 0 0 0 0 0.127132 0 0 0 0 0.127132 0 0 0 0.25 0"/>
<feBlend mode="normal" in2="BackgroundImageFix" result="effect1_dropShadow_46_2119"/>
<feBlend mode="normal" in="SourceGraphic" in2="effect1_dropShadow_46_2119" result="shape"/>
</filter>
</defs>
</svg>
