<svg width="38" height="41" viewBox="0 0 38 41" fill="none" xmlns="http://www.w3.org/2000/svg">
<g filter="url(#filter0_d_46_2130)">
<path fill-rule="evenodd" clip-rule="evenodd" d="M9.66913 13.2983H8.26682C7.78257 13.2983 7.39001 12.9056 7.39001 12.4211C7.39001 11.9367 7.78257 11.5439 8.26682 11.5439H10.5316C10.5364 11.5439 10.5412 11.5438 10.5459 11.5438H27.4557C27.4605 11.5438 27.4653 11.5439 27.47 11.5439H29.7332C30.2175 11.5439 30.61 11.9367 30.61 12.4211C30.61 12.9056 30.2175 13.2983 29.7332 13.2983H28.3325V29.338C28.3325 30.0692 28.0421 30.7705 27.5254 31.2874C27.0087 31.8043 26.3077 32.0949 25.5769 32.0949H12.4248C11.6939 32.0949 10.993 31.8043 10.4763 31.2875L10.4763 31.2875C9.95944 30.7705 9.66913 30.0691 9.66913 29.338V13.2983ZM11.4227 13.2983V29.338C11.4227 29.6039 11.5283 29.859 11.7162 30.0468C11.9042 30.2349 12.1591 30.3405 12.4248 30.3405H25.5769C25.8426 30.3405 26.0975 30.2349 26.2854 30.0469C26.4733 29.8589 26.5789 29.6039 26.5789 29.338V13.2983H11.4227Z" fill="#A3A3A3"/>
<path fill-rule="evenodd" clip-rule="evenodd" d="M16.2982 8.7787C17.0147 8.06194 17.9864 7.65927 18.9996 7.65927L16.2982 8.7787ZM16.2982 8.7787C15.5818 9.49546 15.1793 10.4676 15.1793 11.4813V12.4211C15.1793 12.9056 14.7867 13.2983 14.3025 13.2983C13.8182 13.2983 13.4257 12.9056 13.4257 12.4211V11.4813C13.4257 10.0023 14.0129 8.58395 15.0582 7.53818C16.1036 6.49241 17.5213 5.90491 18.9996 5.90491C20.4779 5.90491 21.8957 6.49241 22.941 7.53818C23.9863 8.58395 24.5736 10.0023 24.5736 11.4813V12.4211C24.5736 12.9056 24.181 13.2983 23.6968 13.2983C23.2125 13.2983 22.82 12.9056 22.82 12.4211V11.4813C22.82 10.4676 22.4175 9.49546 21.701 8.7787C20.9846 8.06194 20.0129 7.65927 18.9996 7.65927" fill="#A3A3A3"/>
<path fill-rule="evenodd" clip-rule="evenodd" d="M16.1649 16.5699C16.6868 16.5699 17.1099 17.0043 17.1099 17.5402V25.8597C17.1099 26.3956 16.6868 26.8299 16.1649 26.8299C15.643 26.8299 15.2199 26.3956 15.2199 25.8597V17.5402C15.2199 17.0043 15.643 16.5699 16.1649 16.5699Z" fill="#A3A3A3"/>
<path fill-rule="evenodd" clip-rule="evenodd" d="M21.8346 16.5699C22.3566 16.5699 22.7796 17.0043 22.7796 17.5402V25.8597C22.7796 26.3956 22.3566 26.8299 21.8346 26.8299C21.3127 26.8299 20.8896 26.3956 20.8896 25.8597V17.5402C20.8896 17.0043 21.3127 16.5699 21.8346 16.5699Z" fill="#A3A3A3"/>
</g>
<defs>
<filter id="filter0_d_46_2130" x="-3.90002" y="0.0999756" width="45.8" height="45.8" filterUnits="userSpaceOnUse" color-interpolation-filters="sRGB">
<feFlood flood-opacity="0" result="BackgroundImageFix"/>
<feColorMatrix in="SourceAlpha" type="matrix" values="0 0 0 0 0 0 0 0 0 0 0 0 0 0 0 0 0 0 127 0" result="hardAlpha"/>
<feOffset dy="4"/>
<feGaussianBlur stdDeviation="2"/>
<feComposite in2="hardAlpha" operator="out"/>
<feColorMatrix type="matrix" values="0 0 0 0 0.127132 0 0 0 0 0.127132 0 0 0 0 0.127132 0 0 0 0.25 0"/>
<feBlend mode="normal" in2="BackgroundImageFix" result="effect1_dropShadow_46_2130"/>
<feBlend mode="normal" in="SourceGraphic" in2="effect1_dropShadow_46_2130" result="shape"/>
</filter>
</defs>
</svg>
