<svg width="27" height="27" viewBox="0 0 27 27" fill="none" xmlns="http://www.w3.org/2000/svg">
<path fill-rule="evenodd" clip-rule="evenodd" d="M13.44 4.31995C13.0212 4.31995 12.6819 4.66002 12.6819 5.07924V10.653C12.6819 11.0723 13.0212 11.4123 13.44 11.4123C13.8588 11.4123 14.198 11.0723 14.198 10.653V5.07924C14.198 4.66002 13.8588 4.31995 13.44 4.31995ZM10.7482 6.62232C10.5704 6.24274 10.1189 6.07935 9.73982 6.25764C6.82433 7.62882 4.79999 10.5755 4.79999 13.9973C4.79999 18.7347 8.67663 22.5599 13.44 22.5599C18.2033 22.5599 22.08 18.7347 22.08 13.9973C22.08 10.5755 20.0556 7.62882 17.1401 6.25764C16.7611 6.07935 16.3096 6.24274 16.1317 6.62232C15.9539 7.00182 16.1168 7.454 16.4958 7.63225C18.906 8.76582 20.5639 11.1934 20.5639 13.9973C20.5639 17.8794 17.3827 21.0414 13.44 21.0414C9.49726 21.0414 6.3161 17.8794 6.3161 13.9973C6.3161 11.1934 7.97393 8.76582 10.3842 7.63225C10.7632 7.454 10.9261 7.00182 10.7482 6.62232Z" fill="white"/>
</svg>
