<svg width="28" height="27" viewBox="0 0 28 27" fill="none" xmlns="http://www.w3.org/2000/svg">
<path fill-rule="evenodd" clip-rule="evenodd" d="M14.6812 6.09209C14.2611 5.84345 13.7387 5.84345 13.3186 6.09209C11.4243 7.2132 9.78079 7.91359 7.43864 8.15009C6.67563 8.22714 6.1448 8.81471 6.17547 9.4376C6.25852 11.1246 6.55204 13.0811 7.57461 15.0546C8.59401 17.022 10.3605 19.0496 13.4571 20.843C13.7918 21.0368 14.208 21.0368 14.5426 20.843C17.6393 19.0496 19.4058 17.022 20.4252 15.0546C21.4477 13.0811 21.7413 11.1246 21.8243 9.4376C21.855 8.81471 21.3241 8.22714 20.5611 8.15009C18.219 7.91359 16.5755 7.2132 14.6812 6.09209ZM12.6581 4.98219C13.4854 4.49259 14.5144 4.49259 15.3416 4.98219C17.1298 6.04046 18.5919 6.65402 20.6915 6.86604C21.9944 6.9976 23.188 8.05543 23.1169 9.50089C23.0289 11.2879 22.7143 13.4479 21.5748 15.6471C20.4322 17.8523 18.4826 20.0536 15.1925 21.9591C14.456 22.3856 13.5438 22.3856 12.8073 21.9591C9.51712 20.0536 7.56756 17.8523 6.42492 15.6471C5.28545 13.4479 4.97089 11.2879 4.88291 9.50089C4.81175 8.05543 6.0054 6.9976 7.30827 6.86604C9.4079 6.65402 10.87 6.04046 12.6581 4.98219Z" fill="#FF5959"/>
<path d="M11.5752 11.0227C11.7562 10.8417 12.0496 10.8417 12.2306 11.0227L13.9995 12.7915L15.7683 11.0227C15.9493 10.8417 16.2427 10.8417 16.4237 11.0227C16.6047 11.2037 16.6047 11.4971 16.4237 11.6781L14.6549 13.447L16.4237 15.2158C16.6047 15.3968 16.6047 15.6902 16.4237 15.8712C16.2427 16.0522 15.9493 16.0522 15.7683 15.8712L13.9995 14.1024L12.2306 15.8712C12.0496 16.0522 11.7562 16.0522 11.5752 15.8712C11.3942 15.6902 11.3942 15.3968 11.5752 15.2158L13.344 13.447L11.5752 11.6781C11.3942 11.4971 11.3942 11.2037 11.5752 11.0227Z" fill="#FF5959"/>
</svg>
