<svg width="34" height="34" viewBox="0 0 34 34" fill="none" xmlns="http://www.w3.org/2000/svg">
<path fill-rule="evenodd" clip-rule="evenodd" d="M24.506 19.2228C25.8302 19.2106 26.8999 18.1305 26.8999 16.7999C26.8999 15.4618 25.818 14.377 24.4834 14.377C24.4757 14.377 24.4681 14.377 24.4605 14.3771C23.1364 14.3895 22.0669 15.4695 22.0669 16.8C22.0669 18.1381 23.1488 19.2229 24.4834 19.2229C24.4909 19.2229 24.4985 19.2229 24.506 19.2228Z" fill="white"/>
<path fill-rule="evenodd" clip-rule="evenodd" d="M16.506 19.2228C17.8302 19.2106 18.8999 18.1305 18.8999 16.7999C18.8999 15.4618 17.818 14.377 16.4834 14.377C16.4756 14.377 16.4679 14.377 16.4601 14.3771C15.1362 14.3896 14.0669 15.4696 14.0669 16.8C14.0669 18.1381 15.1488 19.2229 16.4834 19.2229C16.4909 19.2229 16.4985 19.2229 16.506 19.2228Z" fill="white"/>
<path fill-rule="evenodd" clip-rule="evenodd" d="M9.13929 19.2228C10.4635 19.2106 11.5332 18.1305 11.5332 16.7999C11.5332 15.4618 10.4513 14.377 9.11669 14.377C9.10893 14.377 9.10117 14.377 9.09343 14.3771C7.76933 14.3896 6.70019 15.4697 6.70019 16.8C6.70019 18.138 7.78188 19.2229 9.1167 19.2229C9.12425 19.2229 9.13178 19.2229 9.13929 19.2228Z" fill="white"/>
</svg>
