<svg width="30" height="30" viewBox="0 0 30 30" fill="none" xmlns="http://www.w3.org/2000/svg">
<path fill-rule="evenodd" clip-rule="evenodd" d="M15.3 6.09409C10.5471 6.09409 6.69407 9.94708 6.69407 14.7C6.69407 19.4529 10.5471 23.3059 15.3 23.3059C20.0528 23.3059 23.9058 19.4529 23.9058 14.7C23.9058 9.94708 20.0528 6.09409 15.3 6.09409ZM5.32495 14.7C5.32495 9.19094 9.79091 4.72498 15.3 4.72498C20.809 4.72498 25.275 9.19094 25.275 14.7C25.275 20.209 20.809 24.675 15.3 24.675C9.79091 24.675 5.32495 20.209 5.32495 14.7ZM11.7191 11.1191C11.9864 10.8518 12.4199 10.8518 12.6872 11.1191L15.3 13.7319L17.9127 11.1191C18.18 10.8518 18.6135 10.8518 18.8808 11.1191C19.1482 11.3864 19.1482 11.8199 18.8808 12.0872L16.2681 14.7L18.8808 17.3127C19.1482 17.5801 19.1482 18.0135 18.8808 18.2808C18.6135 18.5482 18.18 18.5482 17.9127 18.2808L15.3 15.6681L12.6872 18.2808C12.4199 18.5482 11.9864 18.5482 11.7191 18.2808C11.4517 18.0135 11.4517 17.5801 11.7191 17.3127L14.3318 14.7L11.7191 12.0872C11.4517 11.8199 11.4517 11.3864 11.7191 11.1191Z" fill="#FF5959"/>
</svg>
