<svg width="24" height="23" viewBox="0 0 24 23" fill="none" xmlns="http://www.w3.org/2000/svg">
<path fill-rule="evenodd" clip-rule="evenodd" d="M12.0383 4.20862C11.6916 4.20862 11.4106 4.4902 11.4106 4.83732V9.45243C11.4106 9.79954 11.6916 10.0811 12.0383 10.0811C12.3851 10.0811 12.666 9.79954 12.666 9.45243V4.83732C12.666 4.4902 12.3851 4.20862 12.0383 4.20862ZM9.80955 6.11498C9.66227 5.80069 9.28845 5.66541 8.97458 5.81303C6.56055 6.94837 4.8844 9.38825 4.8844 12.2215C4.8844 16.144 8.09426 19.3113 12.0383 19.3113C15.9824 19.3113 19.1922 16.144 19.1922 12.2215C19.1922 9.38825 17.5161 6.94837 15.102 5.81303C14.7882 5.66541 14.4144 5.80069 14.2671 6.11498C14.1198 6.42921 14.2547 6.80361 14.5685 6.9512C16.5642 7.8898 17.9369 9.8998 17.9369 12.2215C17.9369 15.4358 15.3029 18.0539 12.0383 18.0539C8.77374 18.0539 6.13974 15.4358 6.13974 12.2215C6.13974 9.8998 7.51242 7.8898 9.50813 6.9512C9.82194 6.80361 9.9568 6.42921 9.80955 6.11498Z" fill="#A3A3A3"/>
</svg>
