<svg width="21" height="21" viewBox="0 0 21 21" fill="none" xmlns="http://www.w3.org/2000/svg">
<path d="M16.7446 5.3541C15.7509 4.42284 14.6083 3.95504 13.4432 4.0034C12.4495 4.04383 11.4603 4.44594 10.5004 5.19961C9.54048 4.44594 8.55127 4.04383 7.55755 4.0034C6.39169 3.95648 5.24989 4.42284 4.25542 5.3541C3.31957 6.23123 2.90314 7.27944 3.0189 8.46988C3.10309 9.33401 3.46841 10.2609 4.13665 11.3041C4.41026 11.7308 4.88006 12.2722 5.57461 12.9595C6.10229 13.4814 6.75626 14.0842 7.51921 14.7505C8.05967 15.2227 8.64222 15.7157 9.24958 16.216C9.47809 16.4044 9.66526 16.5567 9.79605 16.6621C9.86145 16.7148 10.0065 16.8311 10.008 16.8325C10.1508 16.9444 10.3252 17 10.4996 17C10.674 17 10.8567 16.9415 11.0025 16.8246L11.0551 16.782C11.0904 16.7538 11.1423 16.712 11.2077 16.6578C11.3393 16.5502 11.5287 16.3958 11.7587 16.2052C12.1781 15.8572 12.8201 15.3179 13.4981 14.7238C14.2633 14.0532 14.9172 13.4504 15.4434 12.9306C16.1357 12.2469 16.6003 11.7149 16.8633 11.3041C17.5316 10.2609 17.8969 9.33401 17.9811 8.46988C18.0969 7.27944 17.6804 6.23123 16.7446 5.3541ZM16.4304 8.33199C16.3695 8.96294 16.0763 9.6798 15.5359 10.5237C15.3389 10.8305 14.921 11.3041 14.3257 11.8917C13.8213 12.3899 13.1891 12.9724 12.4465 13.6229C11.7812 14.2062 11.1506 14.7354 10.7387 15.0768C10.6522 15.149 10.571 15.2154 10.4974 15.2761C10.426 15.2176 10.3478 15.1533 10.2643 15.0848C9.85694 14.7498 9.23229 14.2286 8.56856 13.6482C7.82966 13.0028 7.19824 12.4216 6.69311 11.9221C6.09553 11.3308 5.67083 10.8471 5.46337 10.5237C4.92291 9.6798 4.6305 8.96294 4.56887 8.33199C4.4967 7.59131 4.74326 6.98418 5.34385 6.42181C6.00157 5.8053 6.69086 5.49343 7.39368 5.49343C7.426 5.49343 7.45833 5.49343 7.49065 5.4956C8.28142 5.52808 9.11052 5.94535 9.95466 6.73657C10.2546 7.01811 10.7432 7.01811 11.0438 6.73657C11.888 5.94535 12.7171 5.52808 13.5078 5.4956C14.2445 5.466 14.9661 5.77714 15.6546 6.42253C16.2552 6.9849 16.501 7.59203 16.4296 8.33272L16.4304 8.33199Z" fill="white"/>
</svg>
