<svg width="57" height="57" viewBox="0 0 57 57" fill="none" xmlns="http://www.w3.org/2000/svg">
<g clip-path="url(#clip0_46_1937)">
<path d="M44.7754 0H12.2246C5.47316 0 0 5.47316 0 12.2246V44.7754C0 51.5268 5.47316 57 12.2246 57H44.7754C51.5268 57 57 51.5268 57 44.7754V12.2246C57 5.47316 51.5268 0 44.7754 0Z" fill="#202020"/>
<path d="M26.8343 33.9486C28.0941 29.1458 27.3525 24.9195 24.7415 23.7283C21.493 22.2476 16.5886 26.0294 13.7871 32.1733C10.9857 38.3197 11.3489 44.5017 14.5973 45.9825C17.8458 47.4632 22.7502 43.6813 25.5517 37.5375C25.8031 36.9838 26.0216 36.4326 26.2222 35.8815H16.7587L26.8318 33.9486H26.8343Z" fill="white"/>
<path d="M44.2686 17.2997C40.0956 15.3973 33.7942 20.2561 30.1953 28.1499C29.352 29.9989 28.7349 31.8505 28.3336 33.6258L47.1665 29.5773C48.4847 23.7636 47.4662 18.7576 44.2686 17.2997Z" fill="white"/>
<path d="M31.234 45.8909C35.2571 47.7247 41.2562 43.2749 44.906 35.8813H27.9322C27.3251 40.6944 28.4605 44.6261 31.234 45.8909Z" fill="white"/>
<path d="M14.3999 17.4604C16.612 17.4604 18.4052 15.6671 18.4052 13.4551C18.4052 11.243 16.612 9.44971 14.3999 9.44971C12.1878 9.44971 10.3946 11.243 10.3946 13.4551C10.3946 15.6671 12.1878 17.4604 14.3999 17.4604Z" fill="#CEFF00"/>
</g>
<defs>
<clipPath id="clip0_46_1937">
<rect width="57" height="57" fill="white"/>
</clipPath>
</defs>
</svg>
