<svg width="155" height="155" viewBox="0 0 155 155" fill="none" xmlns="http://www.w3.org/2000/svg">
<path d="M100.48 102.442C90.9977 111.178 79.8191 116.118 69.4969 117.139C59.1764 118.161 49.8902 115.272 43.744 108.601C37.5977 101.93 35.4775 92.439 37.3391 82.2365C39.201 72.0324 45.0375 61.2948 54.5199 52.5582C64.0022 43.8216 75.1809 38.8823 85.503 37.8606C95.8236 36.8391 105.11 39.7279 111.256 46.3988C117.402 53.0697 119.522 62.5609 117.661 72.7635C115.799 82.9676 109.962 93.7051 100.48 102.442Z" stroke="white" stroke-width="5.5"/>
<path d="M94.0473 95.8959C79.9323 108.901 60.9929 111.307 51.7449 101.269C42.497 91.2318 46.4426 72.5524 60.5576 59.5475C74.6726 46.5426 93.612 44.1369 102.86 54.1742C112.108 64.2116 108.162 82.891 94.0473 95.8959Z" fill="#CEFF00"/>
</svg>
