<svg width="36" height="37" viewBox="0 0 36 37" fill="none" xmlns="http://www.w3.org/2000/svg">
<path d="M10.71 12.1294L14.4499 17.1159C14.5761 17.286 14.7378 17.4242 14.9229 17.5202C15.108 17.6161 15.3116 17.6674 15.5185 17.67C15.7221 17.6725 15.9236 17.6278 16.1084 17.5394C16.2933 17.4509 16.4568 17.3208 16.5871 17.1585L25.29 6.33008" stroke="#A3A3A3" stroke-width="1.62" stroke-linecap="round" stroke-linejoin="round"/>
<path d="M4.41418 32.54V24.2963H7.3906C8.20944 24.2963 8.90832 24.4582 9.48723 24.7819C10.0661 25.1057 10.5079 25.5722 10.8126 26.1816C11.1211 26.791 11.2754 27.5279 11.2754 28.3925V28.4039C11.2754 29.2761 11.1211 30.0207 10.8126 30.6376C10.5079 31.2546 10.0661 31.7269 9.48723 32.0544C8.91213 32.3782 8.21325 32.54 7.3906 32.54H4.41418ZM5.69387 31.4317H7.24777C7.82287 31.4317 8.31228 31.3137 8.71599 31.0775C9.12351 30.8414 9.432 30.4986 9.64148 30.0492C9.85476 29.5998 9.9614 29.0571 9.9614 28.421V28.4096C9.9614 27.7774 9.85285 27.2366 9.63576 26.7872C9.42248 26.3377 9.11399 25.995 8.71027 25.7588C8.30656 25.5227 7.81906 25.4046 7.24777 25.4046H5.69387V31.4317ZM15.4195 32.66C14.8139 32.66 14.2902 32.5305 13.8484 32.2715C13.4104 32.0125 13.0734 31.6431 12.8372 31.1632C12.6011 30.6795 12.4831 30.1063 12.4831 29.4437V29.4322C12.4831 28.7657 12.6011 28.1925 12.8372 27.7126C13.0772 27.2328 13.4162 26.8633 13.8541 26.6043C14.2959 26.3454 14.8177 26.2159 15.4195 26.2159C16.025 26.2159 16.5468 26.3454 16.9848 26.6043C17.4228 26.8595 17.7599 27.229 17.996 27.7126C18.2359 28.1925 18.3559 28.7657 18.3559 29.4322V29.4437C18.3559 30.1063 18.2359 30.6795 17.996 31.1632C17.7599 31.6431 17.4228 32.0125 16.9848 32.2715C16.5506 32.5305 16.0289 32.66 15.4195 32.66ZM15.4195 31.6203C15.7737 31.6203 16.0746 31.5346 16.3221 31.3632C16.5697 31.188 16.7582 30.9385 16.8877 30.6148C17.0172 30.2911 17.0819 29.9007 17.0819 29.4437V29.4322C17.0819 28.9714 17.0172 28.5791 16.8877 28.2554C16.7582 27.9316 16.5697 27.6841 16.3221 27.5127C16.0746 27.3375 15.7737 27.2499 15.4195 27.2499C15.0653 27.2499 14.7644 27.3375 14.5168 27.5127C14.2693 27.6841 14.0789 27.9316 13.9456 28.2554C13.8161 28.5791 13.7513 28.9714 13.7513 29.4322V29.4437C13.7513 29.9007 13.8161 30.2911 13.9456 30.6148C14.0789 30.9385 14.2693 31.188 14.5168 31.3632C14.7644 31.5346 15.0653 31.6203 15.4195 31.6203ZM19.7578 32.54V26.3358H20.9975V27.2728H21.0946C21.247 26.9414 21.4717 26.6824 21.7688 26.4958C22.0658 26.3092 22.441 26.2159 22.8942 26.2159C23.5912 26.2159 24.1244 26.4158 24.4938 26.8157C24.8632 27.2156 25.048 27.785 25.048 28.5239V32.54H23.8026V28.8152C23.8026 28.2973 23.694 27.9126 23.4769 27.6612C23.2636 27.4061 22.9285 27.2785 22.4714 27.2785C22.1706 27.2785 21.9097 27.3451 21.6888 27.4784C21.4679 27.6079 21.2965 27.7945 21.1746 28.0383C21.0566 28.2782 20.9975 28.5658 20.9975 28.9009V32.54H19.7578ZM29.3063 32.66C28.7008 32.66 28.1809 32.5305 27.7467 32.2715C27.3125 32.0087 26.9774 31.6374 26.7412 31.1575C26.5089 30.6776 26.3928 30.1102 26.3928 29.4551V29.4494C26.3928 28.8019 26.5089 28.2363 26.7412 27.7526C26.9774 27.2689 27.3087 26.8919 27.7353 26.6215C28.1657 26.3511 28.6684 26.2159 29.2435 26.2159C29.8224 26.2159 30.3194 26.3454 30.7346 26.6043C31.1535 26.8633 31.4753 27.2271 31.7 27.6955C31.9247 28.1602 32.0371 28.7048 32.0371 29.3294V29.7636H27.0212V28.8781H31.4201L30.826 29.7007V29.2037C30.826 28.7619 30.7574 28.3963 30.6203 28.1068C30.487 27.8136 30.3023 27.5946 30.0661 27.4499C29.83 27.3051 29.5577 27.2328 29.2492 27.2328C28.9407 27.2328 28.6646 27.3089 28.4208 27.4613C28.1809 27.6098 27.9905 27.8307 27.8495 28.124C27.7124 28.4172 27.6439 28.7771 27.6439 29.2037V29.7007C27.6439 30.1083 27.7124 30.4567 27.8495 30.7462C27.9867 31.0356 28.1809 31.2565 28.4323 31.4089C28.6874 31.5612 28.9883 31.6374 29.3349 31.6374C29.6015 31.6374 29.83 31.6012 30.0204 31.5289C30.2147 31.4527 30.3727 31.3594 30.4946 31.2489C30.6203 31.1385 30.706 31.0299 30.7517 30.9233L30.7745 30.8776H31.9743L31.9628 30.929C31.9095 31.1347 31.8162 31.3403 31.6829 31.546C31.5496 31.7479 31.3725 31.9326 31.1516 32.1001C30.9345 32.2677 30.6717 32.4029 30.3632 32.5058C30.0585 32.6086 29.7062 32.66 29.3063 32.66Z" fill="#A3A3A3"/>
</svg>
