<svg width="84" height="84" viewBox="0 0 84 84" fill="none" xmlns="http://www.w3.org/2000/svg">
<path fill-rule="evenodd" clip-rule="evenodd" d="M42 21.0141C45.93 17.5733 50.0151 15.6875 54.1222 15.5133C58.7358 15.3176 63.0117 17.2964 66.7311 20.9249C70.6042 24.7034 71.8244 28.9723 71.4293 33.2125C71.0449 37.3376 69.1464 41.3279 67.0271 44.7736C65.874 46.6484 63.7629 49.0444 61.3738 51.5011C58.9513 53.9921 56.1269 56.662 53.4484 59.1064C50.7672 61.5534 48.2178 63.7875 46.3395 65.4093C45.4 66.2205 44.6275 66.8793 44.0892 67.3358C43.82 67.564 43.6094 67.7418 43.4657 67.8628L43.3013 68.0009L43.2477 68.0458L43.244 68.049C43.2438 68.0491 43.2436 68.0493 42 66.573C40.7631 68.0549 40.763 68.0547 40.7628 68.0546L40.7619 68.0539L40.7057 68.0072L40.5427 67.8714C40.4002 67.7524 40.1913 67.5777 39.9243 67.3531C39.3905 66.9041 38.6242 66.2556 37.6915 65.4559C35.8271 63.8572 33.2941 61.6505 30.6234 59.2215C27.9555 56.795 25.1355 54.1334 22.7029 51.6266C20.3005 49.1511 18.1701 46.7203 16.9729 44.7736C14.8536 41.3279 12.9551 37.3376 12.5707 33.2125C12.1756 28.9723 13.3958 24.7034 17.2689 20.9249C20.9883 17.2964 25.2642 15.3176 29.8778 15.5133C33.9849 15.6875 38.07 17.5733 42 21.0141ZM42 66.573L40.7628 68.0546C41.4821 68.6506 42.5273 68.6482 43.244 68.049L42 66.573ZM41.9948 64.0493C42.4815 63.6349 43.0951 63.1099 43.8057 62.4964C45.6662 60.89 48.1876 58.6803 50.8351 56.2641C53.4854 53.8454 56.2476 51.2329 58.5952 48.8189C60.9761 46.3706 62.8186 44.2388 63.7283 42.7597C65.7345 39.4978 67.2738 36.1095 67.577 32.8561C67.8694 29.7178 67.0269 26.6082 64.0243 23.679C60.8678 20.5997 57.5804 19.2246 54.2868 19.3643C50.9605 19.5054 47.2629 21.2065 43.3534 25.0205C42.6014 25.7542 41.3986 25.7542 40.6466 25.0205C36.7371 21.2065 33.0395 19.5054 29.7132 19.3643C26.4196 19.2246 23.1322 20.5997 19.9757 23.679C16.9731 26.6082 16.1305 29.7178 16.423 32.8561C16.7262 36.1095 18.2655 39.4978 20.2717 42.7597C21.2298 44.3175 23.0993 46.4897 25.4843 48.9474C27.8391 51.3739 30.5942 53.9758 33.2318 56.3748C35.8668 58.7713 38.37 60.9521 40.2153 62.5344C40.9124 63.1321 41.5151 63.644 41.9948 64.0493Z" fill="white"/>
</svg>
