<svg width="31" height="37" viewBox="0 0 31 37" fill="none" xmlns="http://www.w3.org/2000/svg">
<g filter="url(#filter0_d_180_747)">
<path fill-rule="evenodd" clip-rule="evenodd" d="M9.37969 9.13896H8.44489C8.12206 9.13896 7.86035 8.87714 7.86035 8.55417C7.86035 8.2312 8.12206 7.96938 8.44489 7.96938H9.95101C9.9554 7.96929 9.95981 7.96924 9.96422 7.96924H21.2374C21.2418 7.96924 21.2462 7.96929 21.2506 7.96938H22.7558C23.0786 7.96938 23.3404 8.2312 23.3404 8.55417C23.3404 8.87714 23.0786 9.13896 22.7558 9.13896H21.822V19.8321C21.822 20.3195 21.6283 20.787 21.2839 21.1316C20.9394 21.4762 20.4721 21.67 19.9848 21.67H11.2168C10.7295 21.67 10.2623 21.4762 9.91781 21.1317L9.91779 21.1317C9.57322 20.787 9.37969 20.3194 9.37969 19.8321V9.13896ZM10.5488 9.13896V19.8321C10.5488 20.0093 10.6192 20.1793 10.7444 20.3046C10.8697 20.43 11.0397 20.5004 11.2168 20.5004H19.9848C20.162 20.5004 20.332 20.4299 20.4572 20.3046C20.5825 20.1793 20.6529 20.0093 20.6529 19.8321V9.13896H10.5488Z" fill="white"/>
<path fill-rule="evenodd" clip-rule="evenodd" d="M13.7998 6.12582C14.2774 5.64798 14.9253 5.37953 15.6007 5.37953ZM13.7998 6.12582C13.3222 6.60366 13.0538 7.25176 13.0538 7.92753V8.55409C13.0538 8.87706 12.7921 9.13888 12.4693 9.13888C12.1465 9.13888 11.8848 8.87706 11.8848 8.55409V7.92753C11.8848 6.94157 12.2763 5.99599 12.9731 5.29881C13.67 4.60163 14.6152 4.20996 15.6007 4.20996C16.5863 4.20996 17.5315 4.60163 18.2283 5.29881C18.9252 5.99599 19.3167 6.94157 19.3167 7.92753V8.55409C19.3167 8.87706 19.055 9.13888 18.7322 9.13888C18.4094 9.13888 18.1477 8.87706 18.1477 8.55409V7.92753C18.1477 7.25176 17.8793 6.60366 17.4017 6.12582C16.924 5.64798 16.2762 5.37953 15.6007 5.37953" fill="white"/>
<path fill-rule="evenodd" clip-rule="evenodd" d="M13.7111 11.3198C14.059 11.3198 14.3411 11.6094 14.3411 11.9666V17.513C14.3411 17.8702 14.059 18.1598 13.7111 18.1598C13.3631 18.1598 13.0811 17.8702 13.0811 17.513V11.9666C13.0811 11.6094 13.3631 11.3198 13.7111 11.3198Z" fill="white"/>
<path fill-rule="evenodd" clip-rule="evenodd" d="M17.4904 11.3198C17.8383 11.3198 18.1204 11.6094 18.1204 11.9666V17.513C18.1204 17.8702 17.8383 18.1598 17.4904 18.1598C17.1424 18.1598 16.8604 17.8702 16.8604 17.513V11.9666C16.8604 11.6094 17.1424 11.3198 17.4904 11.3198Z" fill="white"/>
</g>
<defs>
<filter id="filter0_d_180_747" x="0.660351" y="4.20996" width="29.8805" height="31.86" filterUnits="userSpaceOnUse" color-interpolation-filters="sRGB">
<feFlood flood-opacity="0" result="BackgroundImageFix"/>
<feColorMatrix in="SourceAlpha" type="matrix" values="0 0 0 0 0 0 0 0 0 0 0 0 0 0 0 0 0 0 127 0" result="hardAlpha"/>
<feOffset dy="7.2"/>
<feGaussianBlur stdDeviation="3.6"/>
<feComposite in2="hardAlpha" operator="out"/>
<feColorMatrix type="matrix" values="0 0 0 0 0 0 0 0 0 0 0 0 0 0 0 0 0 0 0.15 0"/>
<feBlend mode="normal" in2="BackgroundImageFix" result="effect1_dropShadow_180_747"/>
<feBlend mode="normal" in="SourceGraphic" in2="effect1_dropShadow_180_747" result="shape"/>
</filter>
</defs>
</svg>
