<svg width="31" height="34" viewBox="0 0 31 34" fill="none" xmlns="http://www.w3.org/2000/svg">
<g filter="url(#filter0_d_47_3573)">
<path fill-rule="evenodd" clip-rule="evenodd" d="M17.4777 5.03279C17.7859 5.12779 17.996 5.41215 17.996 5.73409V12.7432H22.6529C22.9255 12.7432 23.1757 12.8937 23.3031 13.1344C23.4304 13.375 23.4139 13.6662 23.2601 13.891L14.7868 26.2799C14.6049 26.5458 14.2707 26.6623 13.9626 26.5673C13.6544 26.4723 13.4442 26.188 13.4442 25.866V18.857H8.78741C8.51479 18.857 8.26454 18.7064 8.13722 18.4657C8.00991 18.2251 8.02643 17.9339 8.18016 17.7091L16.6535 5.32024C16.8353 5.05436 17.1695 4.9378 17.4777 5.03279ZM10.1797 17.389H14.1795C14.5856 17.389 14.9148 17.7176 14.9148 18.123V23.4892L21.2606 14.2111H17.2607C16.8547 14.2111 16.5255 13.8825 16.5255 13.4771V8.11089L10.1797 17.389Z" fill="#A3A3A3"/>
</g>
<defs>
<filter id="filter0_d_47_3573" x="-2.9999" y="0.679993" width="37.4401" height="37.44" filterUnits="userSpaceOnUse" color-interpolation-filters="sRGB">
<feFlood flood-opacity="0" result="BackgroundImageFix"/>
<feColorMatrix in="SourceAlpha" type="matrix" values="0 0 0 0 0 0 0 0 0 0 0 0 0 0 0 0 0 0 127 0" result="hardAlpha"/>
<feOffset dy="3.6"/>
<feGaussianBlur stdDeviation="1.8"/>
<feComposite in2="hardAlpha" operator="out"/>
<feColorMatrix type="matrix" values="0 0 0 0 0.127132 0 0 0 0 0.127132 0 0 0 0 0.127132 0 0 0 0.25 0"/>
<feBlend mode="normal" in2="BackgroundImageFix" result="effect1_dropShadow_47_3573"/>
<feBlend mode="normal" in="SourceGraphic" in2="effect1_dropShadow_47_3573" result="shape"/>
</filter>
</defs>
</svg>
