<svg width="26" height="26" viewBox="0 0 26 26" fill="none" xmlns="http://www.w3.org/2000/svg">
<path fill-rule="evenodd" clip-rule="evenodd" d="M13.0002 6.20008C10.0214 6.20008 7.52329 8.69129 7.52329 11.6619C7.52329 12.5315 7.8529 13.4796 8.39469 14.4401C8.93355 15.3954 9.65967 16.3233 10.3984 17.1418C11.1354 17.9585 11.8743 18.6546 12.4298 19.147C12.6549 19.3465 12.8492 19.512 13.0002 19.6379C13.1512 19.512 13.3455 19.3465 13.5706 19.147C14.1261 18.6546 14.865 17.9585 15.602 17.1418C16.3407 16.3233 17.0668 15.3954 17.6057 14.4401C18.1475 13.4796 18.4771 12.5315 18.4771 11.6619C18.4771 8.69129 15.979 6.20008 13.0002 6.20008ZM13.0002 20.3601C12.6554 20.8021 12.6553 20.802 12.6552 20.8019L12.6548 20.8016L12.6496 20.7976L12.6352 20.7863C12.6227 20.7765 12.6048 20.7623 12.5816 20.7438C12.5353 20.7068 12.4682 20.6527 12.3833 20.5829C12.2135 20.4432 11.9724 20.2401 11.6836 19.9841C11.1068 19.4728 10.3361 18.7471 9.56358 17.8911C8.79267 17.0369 8.00917 16.0411 7.41582 14.9892C6.8254 13.9424 6.4002 12.7996 6.4002 11.6619C6.4002 8.07273 9.40112 5.08008 13.0002 5.08008C16.5993 5.08008 19.6002 8.07273 19.6002 11.6619C19.6002 12.7996 19.175 13.9424 18.5846 14.9892C17.9912 16.0411 17.2077 17.0369 16.4368 17.8911C15.6643 18.7471 14.8936 19.4728 14.3168 19.9841C14.028 20.2401 13.7869 20.4432 13.6171 20.5829C13.5322 20.6527 13.4651 20.7068 13.4188 20.7438C13.3956 20.7623 13.3777 20.7765 13.3652 20.7863L13.3508 20.7976L13.3456 20.8016L13.3452 20.8019C13.3451 20.802 13.345 20.8021 13.0002 20.3601ZM13.0002 20.3601L13.345 20.8021C13.1422 20.9594 12.8582 20.9594 12.6554 20.8021L13.0002 20.3601Z" fill="white"/>
<path fill-rule="evenodd" clip-rule="evenodd" d="M10.4257 11.662C10.4257 10.2441 11.5783 9.09473 13.0001 9.09473C14.4219 9.09473 15.5744 10.2441 15.5744 11.662C15.5744 13.0799 14.4219 14.2293 13.0001 14.2293C11.5783 14.2293 10.4257 13.0799 10.4257 11.662ZM13.0001 10.2147C12.1986 10.2147 11.5488 10.8627 11.5488 11.662C11.5488 12.4613 12.1986 13.1093 13.0001 13.1093C13.8016 13.1093 14.4514 12.4613 14.4514 11.662C14.4514 10.8627 13.8016 10.2147 13.0001 10.2147Z" fill="white"/>
</svg>
