<svg width="42" height="44" viewBox="0 0 42 44" fill="none" xmlns="http://www.w3.org/2000/svg">
<g filter="url(#filter0_d_46_2129)">
<path fill-rule="evenodd" clip-rule="evenodd" d="M10.6323 14.6652H9.0742C8.53615 14.6652 8.09998 14.2289 8.09998 13.6906C8.09998 13.1523 8.53615 12.7159 9.0742 12.7159H11.5798C11.5887 12.7157 11.5976 12.7156 11.6065 12.7156H30.3952C30.4041 12.7156 30.413 12.7157 30.4219 12.7159H32.9257C33.4638 12.7159 33.9 13.1523 33.9 13.6906C33.9 14.2289 33.4638 14.6652 32.9257 14.6652H31.3694V32.4869C31.3694 33.2993 31.0467 34.0786 30.4726 34.6529C29.8985 35.2273 29.1196 35.5501 28.3076 35.5501H13.6942C12.882 35.5501 12.1033 35.2272 11.5292 34.653L11.5291 34.653C10.9549 34.0785 10.6323 33.2993 10.6323 32.4869V14.6652ZM12.5808 14.6652V32.4869C12.5808 32.7824 12.6981 33.0657 12.9068 33.2745C13.1157 33.4834 13.399 33.6008 13.6942 33.6008H28.3076C28.6028 33.6008 28.8861 33.4834 29.0948 33.2745C29.3036 33.0657 29.421 32.7823 29.421 32.4869V14.6652H12.5808Z" fill="white"/>
<path fill-rule="evenodd" clip-rule="evenodd" d="M17.9979 9.64317C18.794 8.84678 19.8737 8.39936 20.9995 8.39936L17.9979 9.64317ZM17.9979 9.64317C17.2019 10.4396 16.7547 11.5197 16.7547 12.646V13.6903C16.7547 14.2286 16.3185 14.6649 15.7804 14.6649C15.2424 14.6649 14.8062 14.2286 14.8062 13.6903V12.646C14.8062 11.0028 15.4587 9.42679 16.6202 8.26482C17.7817 7.10286 19.357 6.45007 20.9995 6.45007C22.6421 6.45007 24.2174 7.10286 25.3788 8.26482C26.5403 9.42679 27.1928 11.0028 27.1928 12.646V13.6903C27.1928 14.2286 26.7566 14.6649 26.2186 14.6649C25.6805 14.6649 25.2444 14.2286 25.2444 13.6903V12.646C25.2444 11.5197 24.7971 10.4396 24.0011 9.64318C23.205 8.84678 22.1253 8.39936 20.9995 8.39936" fill="white"/>
<path fill-rule="evenodd" clip-rule="evenodd" d="M17.8499 18.3C18.4298 18.3 18.8999 18.7827 18.8999 19.3781V28.622C18.8999 29.2174 18.4298 29.7 17.8499 29.7C17.27 29.7 16.7999 29.2174 16.7999 28.622V19.3781C16.7999 18.7827 17.27 18.3 17.8499 18.3Z" fill="white"/>
<path fill-rule="evenodd" clip-rule="evenodd" d="M24.1496 18.3C24.7295 18.3 25.1996 18.7827 25.1996 19.3781V28.622C25.1996 29.2174 24.7295 29.7 24.1496 29.7C23.5697 29.7 23.0996 29.2174 23.0996 28.622V19.3781C23.0996 18.7827 23.5697 18.3 24.1496 18.3Z" fill="white"/>
</g>
<defs>
<filter id="filter0_d_46_2129" x="-4" y="0" width="50" height="50" filterUnits="userSpaceOnUse" color-interpolation-filters="sRGB">
<feFlood flood-opacity="0" result="BackgroundImageFix"/>
<feColorMatrix in="SourceAlpha" type="matrix" values="0 0 0 0 0 0 0 0 0 0 0 0 0 0 0 0 0 0 127 0" result="hardAlpha"/>
<feOffset dy="4"/>
<feGaussianBlur stdDeviation="2"/>
<feComposite in2="hardAlpha" operator="out"/>
<feColorMatrix type="matrix" values="0 0 0 0 0.127132 0 0 0 0 0.127132 0 0 0 0 0.127132 0 0 0 0.25 0"/>
<feBlend mode="normal" in2="BackgroundImageFix" result="effect1_dropShadow_46_2129"/>
<feBlend mode="normal" in="SourceGraphic" in2="effect1_dropShadow_46_2129" result="shape"/>
</filter>
</defs>
</svg>
