<svg width="85" height="84" viewBox="0 0 85 84" fill="none" xmlns="http://www.w3.org/2000/svg">
<path fill-rule="evenodd" clip-rule="evenodd" d="M42.5917 13.5C46.8796 13.4976 51.1127 14.4632 54.9756 16.325C58.8385 18.1868 62.2317 20.8967 64.9019 24.2529C67.5721 27.609 69.4502 31.5246 70.397 35.7078C71.3439 39.891 71.3341 44.234 70.3692 48.413C69.4047 52.5922 67.5088 56.4997 64.8242 59.8437C62.1398 63.1884 58.7346 65.8837 54.8636 67.7284C50.9924 69.5736 46.7549 70.5208 42.4668 70.4995C38.396 70.4793 34.3794 69.5868 30.6867 67.8852L16.4041 70.4687C15.7115 70.594 15.0049 70.3374 14.554 69.7968C14.1031 69.2562 13.9775 68.5151 14.2251 67.8561L18.3307 56.9296C15.8139 52.8362 14.3698 48.1673 14.1407 43.3563C13.8954 38.207 15.051 33.0876 17.4844 28.5432C19.9179 23.9989 23.538 20.1998 27.9594 17.5507C32.3806 14.9017 37.4379 13.5017 42.5917 13.5ZM53.2772 19.8488C49.9446 18.2426 46.2926 17.4096 42.5934 17.4118C38.1473 17.4132 33.7842 18.6208 29.9699 20.9062C26.1556 23.1916 23.0324 26.4692 20.9329 30.3898C18.8334 34.3105 17.8364 38.7274 18.048 43.1701C18.2596 47.6129 19.672 51.9149 22.1346 55.618C22.4827 56.1415 22.558 56.8005 22.3368 57.389L19.0991 66.006L30.609 63.924C31.0189 63.8499 31.4418 63.9086 31.8161 64.0915C35.1398 65.7161 38.7871 66.5695 42.4862 66.5878C46.1854 66.6061 49.841 65.7891 53.1805 64.1973C56.5199 62.6059 59.4577 60.2806 61.7734 57.3952C64.0897 54.5101 65.7255 51.1387 66.5576 47.5333C67.3902 43.9276 67.3986 40.1804 66.5818 36.5713C65.7648 32.9619 64.1444 29.5837 61.8408 26.6883C59.5371 23.7929 56.6098 21.455 53.2772 19.8488Z" fill="white"/>
</svg>
