<svg width="21" height="21" viewBox="0 0 21 21" fill="none" xmlns="http://www.w3.org/2000/svg">
<path d="M10.4999 3.75C6.77203 3.75 3.75 6.77203 3.75 10.4999C3.75 11.8135 4.12552 13.0391 4.77469 14.0761L3.93404 16.3133C3.8599 16.5104 3.89748 16.7322 4.03249 16.8942C4.16751 17.0559 4.37888 17.1327 4.58623 17.0953L7.53031 16.5629C8.42661 17.0027 9.43442 17.25 10.5001 17.25C14.228 17.25 17.25 14.228 17.25 10.5001C17.25 6.77223 14.2278 3.75 10.4999 3.75ZM10.4999 15.816C10.4999 15.816 9.4296 15.7984 8.33941 15.3684C8.01713 15.2074 7.7246 15.2599 7.7246 15.2599L5.51367 15.6519L6.12005 14.0719C6.26773 13.6576 6.01557 13.3315 6.01557 13.3315C5.50463 12.5171 5.20667 11.5551 5.20667 10.5228C5.20667 7.59942 7.57652 5.22957 10.4999 5.22957C13.4233 5.22957 15.7931 7.59942 15.7931 10.5228C15.7931 13.4462 13.4233 15.816 10.4999 15.816Z" fill="white"/>
</svg>
