<svg width="27" height="26" viewBox="0 0 27 26" fill="none" xmlns="http://www.w3.org/2000/svg">
<path fill-rule="evenodd" clip-rule="evenodd" d="M5.56701 5.16992C5.12331 5.16992 4.76999 5.53613 4.76999 5.97992C4.76999 6.42372 5.12331 6.78992 5.56701 6.78992H21.433C21.8767 6.78992 22.23 6.42372 22.23 5.97992C22.23 5.53613 21.8767 5.16992 21.433 5.16992H5.56701ZM5.567 12.1898C5.12331 12.1898 4.76999 12.556 4.76999 12.9998C4.76999 13.4436 5.12331 13.8098 5.567 13.8098H21.433C21.8767 13.8098 22.23 13.4436 22.23 12.9998C22.23 12.556 21.8767 12.1898 21.433 12.1898H5.567ZM5.567 19.2099C5.12331 19.2099 4.76999 19.5761 4.76999 20.0199C4.76999 20.4637 5.12331 20.8299 5.567 20.8299H21.433C21.8767 20.8299 22.23 20.4637 22.23 20.0199C22.23 19.5761 21.8767 19.2099 21.433 19.2099H5.567Z" fill="white"/>
</svg>
