<svg width="34" height="37" viewBox="0 0 34 37" fill="none" xmlns="http://www.w3.org/2000/svg">
<g filter="url(#filter0_d_47_3569)">
<path fill-rule="evenodd" clip-rule="evenodd" d="M19.08 7.05146C19.0679 5.80595 18.0518 4.79999 16.8001 4.79999C15.5409 4.79999 14.5201 5.81806 14.5201 7.07391C14.5201 7.08133 14.5202 7.08875 14.5203 7.09615C14.5323 8.34175 15.5484 9.34782 16.8002 9.34782C18.0594 9.34782 19.0802 8.32975 19.0802 7.0739C19.0802 7.06641 19.0801 7.05893 19.08 7.05146Z" fill="white"/>
<path fill-rule="evenodd" clip-rule="evenodd" d="M19.0799 16.7771C19.0676 15.5318 18.0516 14.526 16.8 14.526C15.5408 14.526 14.52 15.5441 14.52 16.7999C14.52 16.8074 14.5201 16.8148 14.5202 16.8222C14.5322 18.0678 15.5483 19.0739 16.8001 19.0739C18.0593 19.0739 19.0801 18.0558 19.0801 16.7999C19.0801 16.7923 19.08 16.7847 19.0799 16.7771Z" fill="white"/>
<path fill-rule="evenodd" clip-rule="evenodd" d="M19.0799 26.5032C19.0676 25.2579 18.0516 24.2521 16.8 24.2521C15.5408 24.2521 14.52 25.2702 14.52 26.5261C14.52 26.5335 14.5201 26.5409 14.5202 26.5483C14.5321 27.7941 15.5484 28.8 16.8001 28.8C18.0592 28.8 19.0801 27.7822 19.0801 26.5261C19.0801 26.5185 19.08 26.5108 19.0799 26.5032Z" fill="white"/>
</g>
<defs>
<filter id="filter0_d_47_3569" x="-4" y="0" width="41.6001" height="41.6" filterUnits="userSpaceOnUse" color-interpolation-filters="sRGB">
<feFlood flood-opacity="0" result="BackgroundImageFix"/>
<feColorMatrix in="SourceAlpha" type="matrix" values="0 0 0 0 0 0 0 0 0 0 0 0 0 0 0 0 0 0 127 0" result="hardAlpha"/>
<feOffset dy="4"/>
<feGaussianBlur stdDeviation="2"/>
<feComposite in2="hardAlpha" operator="out"/>
<feColorMatrix type="matrix" values="0 0 0 0 0.127132 0 0 0 0 0.127132 0 0 0 0 0.127132 0 0 0 0.25 0"/>
<feBlend mode="normal" in2="BackgroundImageFix" result="effect1_dropShadow_47_3569"/>
<feBlend mode="normal" in="SourceGraphic" in2="effect1_dropShadow_47_3569" result="shape"/>
</filter>
</defs>
</svg>
