<svg width="32" height="32" viewBox="0 0 32 32" fill="none" xmlns="http://www.w3.org/2000/svg">
<g filter="url(#filter0_d_1074_17337)">
<path fill-rule="evenodd" clip-rule="evenodd" d="M9.95143 8.95528C9.66941 8.67429 9.22042 8.68283 8.94859 8.97436C8.67676 9.26589 8.68502 9.73002 8.96705 10.011L14.978 16L8.96705 21.989C8.68502 22.27 8.67676 22.7341 8.94859 23.0256C9.22042 23.3172 9.66941 23.3257 9.95143 23.0447L16 17.0183L22.0486 23.0447C22.3306 23.3257 22.7796 23.3172 23.0514 23.0256C23.3232 22.7341 23.315 22.27 23.033 21.989L17.022 16L23.033 10.011C23.315 9.73002 23.3232 9.26589 23.0514 8.97436C22.7796 8.68283 22.3306 8.67429 22.0486 8.95528L16 14.9817L9.95143 8.95528Z" fill="white"/>
<path d="M8.94859 8.97436L8.76574 8.80387L8.94859 8.97436ZM9.95143 8.95528L9.77498 9.13238V9.13238L9.95143 8.95528ZM8.96705 10.011L9.1435 9.83391L8.96705 10.011ZM14.978 16L15.1545 16.1771C15.2015 16.1302 15.228 16.0665 15.228 16C15.228 15.9335 15.2015 15.8698 15.1545 15.8229L14.978 16ZM8.96705 21.989L8.79059 21.8119H8.79059L8.96705 21.989ZM8.94859 23.0256L9.13144 22.8551H9.13144L8.94859 23.0256ZM9.95143 23.0447L9.77498 22.8676H9.77498L9.95143 23.0447ZM16 17.0183L16.1765 16.8412C16.0789 16.744 15.9211 16.744 15.8235 16.8412L16 17.0183ZM22.0486 23.0447L21.8721 23.2218L22.0486 23.0447ZM23.0514 23.0256L23.2343 23.1961L23.2343 23.1961L23.0514 23.0256ZM23.033 21.989L23.2094 21.8119L23.033 21.989ZM17.022 16L16.8455 15.8229C16.7985 15.8698 16.772 15.9335 16.772 16C16.772 16.0665 16.7985 16.1302 16.8455 16.1771L17.022 16ZM23.033 10.011L22.8565 9.83391V9.83391L23.033 10.011ZM23.0514 8.97436L23.2343 8.80387L23.2343 8.80387L23.0514 8.97436ZM22.0486 8.95528L21.8721 8.77818V8.77818L22.0486 8.95528ZM16 14.9817L15.8235 15.1588C15.9211 15.256 16.0789 15.256 16.1765 15.1588L16 14.9817ZM9.13143 9.14485C9.3071 8.95646 9.59328 8.95134 9.77498 9.13238L10.1279 8.77818C9.74554 8.39723 9.13374 8.4092 8.76574 8.80387L9.13143 9.14485ZM9.1435 9.83391C8.95719 9.64829 8.95138 9.33796 9.13143 9.14485L8.76574 8.80387C8.40214 9.19383 8.41285 9.81175 8.79059 10.1881L9.1435 9.83391ZM15.1545 15.8229L9.1435 9.83391L8.79059 10.1881L14.8016 16.1771L15.1545 15.8229ZM9.1435 22.1661L15.1545 16.1771L14.8016 15.8229L8.79059 21.8119L9.1435 22.1661ZM9.13144 22.8551C8.95138 22.662 8.95719 22.3517 9.1435 22.1661L8.79059 21.8119C8.41285 22.1883 8.40214 22.8062 8.76574 23.1961L9.13144 22.8551ZM9.77498 22.8676C9.59328 23.0487 9.3071 23.0435 9.13144 22.8551L8.76574 23.1961C9.13374 23.5908 9.74554 23.6028 10.1279 23.2218L9.77498 22.8676ZM15.8235 16.8412L9.77498 22.8676L10.1279 23.2218L16.1765 17.1954L15.8235 16.8412ZM22.225 22.8676L16.1765 16.8412L15.8235 17.1954L21.8721 23.2218L22.225 22.8676ZM22.8686 22.8551C22.6929 23.0435 22.4067 23.0487 22.225 22.8676L21.8721 23.2218C22.2545 23.6028 22.8663 23.5908 23.2343 23.1961L22.8686 22.8551ZM22.8565 22.1661C23.0428 22.3517 23.0486 22.662 22.8686 22.8551L23.2343 23.1961C23.5979 22.8062 23.5872 22.1883 23.2094 21.8119L22.8565 22.1661ZM16.8455 16.1771L22.8565 22.1661L23.2094 21.8119L17.1984 15.8229L16.8455 16.1771ZM22.8565 9.83391L16.8455 15.8229L17.1984 16.1771L23.2094 10.1881L22.8565 9.83391ZM22.8686 9.14485C23.0486 9.33796 23.0428 9.64829 22.8565 9.83391L23.2094 10.1881C23.5872 9.81175 23.5979 9.19383 23.2343 8.80387L22.8686 9.14485ZM22.225 9.13238C22.4067 8.95134 22.6929 8.95646 22.8686 9.14485L23.2343 8.80387C22.8663 8.4092 22.2545 8.39723 21.8721 8.77818L22.225 9.13238ZM16.1765 15.1588L22.225 9.13238L21.8721 8.77818L15.8235 14.8046L16.1765 15.1588ZM9.77498 9.13238L15.8235 15.1588L16.1765 14.8046L10.1279 8.77818L9.77498 9.13238Z" fill="white"/>
</g>
<defs>
<filter id="filter0_d_1074_17337" x="4.5" y="8.5" width="23" height="23" filterUnits="userSpaceOnUse" color-interpolation-filters="sRGB">
<feFlood flood-opacity="0" result="BackgroundImageFix"/>
<feColorMatrix in="SourceAlpha" type="matrix" values="0 0 0 0 0 0 0 0 0 0 0 0 0 0 0 0 0 0 127 0" result="hardAlpha"/>
<feOffset dy="4"/>
<feGaussianBlur stdDeviation="2"/>
<feComposite in2="hardAlpha" operator="out"/>
<feColorMatrix type="matrix" values="0 0 0 0 0.127132 0 0 0 0 0.127132 0 0 0 0 0.127132 0 0 0 0.25 0"/>
<feBlend mode="normal" in2="BackgroundImageFix" result="effect1_dropShadow_1074_17337"/>
<feBlend mode="normal" in="SourceGraphic" in2="effect1_dropShadow_1074_17337" result="shape"/>
</filter>
</defs>
</svg>
