<?xml version="1.0" encoding="UTF-8"?>
<svg id="_레이어_1" xmlns="http://www.w3.org/2000/svg" version="1.1" viewBox="0 0 40 40">
  <!-- Generator: Adobe Illustrator 29.4.0, SVG Export Plug-In . SVG Version: 2.1.0 Build 152)  -->
  <defs>
    <style>
      .st0 {
        fill: #181702;
      }

      .st1 {
        fill: #fbe64d;
      }
    </style>
  </defs>
  <path id="Rectangle" class="st1" d="M20,0h0C31.05,0,40,8.95,40,20h0c0,11.05-8.95,20-20,20h0C8.95,40,0,31.05,0,20h0C0,8.95,8.95,0,20,0Z"/>
  <path class="st0" d="M20.01,12.65c1.51,0,2.89.29,4.17.88s2.29,1.37,3.02,2.39c.74,1,1.11,2.1,1.11,3.29s-.37,2.29-1.11,3.29c-.74,1-1.74,1.81-3.02,2.39-1.28.58-2.66.88-4.18.88-.48,0-.96-.04-1.47-.1-2.19,1.52-3.38,2.31-3.52,2.32-.07.03-.13.03-.19,0-.03-.02-.04-.04-.06-.08-.02-.04-.02-.06-.02-.08v-.04c.04-.24.32-1.25.85-3.01-1.2-.59-2.14-1.37-2.85-2.36s-1.05-2.04-1.05-3.2.37-2.29,1.11-3.29c.74-1,1.74-1.8,3.02-2.39,1.28-.58,2.66-.88,4.17-.88h.02v-.02h0Z"/>
</svg>