<svg width="31" height="31" viewBox="0 0 31 31" fill="none" xmlns="http://www.w3.org/2000/svg">
<path fill-rule="evenodd" clip-rule="evenodd" d="M7.51038 6.46021C7.12386 6.08767 6.50853 6.099 6.13599 6.48551C5.76345 6.87202 5.77478 7.48735 6.16129 7.85989L14.3992 15.8001L6.16129 23.7402C5.77478 24.1128 5.76345 24.7281 6.13599 25.1146C6.50853 25.5011 7.12387 25.5124 7.51038 25.1399L15.7998 17.1501L24.0893 25.1399C24.4758 25.5124 25.0911 25.5011 25.4637 25.1146C25.8362 24.7281 25.8249 24.1128 25.4384 23.7402L17.2005 15.8001L25.4384 7.85989C25.8249 7.48735 25.8362 6.87202 25.4637 6.48551C25.0911 6.099 24.4758 6.08767 24.0893 6.46021L15.7998 14.45L7.51038 6.46021Z" fill="#A3A3A3"/>
</svg>
