<svg width="42" height="44" viewBox="0 0 42 44" fill="none" xmlns="http://www.w3.org/2000/svg">
<g filter="url(#filter0_d_46_2106)">
<path fill-rule="evenodd" clip-rule="evenodd" d="M6.75 11.0809C6.75 8.689 8.689 6.75 11.0809 6.75H30.9191C33.311 6.75 35.25 8.689 35.25 11.0809V21C35.25 21.2594 35.147 21.5081 34.9636 21.6915L21.6915 34.9636C21.5081 35.147 21.2594 35.25 21 35.25H11.0809C8.689 35.25 6.75 33.311 6.75 30.9191V11.0809ZM11.0809 8.70588C9.76921 8.70588 8.70588 9.76921 8.70588 11.0809V30.9191C8.70588 32.2308 9.76921 33.2941 11.0809 33.2941H20.0221V24.3529C20.0221 21.9611 21.9611 20.0221 24.3529 20.0221H33.2941V11.0809C33.2941 9.76921 32.2308 8.70588 30.9191 8.70588H11.0809ZM31.9111 21.9779H24.3529C23.0413 21.9779 21.9779 23.0413 21.9779 24.3529V31.9111L31.9111 21.9779Z" fill="white"/>
</g>
<defs>
<filter id="filter0_d_46_2106" x="-4" y="0" width="50" height="50" filterUnits="userSpaceOnUse" color-interpolation-filters="sRGB">
<feFlood flood-opacity="0" result="BackgroundImageFix"/>
<feColorMatrix in="SourceAlpha" type="matrix" values="0 0 0 0 0 0 0 0 0 0 0 0 0 0 0 0 0 0 127 0" result="hardAlpha"/>
<feOffset dy="4"/>
<feGaussianBlur stdDeviation="2"/>
<feComposite in2="hardAlpha" operator="out"/>
<feColorMatrix type="matrix" values="0 0 0 0 0.127132 0 0 0 0 0.127132 0 0 0 0 0.127132 0 0 0 0.25 0"/>
<feBlend mode="normal" in2="BackgroundImageFix" result="effect1_dropShadow_46_2106"/>
<feBlend mode="normal" in="SourceGraphic" in2="effect1_dropShadow_46_2106" result="shape"/>
</filter>
</defs>
</svg>
