<svg width="35" height="37" viewBox="0 0 35 37" fill="none" xmlns="http://www.w3.org/2000/svg">
<g filter="url(#filter0_d_47_3646)">
<path fill-rule="evenodd" clip-rule="evenodd" d="M19.8038 5.61558C19.8038 5.25786 19.5702 4.94191 19.2278 4.83636C18.8854 4.73081 18.5141 4.86032 18.312 5.15574L13.6001 12.0451L9.3207 7.76565C9.00828 7.45323 8.50175 7.45323 8.18933 7.76565C7.87691 8.07807 7.87691 8.5846 8.18933 8.89702L12.6811 13.3888L8.89725 18.9212C8.72645 19.1709 8.70809 19.4945 8.84955 19.7618C8.99101 20.0292 9.26906 20.1965 9.57198 20.1965H14.7462V27.9844C14.7462 28.3421 14.9798 28.6581 15.3222 28.7636C15.6645 28.8692 16.0359 28.7397 16.2379 28.4442L20.9082 21.6159L25.1599 25.8676C25.4723 26.18 25.9788 26.18 26.2913 25.8676C26.6037 25.5552 26.6037 25.0486 26.2913 24.7362L21.8272 20.2721L25.6527 14.6788C25.8235 14.4291 25.8419 14.1055 25.7004 13.8381C25.559 13.5707 25.2809 13.4034 24.978 13.4034H19.8038V5.61558ZM20.6523 19.0972L23.431 15.0345H18.9868C18.5356 15.0345 18.1698 14.6694 18.1698 14.219V8.25646L14.775 13.22L20.6523 19.0972ZM13.856 14.5637L11.119 18.5655H15.5632C16.0144 18.5655 16.3802 18.9306 16.3802 19.381V25.3435L19.7333 20.441L13.856 14.5637Z" fill="#A3A3A3"/>
</g>
<defs>
<filter id="filter0_d_47_3646" x="-3.55975" y="0" width="41.6001" height="41.6" filterUnits="userSpaceOnUse" color-interpolation-filters="sRGB">
<feFlood flood-opacity="0" result="BackgroundImageFix"/>
<feColorMatrix in="SourceAlpha" type="matrix" values="0 0 0 0 0 0 0 0 0 0 0 0 0 0 0 0 0 0 127 0" result="hardAlpha"/>
<feOffset dy="4"/>
<feGaussianBlur stdDeviation="2"/>
<feComposite in2="hardAlpha" operator="out"/>
<feColorMatrix type="matrix" values="0 0 0 0 0.127132 0 0 0 0 0.127132 0 0 0 0 0.127132 0 0 0 0.25 0"/>
<feBlend mode="normal" in2="BackgroundImageFix" result="effect1_dropShadow_47_3646"/>
<feBlend mode="normal" in="SourceGraphic" in2="effect1_dropShadow_47_3646" result="shape"/>
</filter>
</defs>
</svg>
