<svg width="35" height="37" viewBox="0 0 35 37" fill="none" xmlns="http://www.w3.org/2000/svg">
<g filter="url(#filter0_d_47_3578)">
<path fill-rule="evenodd" clip-rule="evenodd" d="M20.2037 5.61558C20.2037 5.25786 19.9701 4.94191 19.6277 4.83636C19.2853 4.73081 18.914 4.86032 18.7119 5.15574L14 12.0451L9.7206 7.76565C9.40819 7.45323 8.90165 7.45323 8.58923 7.76565C8.27681 8.07807 8.27681 8.5846 8.58923 8.89702L13.081 13.3888L9.29715 18.9212C9.12635 19.1709 9.10799 19.4945 9.24945 19.7618C9.39091 20.0292 9.66896 20.1965 9.97188 20.1965H15.1461V27.9844C15.1461 28.3421 15.3797 28.6581 15.7221 28.7636C16.0645 28.8692 16.4358 28.7397 16.6378 28.4442L21.3081 21.6159L25.5598 25.8676C25.8722 26.18 26.3787 26.18 26.6912 25.8676C27.0036 25.5552 27.0036 25.0486 26.6912 24.7362L22.2271 20.2721L26.0526 14.6788C26.2234 14.4291 26.2418 14.1055 26.1003 13.8381C25.9589 13.5707 25.6808 13.4034 25.3779 13.4034H20.2037V5.61558ZM21.0522 19.0972L23.8309 15.0345H19.3867C18.9355 15.0345 18.5697 14.6694 18.5697 14.219V8.25646L15.1749 13.22L21.0522 19.0972ZM14.2559 14.5637L11.5189 18.5655H15.9631C16.4143 18.5655 16.7801 18.9306 16.7801 19.381V25.3435L20.1332 20.441L14.2559 14.5637Z" fill="white"/>
</g>
<defs>
<filter id="filter0_d_47_3578" x="-3.15985" y="0" width="41.6001" height="41.6" filterUnits="userSpaceOnUse" color-interpolation-filters="sRGB">
<feFlood flood-opacity="0" result="BackgroundImageFix"/>
<feColorMatrix in="SourceAlpha" type="matrix" values="0 0 0 0 0 0 0 0 0 0 0 0 0 0 0 0 0 0 127 0" result="hardAlpha"/>
<feOffset dy="4"/>
<feGaussianBlur stdDeviation="2"/>
<feComposite in2="hardAlpha" operator="out"/>
<feColorMatrix type="matrix" values="0 0 0 0 0.127132 0 0 0 0 0.127132 0 0 0 0 0.127132 0 0 0 0.25 0"/>
<feBlend mode="normal" in2="BackgroundImageFix" result="effect1_dropShadow_47_3578"/>
<feBlend mode="normal" in="SourceGraphic" in2="effect1_dropShadow_47_3578" result="shape"/>
</filter>
</defs>
</svg>
