<svg width="58" height="58" viewBox="0 0 58 58" fill="none" xmlns="http://www.w3.org/2000/svg">
<g filter="url(#filter0_d_44_704)">
<g filter="url(#filter1_d_44_704)">
<path fill-rule="evenodd" clip-rule="evenodd" d="M41.6936 11.9065C42.1324 11.6433 42.7035 11.7823 42.9692 12.2169C44.5881 14.8652 45.4619 17.8943 45.4999 20.9899C45.5 20.9974 45.5 21.0048 45.4999 21.0122C45.4619 24.1079 44.5881 27.137 42.9692 29.7852C42.7035 30.2198 42.1324 30.3589 41.6936 30.0957C41.2548 29.8325 41.1144 29.2668 41.3801 28.8322C42.8253 26.4681 43.6063 23.7644 43.6422 21.0011C43.6063 18.2378 42.8253 15.5341 41.3801 13.1699C41.1144 12.7353 41.2548 12.1696 41.6936 11.9065Z" fill="white"/>
<path fill-rule="evenodd" clip-rule="evenodd" d="M36.8012 16.7317C37.1965 16.4079 37.782 16.4628 38.1089 16.8543C39.08 18.0172 39.5826 19.4942 39.5211 21.0011C39.5826 22.508 39.08 23.9849 38.1089 25.1478C37.782 25.5393 37.1965 25.5942 36.8012 25.2704C36.4059 24.9466 36.3505 24.3667 36.6774 23.9751C37.363 23.1541 37.7147 22.1091 37.6636 21.0447C37.6622 21.0156 37.6622 20.9865 37.6636 20.9574C37.7147 19.893 37.363 18.848 36.6774 18.027C36.3505 17.6354 36.4059 17.0555 36.8012 16.7317Z" fill="white"/>
<path fill-rule="evenodd" clip-rule="evenodd" d="M33.5292 11.5167C33.5831 8.90578 30.6502 7.33823 28.4772 8.82744L28.4718 8.83119L19.1263 15.3339H15.8253C14.007 15.3339 12.5 16.8266 12.5 18.6275V23.3747C12.5 25.1756 14.007 26.6683 15.8253 26.6683H19.1208L28.248 33.1652C28.2524 33.1684 28.257 33.1715 28.2615 33.1747C30.4137 34.6496 33.4706 33.1182 33.529 30.5159C33.5291 30.5091 33.5292 30.5023 33.5292 30.4955V11.5167ZM29.5366 10.3389C30.4615 9.70767 31.6986 10.3684 31.6718 11.4847C31.6717 11.4882 31.6716 11.4916 31.6716 11.4951C31.6715 11.4989 31.6715 11.5028 31.6715 11.5066V30.484C31.6392 31.6073 30.2626 32.3016 29.3245 31.6656L19.962 25.0012C19.8041 24.8888 19.6145 24.8283 19.4199 24.8283H15.8253C15.033 24.8283 14.3577 24.1594 14.3577 23.3747V18.6275C14.3577 17.8428 15.033 17.1739 15.8253 17.1739H19.4199C19.611 17.1739 19.7975 17.1155 19.9539 17.0067L29.5366 10.3389Z" fill="white"/>
</g>
</g>
<defs>
<filter id="filter0_d_44_704" x="4" y="0" width="50" height="50" filterUnits="userSpaceOnUse" color-interpolation-filters="sRGB">
<feFlood flood-opacity="0" result="BackgroundImageFix"/>
<feColorMatrix in="SourceAlpha" type="matrix" values="0 0 0 0 0 0 0 0 0 0 0 0 0 0 0 0 0 0 127 0" result="hardAlpha"/>
<feOffset dy="4"/>
<feGaussianBlur stdDeviation="2"/>
<feComposite in2="hardAlpha" operator="out"/>
<feColorMatrix type="matrix" values="0 0 0 0 0.127132 0 0 0 0 0.127132 0 0 0 0 0.127132 0 0 0 0.25 0"/>
<feBlend mode="normal" in2="BackgroundImageFix" result="effect1_dropShadow_44_704"/>
<feBlend mode="normal" in="SourceGraphic" in2="effect1_dropShadow_44_704" result="shape"/>
</filter>
<filter id="filter1_d_44_704" x="0.5" y="8.25" width="57" height="49.5" filterUnits="userSpaceOnUse" color-interpolation-filters="sRGB">
<feFlood flood-opacity="0" result="BackgroundImageFix"/>
<feColorMatrix in="SourceAlpha" type="matrix" values="0 0 0 0 0 0 0 0 0 0 0 0 0 0 0 0 0 0 127 0" result="hardAlpha"/>
<feOffset dy="12"/>
<feGaussianBlur stdDeviation="6"/>
<feComposite in2="hardAlpha" operator="out"/>
<feColorMatrix type="matrix" values="0 0 0 0 0 0 0 0 0 0 0 0 0 0 0 0 0 0 0.15 0"/>
<feBlend mode="normal" in2="BackgroundImageFix" result="effect1_dropShadow_44_704"/>
<feBlend mode="normal" in="SourceGraphic" in2="effect1_dropShadow_44_704" result="shape"/>
</filter>
</defs>
</svg>
