<svg width="30" height="30" viewBox="0 0 30 30" fill="none" xmlns="http://www.w3.org/2000/svg">
<path fill-rule="evenodd" clip-rule="evenodd" d="M13.922 6.62805C13.922 6.03269 14.4046 5.55005 15 5.55005C15.5954 5.55005 16.078 6.03269 16.078 6.62805V13.6605C16.078 13.7765 16.172 13.8705 16.288 13.8705H23.372C23.9674 13.8705 24.45 14.3531 24.45 14.9485C24.45 15.5438 23.9674 16.0265 23.372 16.0265H16.288C16.172 16.0265 16.078 16.1205 16.078 16.2365V23.372C16.078 23.9674 15.5954 24.45 15 24.45C14.4046 24.45 13.922 23.9674 13.922 23.372V16.2365C13.922 16.1205 13.828 16.0265 13.712 16.0265H6.62799C6.03263 16.0265 5.54999 15.5438 5.54999 14.9485C5.54999 14.3531 6.03263 13.8705 6.62799 13.8705H13.712C13.828 13.8705 13.922 13.7765 13.922 13.6605V6.62805Z" fill="#2F2F2F"/>
</svg>
