<svg width="32" height="39" viewBox="0 0 32 39" fill="none" xmlns="http://www.w3.org/2000/svg">
<g filter="url(#filter0_d_1499_14836)">
<path fill-rule="evenodd" clip-rule="evenodd" d="M8.36368 8.14844C8.01916 8.14844 7.73987 8.42785 7.73987 8.77252C7.73987 9.11719 8.01916 9.3966 8.36368 9.3966H9.36118V20.8084C9.36118 21.3285 9.56772 21.8275 9.93545 22.1953L9.93546 22.1954C10.3031 22.563 10.8017 22.7698 11.3217 22.7698H20.679C21.1989 22.7698 21.6977 22.5631 22.0653 22.1953C22.4329 21.8275 22.6395 21.3286 22.6395 20.8084V9.3966H23.6363C23.9808 9.3966 24.2601 9.11719 24.2601 8.77252C24.2601 8.42785 23.9808 8.14844 23.6363 8.14844H22.0157H9.985H8.36368ZM21.3919 9.3966H10.6088V20.8084C10.6088 20.9976 10.6839 21.179 10.8176 21.3127C10.9514 21.4465 11.1327 21.5216 11.3217 21.5216H20.679C20.868 21.5216 21.0494 21.4464 21.1831 21.3127C21.3167 21.179 21.3919 20.9975 21.3919 20.8084V9.3966Z" fill="#FF5959"/>
<path fill-rule="evenodd" clip-rule="evenodd" d="M14.078 6.18132C14.5878 5.67137 15.2791 5.38488 16 5.38488ZM14.078 6.18132C13.5683 6.69127 13.2819 7.38292 13.2819 8.1041V8.77276C13.2819 9.11743 13.0026 9.39684 12.6581 9.39684C12.3136 9.39684 12.0343 9.11743 12.0343 8.77276V8.1041C12.0343 7.05189 12.4521 6.04276 13.1958 5.29873C13.9395 4.55471 14.9482 4.13672 16 4.13672C17.0517 4.13672 18.0604 4.55471 18.8041 5.29873C19.5479 6.04276 19.9657 7.05189 19.9657 8.1041V8.77276C19.9657 9.11743 19.6864 9.39684 19.3419 9.39684C18.9973 9.39684 18.718 9.11743 18.718 8.77276V8.1041C18.718 7.38292 18.4317 6.69127 17.9219 6.18132C17.4122 5.67137 16.7209 5.38488 16 5.38488" fill="#FF5959"/>
<path fill-rule="evenodd" clip-rule="evenodd" d="M13.983 11.7246C14.3543 11.7246 14.6553 12.0337 14.6553 12.4149V18.3339C14.6553 18.7152 14.3543 19.0242 13.983 19.0242C13.6117 19.0242 13.3107 18.7152 13.3107 18.3339V12.4149C13.3107 12.0337 13.6117 11.7246 13.983 11.7246Z" fill="#FF5959"/>
<path fill-rule="evenodd" clip-rule="evenodd" d="M18.017 11.7246C18.3883 11.7246 18.6893 12.0337 18.6893 12.4149V18.3339C18.6893 18.7152 18.3883 19.0242 18.017 19.0242C17.6457 19.0242 17.3447 18.7152 17.3447 18.3339V12.4149C17.3447 12.0337 17.6457 11.7246 18.017 11.7246Z" fill="#FF5959"/>
</g>
<defs>
<filter id="filter0_d_1499_14836" x="0.0560503" y="4.13672" width="31.8878" height="34.0004" filterUnits="userSpaceOnUse" color-interpolation-filters="sRGB">
<feFlood flood-opacity="0" result="BackgroundImageFix"/>
<feColorMatrix in="SourceAlpha" type="matrix" values="0 0 0 0 0 0 0 0 0 0 0 0 0 0 0 0 0 0 127 0" result="hardAlpha"/>
<feOffset dy="7.68382"/>
<feGaussianBlur stdDeviation="3.84191"/>
<feComposite in2="hardAlpha" operator="out"/>
<feColorMatrix type="matrix" values="0 0 0 0 0 0 0 0 0 0 0 0 0 0 0 0 0 0 0.15 0"/>
<feBlend mode="normal" in2="BackgroundImageFix" result="effect1_dropShadow_1499_14836"/>
<feBlend mode="normal" in="SourceGraphic" in2="effect1_dropShadow_1499_14836" result="shape"/>
</filter>
</defs>
</svg>
