<svg width="167" height="134" viewBox="0 0 167 134" fill="none" xmlns="http://www.w3.org/2000/svg">
<path d="M83.7914 85.174C88.7514 66.264 85.8314 49.624 75.5514 44.934C62.7614 39.104 43.4514 53.994 32.4214 78.184C21.3914 102.384 22.8214 126.724 35.6114 132.554C48.4014 138.384 67.7114 123.494 78.7414 99.304C79.7314 97.124 80.5914 94.954 81.3814 92.784H44.1214L83.7814 85.174H83.7914Z" fill="white"/>
<path d="M152.431 19.624C136.001 12.134 111.191 31.264 97.0214 62.344C93.7014 69.624 91.2714 76.914 89.6914 83.904L163.841 67.964C169.031 45.074 165.021 25.364 152.431 19.624Z" fill="white"/>
<path d="M101.111 132.194C116.951 139.414 140.571 121.894 154.941 92.7841H88.1113C85.7213 111.734 90.1913 127.214 101.111 132.194Z" fill="white"/>
</svg>
