<svg width="32" height="32" viewBox="0 0 32 32" fill="none" xmlns="http://www.w3.org/2000/svg">
<path d="M25.236 18.004C27.3082 13.7427 27.1583 9.40025 24.9013 8.30491C22.6443 7.20957 19.1348 9.7761 17.0627 14.0374C14.9905 18.2987 15.1403 22.6411 17.3973 23.7365C19.6543 24.8318 23.1638 22.2653 25.236 18.004Z" fill="white"/>
<path d="M14.7773 17.9622C16.8495 13.7009 16.6996 9.3585 14.4426 8.26316C12.1856 7.16783 8.67614 9.73435 6.60398 13.9957C4.53182 18.257 4.68167 22.5994 6.93867 23.6947C9.19568 24.79 12.7052 22.2235 14.7773 17.9622Z" fill="white"/>
<path d="M22.4131 13.5115L25.3757 11.8658C25.1533 11.137 24.6935 10.5363 24.0248 10.2135C22.5518 9.50126 20.6375 10.4015 19.7497 12.2219C18.8602 14.044 19.3334 16.0974 20.8063 16.8096C22.2793 17.5218 24.1936 16.6216 25.0814 14.7995C25.2887 14.3752 25.4192 13.9375 25.4827 13.5082H22.4131V13.5115Z" fill="#202020"/>
<path d="M11.9543 13.5115L14.9169 11.8658C14.6945 11.137 14.2348 10.5363 13.566 10.2135C12.093 9.50126 10.1787 10.4015 9.29091 12.2219C8.40145 14.044 8.87461 16.0974 10.3476 16.8096C11.8205 17.5218 13.7349 16.6216 14.6227 14.7995C14.83 14.3752 14.9604 13.9375 15.0239 13.5082H11.9543V13.5115Z" fill="#202020"/>
</svg>
