<svg width="34" height="34" viewBox="0 0 34 34" fill="none" xmlns="http://www.w3.org/2000/svg">
<path fill-rule="evenodd" clip-rule="evenodd" d="M15.568 7.232C15.568 6.55159 16.1196 6 16.8 6C17.4804 6 18.032 6.55159 18.032 7.232V15.2691C18.032 15.4016 18.1395 15.5091 18.272 15.5091H26.368C27.0484 15.5091 27.6 16.0607 27.6 16.7411C27.6 17.4215 27.0484 17.9731 26.368 17.9731H18.272C18.1395 17.9731 18.032 18.0805 18.032 18.2131V26.368C18.032 27.0484 17.4804 27.6 16.8 27.6C16.1196 27.6 15.568 27.0484 15.568 26.368V18.2131C15.568 18.0805 15.4605 17.9731 15.328 17.9731H7.232C6.55159 17.9731 6 17.4215 6 16.7411C6 16.0607 6.55159 15.5091 7.232 15.5091H15.328C15.4605 15.5091 15.568 15.4016 15.568 15.2691V7.232Z" fill="#4F4F4F"/>
</svg>
