<svg width="35" height="35" viewBox="0 0 35 35" fill="none" xmlns="http://www.w3.org/2000/svg">
<path fill-rule="evenodd" clip-rule="evenodd" d="M17.546 18.7433C17.5317 18.744 17.5173 18.7444 17.5029 18.7444C16.8155 18.7444 16.2587 18.187 16.2587 17.5C16.2587 16.8273 16.7926 16.2789 17.4603 16.2564C17.4745 16.2557 17.4889 16.2553 17.5034 16.2553C18.1908 16.2553 18.7476 16.8126 18.7476 17.4996C18.7476 18.1724 18.2136 18.7208 17.546 18.7433Z" fill="white"/>
<path fill-rule="evenodd" clip-rule="evenodd" d="M12.8428 18.7422C12.8225 18.7437 12.8019 18.7445 12.7812 18.7445C12.0938 18.7445 11.537 18.1871 11.537 17.5001C11.537 16.8337 12.0611 16.2892 12.72 16.2573C12.7403 16.2558 12.7609 16.255 12.7816 16.255C13.469 16.255 14.0258 16.8123 14.0258 17.4993C14.0258 18.1658 13.5017 18.7103 12.8428 18.7422Z" fill="white"/>
<path fill-rule="evenodd" clip-rule="evenodd" d="M22.2676 18.7433C22.2534 18.744 22.239 18.7444 22.2245 18.7444C21.5372 18.7444 20.9803 18.187 20.9803 17.5C20.9803 16.8273 21.5144 16.2788 22.1821 16.2564C22.1963 16.2557 22.2107 16.2553 22.2251 16.2553C22.9123 16.2553 23.4694 16.8124 23.4694 17.4996C23.4694 18.1726 22.9351 18.7209 22.2676 18.7433Z" fill="white"/>
<path fill-rule="evenodd" clip-rule="evenodd" d="M17.4965 5.625C19.2831 5.62398 21.0469 6.02634 22.6565 6.80208C24.266 7.57783 25.6798 8.70697 26.7924 10.1054C27.905 11.5037 28.6876 13.1352 29.082 14.8782C29.4766 16.6213 29.4725 18.4309 29.0705 20.1721C28.6686 21.9134 27.8786 23.5415 26.76 24.9349C25.6415 26.3285 24.2227 27.4515 22.6098 28.2202C20.9968 28.989 19.2312 29.3837 17.4445 29.3748C15.7483 29.3664 14.0747 28.9945 12.5361 28.2855L6.58502 29.362C6.2964 29.4142 6.00199 29.3073 5.81412 29.082C5.62626 28.8568 5.57392 28.5479 5.67709 28.2734L7.38775 23.7207C6.33908 22.0151 5.73739 20.0697 5.64191 18.0651C5.53971 15.9196 6.02121 13.7865 7.03514 11.893C8.04907 9.99954 9.55747 8.4166 11.3997 7.31279C13.2419 6.20902 15.3491 5.62571 17.4965 5.625ZM21.9488 8.27034C20.5602 7.60109 19.0386 7.25399 17.4972 7.2549C15.6447 7.25548 13.8267 7.75868 12.2374 8.71093C10.6481 9.66319 9.34678 11.0288 8.472 12.6624C7.59722 14.296 7.18178 16.1364 7.26996 17.9876C7.35814 19.8387 7.94662 21.6312 8.9727 23.1742C9.11776 23.3923 9.14912 23.6669 9.05698 23.9121L7.7079 27.5025L12.5037 26.635C12.6745 26.6041 12.8507 26.6286 13.0067 26.7048C14.3915 27.3817 15.9112 27.7373 17.4525 27.7449C18.9939 27.7526 20.517 27.4121 21.9085 26.7489C23.2999 26.0858 24.524 25.1169 25.4889 23.9147C26.454 22.7125 27.1356 21.3078 27.4823 19.8055C27.8292 18.3032 27.8327 16.7418 27.4924 15.238C27.152 13.7341 26.4768 12.3265 25.5169 11.1201C24.5571 9.91372 23.3374 8.93959 21.9488 8.27034Z" fill="white"/>
</svg>
