<svg width="30" height="30" viewBox="0 0 30 30" fill="none" xmlns="http://www.w3.org/2000/svg">
<path fill-rule="evenodd" clip-rule="evenodd" d="M11.9758 7.05814C11.9758 5.94735 12.8762 5.04688 13.987 5.04688H15.413C16.5237 5.04688 17.4242 5.94735 17.4242 7.05814V7.48082C17.4242 7.53015 17.462 7.61385 17.5691 7.6556C17.6671 7.6938 17.7453 7.66439 17.7816 7.62809L18.1114 7.29831C18.932 6.47766 20.2625 6.47766 21.0832 7.29831L22.0826 8.29774C22.8378 9.05287 22.8378 10.2772 22.0826 11.0323L22.0365 11.0784C21.8685 11.2465 21.8066 11.5442 21.9389 11.8453C22.0682 12.1397 22.3197 12.2977 22.5438 12.2977H22.6637C23.7745 12.2977 24.675 13.1981 24.675 14.3089V15.7348C24.675 16.8456 23.7745 17.7461 22.6637 17.7461H22.3975C22.258 17.7461 22.0871 17.8456 22.0021 18.0504C21.9192 18.2501 21.9673 18.4365 22.0691 18.5384L22.1593 18.6286C22.8721 19.3414 22.8721 20.497 22.1593 21.2098L20.8879 22.4812C20.1751 23.194 19.0195 23.194 18.3067 22.4812L18.2165 22.391C18.1146 22.2891 17.9282 22.2411 17.7285 22.324C17.5238 22.409 17.4242 22.5799 17.4242 22.7193V22.9856C17.4242 24.0964 16.5237 24.9969 15.413 24.9969H13.987C12.8763 24.9969 11.9758 24.0964 11.9758 22.9856V22.8656C11.9758 22.6416 11.8178 22.3901 11.5234 22.2607C11.2224 22.1285 10.9246 22.1903 10.7565 22.3584L10.7104 22.4045C9.95529 23.1596 8.73097 23.1596 7.97584 22.4045L6.97643 21.4051C6.15577 20.5844 6.15577 19.2539 6.97643 18.4333L7.30622 18.1035C7.34252 18.0672 7.37193 17.989 7.33372 17.891C7.29198 17.7839 7.20828 17.7461 7.15895 17.7461H6.73626C5.62547 17.7461 4.725 16.8456 4.725 15.7348V14.3089C4.725 13.1981 5.62547 12.2977 6.73626 12.2977H7.00254C7.14201 12.2977 7.31287 12.1981 7.39789 11.9933C7.48078 11.7937 7.43272 11.6072 7.33088 11.5054L7.04431 11.2188C6.18618 10.3607 6.18618 8.96938 7.04431 8.11124L7.78936 7.36619C8.64749 6.50806 10.0388 6.50806 10.8969 7.36619L11.1835 7.65276C11.2854 7.7546 11.4718 7.80266 11.6714 7.71977C11.8762 7.63474 11.9758 7.46388 11.9758 7.32441V7.05814ZM13.987 6.35202C13.5971 6.35202 13.2809 6.66816 13.2809 7.05814V7.32441C13.2809 8.07122 12.7856 8.67034 12.1719 8.92515C11.5527 9.18223 10.7857 9.10072 10.2606 8.57563L9.97407 8.28906C9.62562 7.94062 9.06068 7.94062 8.71223 8.28906L7.96718 9.03411C7.61874 9.38256 7.61874 9.9475 7.96718 10.2959L8.25375 10.5825C8.77884 11.1076 8.86035 11.8746 8.60327 12.4938C8.34846 13.1075 7.74934 13.6028 7.00254 13.6028H6.73626C6.34628 13.6028 6.03014 13.9189 6.03014 14.3089V15.7348C6.03014 16.1248 6.34628 16.441 6.73626 16.441H7.15895C7.81031 16.441 8.33706 16.8713 8.54976 17.417C8.75609 17.9464 8.66893 18.5865 8.22909 19.0263L7.8993 19.3561C7.58834 19.6671 7.58834 20.1713 7.8993 20.4822L8.89871 21.4816C9.14416 21.7271 9.54211 21.7271 9.78756 21.4816L9.83366 21.4355C10.4446 20.8246 11.3409 20.755 12.0484 21.0659C12.7243 21.3629 13.2809 22.0298 13.2809 22.8656V22.9856C13.2809 23.3756 13.5971 23.6917 13.987 23.6917H15.413C15.8029 23.6917 16.1191 23.3756 16.1191 22.9856V22.7193C16.1191 21.9725 16.6144 21.3734 17.2281 21.1186C17.8473 20.8615 18.6143 20.943 19.1394 21.4681L19.2296 21.5583C19.4327 21.7614 19.7619 21.7614 19.965 21.5583L21.2365 20.2869C21.4395 20.0838 21.4395 19.7545 21.2365 19.5514L21.1462 19.4612C20.6212 18.9361 20.5396 18.1692 20.7967 17.55C21.0515 16.9362 21.6507 16.441 22.3975 16.441H22.6637C23.0537 16.441 23.3699 16.1248 23.3699 15.7348V14.3089C23.3699 13.9189 23.0537 13.6028 22.6637 13.6028H22.5438C21.7079 13.6028 21.041 13.0462 20.744 12.3703C20.4331 11.6628 20.5027 10.7665 21.1137 10.1555L21.1598 10.1094C21.4052 9.864 21.4052 9.46606 21.1598 9.22061L20.1603 8.22118C19.8494 7.91023 19.3452 7.91023 19.0342 8.22118L18.7045 8.55097C18.2646 8.99081 17.6245 9.07796 17.0951 8.87164C16.5494 8.65893 16.1191 8.13218 16.1191 7.48082V7.05814C16.1191 6.66816 15.8029 6.35202 15.413 6.35202H13.987ZM14.7 12.567C13.3442 12.567 12.2451 13.6661 12.2451 15.0219C12.2451 16.3777 13.3442 17.4768 14.7 17.4768C16.0558 17.4768 17.1549 16.3777 17.1549 15.0219C17.1549 13.6661 16.0558 12.567 14.7 12.567ZM10.94 15.0219C10.94 12.9453 12.6234 11.2618 14.7 11.2618C16.7766 11.2618 18.46 12.9453 18.46 15.0219C18.46 17.0985 16.7766 18.7819 14.7 18.7819C12.6234 18.7819 10.94 17.0985 10.94 15.0219Z" fill="white"/>
</svg>
