<svg width="18" height="19" viewBox="0 0 18 19" fill="none" xmlns="http://www.w3.org/2000/svg">
<path fill-rule="evenodd" clip-rule="evenodd" d="M8.17117 1.4661C8.17117 0.912985 8.61955 0.4646 9.17267 0.4646C9.72578 0.4646 10.1742 0.912985 10.1742 1.4661V7.99946C10.1742 8.10721 10.2615 8.19455 10.3693 8.19455H16.9505C17.5036 8.19455 17.952 8.64294 17.952 9.19605C17.952 9.74916 17.5036 10.1975 16.9505 10.1975H10.3693C10.2615 10.1975 10.1742 10.2849 10.1742 10.3926V17.0218C10.1742 17.5749 9.72578 18.0233 9.17267 18.0233C8.61955 18.0233 8.17117 17.5749 8.17117 17.0218V10.3926C8.17117 10.2849 8.08382 10.1975 7.97607 10.1975H1.39481C0.841696 10.1975 0.393311 9.74916 0.393311 9.19605C0.393311 8.64294 0.841696 8.19455 1.39481 8.19455H7.97607C8.08382 8.19455 8.17117 8.10721 8.17117 7.99946V1.4661Z" fill="#4F4F4F"/>
</svg>
