<svg width="32" height="33" viewBox="0 0 32 33" fill="none" xmlns="http://www.w3.org/2000/svg">
<g filter="url(#filter0_d_1117_18513)">
<path fill-rule="evenodd" clip-rule="evenodd" d="M6.28265 15.3252C5.90578 15.6978 5.90578 16.3022 6.28265 16.6748L13.4088 23.7207C13.7854 24.0931 14.3959 24.0931 14.7725 23.7207C15.1494 23.3481 15.1494 22.7438 14.7725 22.3711L9.29379 16.9541L25.0355 16.9541C25.5678 16.9541 26 16.5273 26 16C26 15.4727 25.5678 15.0459 25.0355 15.0459L9.29382 15.0459L14.7725 9.62888C15.1494 9.25625 15.1494 8.65192 14.7725 8.2793C14.3959 7.9069 13.7854 7.9069 13.4088 8.2793L6.28265 15.3252Z" fill="white"/>
<path d="M6.28265 16.6748L6.17719 16.7815L6.17719 16.7815L6.28265 16.6748ZM6.28265 15.3252L6.17719 15.2185L6.17719 15.2185L6.28265 15.3252ZM13.4088 23.7207L13.5142 23.614V23.614L13.4088 23.7207ZM14.7725 23.7207L14.878 23.8274V23.8274L14.7725 23.7207ZM14.7725 22.3711L14.878 22.2645V22.2645L14.7725 22.3711ZM9.29379 16.9541V16.8041C9.23297 16.8041 9.17817 16.8408 9.15505 16.8971C9.13193 16.9533 9.14508 17.018 9.18833 17.0607L9.29379 16.9541ZM25.0355 16.9541V17.1041V16.9541ZM25.0355 15.0459V15.1959V15.0459ZM9.29382 15.0459L9.18836 14.9392C9.14511 14.982 9.13196 15.0467 9.15508 15.1029C9.1782 15.1592 9.233 15.1959 9.29382 15.1959V15.0459ZM14.7725 9.62888L14.6671 9.52221L14.7725 9.62888ZM14.7725 8.2793L14.6671 8.38596L14.7725 8.2793ZM13.4088 8.2793L13.5142 8.38596L13.4088 8.2793ZM6.38812 16.5681C6.07063 16.2542 6.07063 15.7458 6.38812 15.4319L6.17719 15.2185C5.74094 15.6499 5.74094 16.3501 6.17719 16.7815L6.38812 16.5681ZM13.5142 23.614L6.38812 16.5681L6.17719 16.7815L13.3033 23.8274L13.5142 23.614ZM14.6671 23.614C14.3489 23.9287 13.8324 23.9287 13.5142 23.614L13.3033 23.8274C13.7384 24.2575 14.4429 24.2575 14.878 23.8274L14.6671 23.614ZM14.6671 22.4778C14.9845 22.7917 14.9845 23.3001 14.6671 23.614L14.878 23.8274C15.3142 23.396 15.3142 22.6958 14.878 22.2645L14.6671 22.4778ZM9.18833 17.0607L14.6671 22.4778L14.878 22.2645L9.39926 16.8474L9.18833 17.0607ZM25.0355 16.8041L9.29379 16.8041V17.1041L25.0355 17.1041V16.8041ZM25.85 16C25.85 16.4429 25.4865 16.8041 25.0355 16.8041V17.1041C25.649 17.1041 26.15 16.6118 26.15 16L25.85 16ZM25.0355 15.1959C25.4865 15.1959 25.85 15.5571 25.85 16L26.15 16C26.15 15.3882 25.649 14.8959 25.0355 14.8959V15.1959ZM9.29382 15.1959L25.0355 15.1959V14.8959L9.29382 14.8959V15.1959ZM14.6671 9.52221L9.18836 14.9392L9.39929 15.1526L14.878 9.73554L14.6671 9.52221ZM14.6671 8.38596C14.9845 8.69988 14.9845 9.2083 14.6671 9.52221L14.878 9.73554C15.3142 9.3042 15.3142 8.60397 14.878 8.17263L14.6671 8.38596ZM13.5142 8.38596C13.8324 8.07135 14.3489 8.07135 14.6671 8.38596L14.878 8.17263C14.4429 7.74246 13.7384 7.74246 13.3033 8.17263L13.5142 8.38596ZM6.38812 15.4319L13.5142 8.38596L13.3033 8.17263L6.17719 15.2185L6.38812 15.4319Z" fill="white"/>
</g>
<defs>
<filter id="filter0_d_1117_18513" x="1.8501" y="7.8501" width="28.2998" height="24.2998" filterUnits="userSpaceOnUse" color-interpolation-filters="sRGB">
<feFlood flood-opacity="0" result="BackgroundImageFix"/>
<feColorMatrix in="SourceAlpha" type="matrix" values="0 0 0 0 0 0 0 0 0 0 0 0 0 0 0 0 0 0 127 0" result="hardAlpha"/>
<feOffset dy="4"/>
<feGaussianBlur stdDeviation="2"/>
<feComposite in2="hardAlpha" operator="out"/>
<feColorMatrix type="matrix" values="0 0 0 0 0.127132 0 0 0 0 0.127132 0 0 0 0 0.127132 0 0 0 0.25 0"/>
<feBlend mode="normal" in2="BackgroundImageFix" result="effect1_dropShadow_1117_18513"/>
<feBlend mode="normal" in="SourceGraphic" in2="effect1_dropShadow_1117_18513" result="shape"/>
</filter>
</defs>
</svg>
