<svg width="42" height="42" viewBox="0 0 42 42" fill="none" xmlns="http://www.w3.org/2000/svg">
<g clip-path="url(#clip0_1229_6312)">
<g filter="url(#filter0_d_1229_6312)">
<g filter="url(#filter1_d_1229_6312)">
<path fill-rule="evenodd" clip-rule="evenodd" d="M34.1936 11.6565C34.6324 11.3933 35.2035 11.5323 35.4692 11.9669C37.0881 14.6152 37.9619 17.6443 37.9999 20.7399C38 20.7474 38 20.7548 37.9999 20.7622C37.9619 23.8579 37.0881 26.887 35.4692 29.5352C35.2035 29.9698 34.6324 30.1089 34.1936 29.8457C33.7548 29.5825 33.6144 29.0168 33.8801 28.5822C35.3253 26.2181 36.1063 23.5144 36.1422 20.7511C36.1063 17.9878 35.3253 15.2841 33.8801 12.9199C33.6144 12.4853 33.7548 11.9196 34.1936 11.6565Z" fill="white"/>
<path fill-rule="evenodd" clip-rule="evenodd" d="M29.3012 16.4818C29.6965 16.158 30.282 16.2129 30.6089 16.6044C31.58 17.7673 32.0826 19.2443 32.0211 20.7512C32.0826 22.2581 31.58 23.735 30.6089 24.8979C30.282 25.2894 29.6965 25.3443 29.3012 25.0205C28.9059 24.6967 28.8505 24.1168 29.1774 23.7252C29.863 22.9042 30.2147 21.8592 30.1636 20.7948C30.1622 20.7657 30.1622 20.7366 30.1636 20.7075C30.2147 19.6431 29.863 18.5981 29.1774 17.7771C28.8505 17.3855 28.9059 16.8056 29.3012 16.4818Z" fill="white"/>
<path fill-rule="evenodd" clip-rule="evenodd" d="M26.0292 11.2667C26.0831 8.65578 23.1502 7.08823 20.9772 8.57744L20.9718 8.58119L11.6263 15.0839H8.3253C6.507 15.0839 5 16.5766 5 18.3775V23.1247C5 24.9256 6.507 26.4183 8.3253 26.4183H11.6208L20.748 32.9152C20.7524 32.9184 20.757 32.9215 20.7615 32.9247C22.9137 34.3996 25.9706 32.8682 26.029 30.2659C26.0291 30.2591 26.0292 30.2523 26.0292 30.2455V11.2667ZM22.0366 10.0889C22.9615 9.45767 24.1986 10.1184 24.1718 11.2347C24.1717 11.2382 24.1716 11.2416 24.1716 11.2451C24.1715 11.2489 24.1715 11.2528 24.1715 11.2566V30.234C24.1392 31.3573 22.7626 32.0516 21.8245 31.4156L12.462 24.7512C12.3041 24.6388 12.1145 24.5783 11.9199 24.5783H8.3253C7.533 24.5783 6.8577 23.9094 6.8577 23.1247V18.3775C6.8577 17.5928 7.533 16.9239 8.3253 16.9239H11.9199C12.111 16.9239 12.2975 16.8655 12.4539 16.7567L22.0366 10.0889Z" fill="white"/>
</g>
</g>
</g>
<defs>
<filter id="filter0_d_1229_6312" x="1" y="8" width="41" height="33.5" filterUnits="userSpaceOnUse" color-interpolation-filters="sRGB">
<feFlood flood-opacity="0" result="BackgroundImageFix"/>
<feColorMatrix in="SourceAlpha" type="matrix" values="0 0 0 0 0 0 0 0 0 0 0 0 0 0 0 0 0 0 127 0" result="hardAlpha"/>
<feOffset dy="4"/>
<feGaussianBlur stdDeviation="2"/>
<feComposite in2="hardAlpha" operator="out"/>
<feColorMatrix type="matrix" values="0 0 0 0 0.127132 0 0 0 0 0.127132 0 0 0 0 0.127132 0 0 0 0.25 0"/>
<feBlend mode="normal" in2="BackgroundImageFix" result="effect1_dropShadow_1229_6312"/>
<feBlend mode="normal" in="SourceGraphic" in2="effect1_dropShadow_1229_6312" result="shape"/>
</filter>
<filter id="filter1_d_1229_6312" x="-7" y="8" width="57" height="49.5" filterUnits="userSpaceOnUse" color-interpolation-filters="sRGB">
<feFlood flood-opacity="0" result="BackgroundImageFix"/>
<feColorMatrix in="SourceAlpha" type="matrix" values="0 0 0 0 0 0 0 0 0 0 0 0 0 0 0 0 0 0 127 0" result="hardAlpha"/>
<feOffset dy="12"/>
<feGaussianBlur stdDeviation="6"/>
<feComposite in2="hardAlpha" operator="out"/>
<feColorMatrix type="matrix" values="0 0 0 0 0 0 0 0 0 0 0 0 0 0 0 0 0 0 0.15 0"/>
<feBlend mode="normal" in2="BackgroundImageFix" result="effect1_dropShadow_1229_6312"/>
<feBlend mode="normal" in="SourceGraphic" in2="effect1_dropShadow_1229_6312" result="shape"/>
</filter>
<clipPath id="clip0_1229_6312">
<rect width="42" height="42" fill="white"/>
</clipPath>
</defs>
</svg>
