<svg width="58" height="50" viewBox="0 0 58 50" fill="none" xmlns="http://www.w3.org/2000/svg">
<g filter="url(#filter0_d_1179_8143)">
<path fill-rule="evenodd" clip-rule="evenodd" d="M41.6936 3.90647C42.1324 3.6433 42.7035 3.78231 42.9692 4.21695C44.5881 6.86516 45.4619 9.89429 45.4999 12.9899C45.5 12.9974 45.5 13.0048 45.4999 13.0122C45.4619 16.1079 44.5881 19.137 42.9692 21.7852C42.7035 22.2198 42.1324 22.3589 41.6936 22.0957C41.2548 21.8325 41.1144 21.2668 41.3801 20.8322C42.8253 18.4681 43.6063 15.7644 43.6422 13.0011C43.6063 10.2378 42.8253 7.53407 41.3801 5.16995C41.1144 4.73531 41.2548 4.16963 41.6936 3.90647Z" fill="white"/>
<path fill-rule="evenodd" clip-rule="evenodd" d="M36.8012 8.7317C37.1965 8.40788 37.782 8.46278 38.1089 8.85432C39.08 10.0172 39.5826 11.4942 39.5211 13.0011C39.5826 14.508 39.08 15.9849 38.1089 17.1478C37.782 17.5393 37.1965 17.5942 36.8012 17.2704C36.4059 16.9466 36.3505 16.3667 36.6774 15.9751C37.363 15.1541 37.7147 14.1091 37.6636 13.0447C37.6622 13.0156 37.6622 12.9865 37.6636 12.9574C37.7147 11.893 37.363 10.848 36.6774 10.027C36.3505 9.63544 36.4059 9.05553 36.8012 8.7317Z" fill="white"/>
<path fill-rule="evenodd" clip-rule="evenodd" d="M33.5292 3.51674C33.5831 0.905778 30.6502 -0.661766 28.4772 0.827436L28.4718 0.83119L19.1263 7.33388H15.8253C14.007 7.33388 12.5 8.82655 12.5 10.6275V15.3747C12.5 17.1756 14.007 18.6683 15.8253 18.6683H19.1208L28.248 25.1652C28.2524 25.1684 28.257 25.1715 28.2615 25.1747C30.4137 26.6496 33.4706 25.1182 33.529 22.5159C33.5291 22.5091 33.5292 22.5023 33.5292 22.4955V3.51674ZM29.5366 2.33889C30.4615 1.70767 31.6986 2.36841 31.6718 3.48471C31.6717 3.48816 31.6716 3.49161 31.6716 3.49507C31.6715 3.49892 31.6715 3.50277 31.6715 3.50661V22.484C31.6392 23.6073 30.2626 24.3016 29.3245 23.6656L19.962 17.0012C19.8041 16.8888 19.6145 16.8283 19.4199 16.8283H15.8253C15.033 16.8283 14.3577 16.1594 14.3577 15.3747V10.6275C14.3577 9.84276 15.033 9.17387 15.8253 9.17387H19.4199C19.611 9.17387 19.7975 9.11549 19.9539 9.00668L29.5366 2.33889Z" fill="white"/>
</g>
<defs>
<filter id="filter0_d_1179_8143" x="0.5" y="0.25" width="57" height="49.5" filterUnits="userSpaceOnUse" color-interpolation-filters="sRGB">
<feFlood flood-opacity="0" result="BackgroundImageFix"/>
<feColorMatrix in="SourceAlpha" type="matrix" values="0 0 0 0 0 0 0 0 0 0 0 0 0 0 0 0 0 0 127 0" result="hardAlpha"/>
<feOffset dy="12"/>
<feGaussianBlur stdDeviation="6"/>
<feComposite in2="hardAlpha" operator="out"/>
<feColorMatrix type="matrix" values="0 0 0 0 0 0 0 0 0 0 0 0 0 0 0 0 0 0 0.15 0"/>
<feBlend mode="normal" in2="BackgroundImageFix" result="effect1_dropShadow_1179_8143"/>
<feBlend mode="normal" in="SourceGraphic" in2="effect1_dropShadow_1179_8143" result="shape"/>
</filter>
</defs>
</svg>
