<svg width="23" height="23" viewBox="0 0 23 23" fill="none" xmlns="http://www.w3.org/2000/svg">
<path fill-rule="evenodd" clip-rule="evenodd" d="M11.6925 5.03847C11.3446 4.83259 10.9121 4.83259 10.5642 5.03847C8.99571 5.96675 7.63491 6.54667 5.69561 6.74249C5.06385 6.80629 4.62432 7.2928 4.64971 7.80855C4.71847 9.20538 4.96151 10.8253 5.8082 12.4594C6.65226 14.0884 8.11488 15.7673 10.6789 17.2522C10.956 17.4127 11.3006 17.4127 11.5777 17.2522C14.1418 15.7673 15.6044 14.0884 16.4485 12.4594C17.2951 10.8253 17.5382 9.20538 17.6069 7.80855C17.6323 7.2928 17.1928 6.80629 16.561 6.74249C14.6217 6.54667 13.2609 5.96675 11.6925 5.03847ZM10.0174 4.11947C10.7023 3.71408 11.5543 3.71408 12.2393 4.11947C13.7199 4.99572 14.9305 5.50375 16.669 5.6793C17.7478 5.78823 18.7361 6.66411 18.6772 7.86095C18.6043 9.34061 18.3439 11.1291 17.4004 12.95C16.4543 14.776 14.8401 16.5986 12.1158 18.1764C11.506 18.5295 10.7507 18.5295 10.1409 18.1764C7.4166 16.5986 5.80236 14.776 4.85626 12.95C3.91278 11.1291 3.65232 9.34061 3.57947 7.86095C3.52055 6.66411 4.50889 5.78823 5.58767 5.6793C7.32617 5.50375 8.53678 4.99572 10.0174 4.11947ZM13.8644 8.87242C14.0679 9.08664 14.0587 9.42483 13.8439 9.62778L10.7144 12.5846C10.5078 12.7798 10.1841 12.7798 9.97748 12.5846L8.41271 11.1062C8.19791 10.9032 8.18874 10.565 8.39224 10.3508C8.59574 10.1366 8.93484 10.1275 9.14965 10.3304L10.3459 11.4607L13.107 8.852C13.3218 8.64905 13.6609 8.65819 13.8644 8.87242Z" fill="#A3A3A3"/>
</svg>
