<svg width="52" height="53" viewBox="0 0 52 53" fill="none" xmlns="http://www.w3.org/2000/svg">
<g filter="url(#filter0_d_46_2064)">
<g filter="url(#filter1_d_46_2064)">
<path fill-rule="evenodd" clip-rule="evenodd" d="M37.4243 10.8158C37.8192 10.5789 38.3332 10.704 38.5723 11.0952C40.0293 13.4786 40.8158 16.2048 40.8499 18.9909C40.85 18.9976 40.85 19.0043 40.8499 19.011C40.8158 21.797 40.0293 24.5232 38.5723 26.9066C38.3332 27.2978 37.8192 27.4229 37.4243 27.1861C37.0293 26.9492 36.903 26.4401 37.1422 26.0489C38.4428 23.9212 39.1457 21.4879 39.178 19.0009C39.1457 16.5139 38.4428 14.0806 37.1422 11.9529C36.903 11.5617 37.0293 11.0526 37.4243 10.8158Z" fill="#A3A3A3"/>
<path fill-rule="evenodd" clip-rule="evenodd" d="M33.0211 15.1585C33.3769 14.867 33.9038 14.9164 34.1981 15.2688C35.072 16.3154 35.5243 17.6447 35.469 19.0009C35.5243 20.3571 35.072 21.6863 34.1981 22.733C33.9038 23.0854 33.3769 23.1348 33.0211 22.8433C32.6653 22.5519 32.6154 22.03 32.9097 21.6776C33.5267 20.9386 33.8432 19.9981 33.7973 19.0402C33.796 19.014 33.796 18.9878 33.7973 18.9616C33.8432 18.0036 33.5267 17.0632 32.9097 16.3242C32.6154 15.9718 32.6653 15.4499 33.0211 15.1585Z" fill="#A3A3A3"/>
<path fill-rule="evenodd" clip-rule="evenodd" d="M30.0763 10.465C30.1248 8.1151 27.4852 6.70431 25.5295 8.04459L25.5246 8.04797L17.1137 13.9004H14.1428C12.5064 13.9004 11.15 15.2438 11.15 16.8646V21.1371C11.15 22.758 12.5064 24.1014 14.1428 24.1014H17.1088L25.3232 29.9486C25.3272 29.9515 25.3313 29.9543 25.3354 29.9571C27.2724 31.2846 30.0236 29.9063 30.0761 27.5642C30.0763 27.5581 30.0763 27.552 30.0763 27.5458V10.465ZM26.483 9.4049C27.3154 8.83681 28.4288 9.43147 28.4046 10.4361C28.4046 10.4392 28.4045 10.4424 28.4045 10.4455C28.4044 10.4489 28.4044 10.4524 28.4044 10.4559V27.5355C28.3753 28.5465 27.1363 29.1713 26.2921 28.599L17.8658 22.601C17.7237 22.4998 17.553 22.4454 17.378 22.4454H14.1428C13.4297 22.4454 12.822 21.8434 12.822 21.1371V16.8646C12.822 16.1584 13.4297 15.5564 14.1428 15.5564H17.378C17.55 15.5564 17.7178 15.5038 17.8585 15.4059L26.483 9.4049Z" fill="#A3A3A3"/>
</g>
</g>
<defs>
<filter id="filter0_d_46_2064" x="3.10001" y="0.0999756" width="45.8" height="45.8" filterUnits="userSpaceOnUse" color-interpolation-filters="sRGB">
<feFlood flood-opacity="0" result="BackgroundImageFix"/>
<feColorMatrix in="SourceAlpha" type="matrix" values="0 0 0 0 0 0 0 0 0 0 0 0 0 0 0 0 0 0 127 0" result="hardAlpha"/>
<feOffset dy="4"/>
<feGaussianBlur stdDeviation="2"/>
<feComposite in2="hardAlpha" operator="out"/>
<feColorMatrix type="matrix" values="0 0 0 0 0.127132 0 0 0 0 0.127132 0 0 0 0 0.127132 0 0 0 0.25 0"/>
<feBlend mode="normal" in2="BackgroundImageFix" result="effect1_dropShadow_46_2064"/>
<feBlend mode="normal" in="SourceGraphic" in2="effect1_dropShadow_46_2064" result="shape"/>
</filter>
<filter id="filter1_d_46_2064" x="0.350033" y="7.5249" width="51.3" height="44.5499" filterUnits="userSpaceOnUse" color-interpolation-filters="sRGB">
<feFlood flood-opacity="0" result="BackgroundImageFix"/>
<feColorMatrix in="SourceAlpha" type="matrix" values="0 0 0 0 0 0 0 0 0 0 0 0 0 0 0 0 0 0 127 0" result="hardAlpha"/>
<feOffset dy="10.8"/>
<feGaussianBlur stdDeviation="5.4"/>
<feComposite in2="hardAlpha" operator="out"/>
<feColorMatrix type="matrix" values="0 0 0 0 0 0 0 0 0 0 0 0 0 0 0 0 0 0 0.15 0"/>
<feBlend mode="normal" in2="BackgroundImageFix" result="effect1_dropShadow_46_2064"/>
<feBlend mode="normal" in="SourceGraphic" in2="effect1_dropShadow_46_2064" result="shape"/>
</filter>
</defs>
</svg>
