<svg width="16" height="16" viewBox="0 0 16 16" fill="none" xmlns="http://www.w3.org/2000/svg">
<path fill-rule="evenodd" clip-rule="evenodd" d="M9.35277 2.83754C9.35277 2.63036 9.52073 2.4624 9.72791 2.4624H12.4841C12.6912 2.4624 12.8592 2.63036 12.8592 2.83754V5.59369C12.8592 5.80088 12.6912 5.96883 12.4841 5.96883C12.2769 5.96883 12.1089 5.80088 12.1089 5.59369V3.74322L7.92607 7.92607C7.77957 8.07257 7.54204 8.07257 7.39554 7.92607C7.24904 7.77957 7.24904 7.54204 7.39554 7.39554L11.5784 3.21269H9.72791C9.52073 3.21269 9.35277 3.04473 9.35277 2.83754ZM4.23093 4.59076C3.66857 4.59076 3.21269 5.04664 3.21269 5.609V11.0907C3.21269 11.653 3.66857 12.1089 4.23093 12.1089H9.7126C10.275 12.1089 10.7308 11.653 10.7308 11.0907V7.6608C10.7308 7.45362 10.8988 7.28566 11.106 7.28566C11.3132 7.28566 11.4811 7.45362 11.4811 7.6608V11.0907C11.4811 12.0674 10.6893 12.8592 9.7126 12.8592H4.23093C3.2542 12.8592 2.4624 12.0674 2.4624 11.0907V5.609C2.4624 4.63227 3.2542 3.84048 4.23093 3.84048H7.6608C7.86799 3.84048 8.03594 4.00843 8.03594 4.21562C8.03594 4.4228 7.86799 4.59076 7.6608 4.59076H4.23093Z" fill="#CEFF00"/>
</svg>
