<svg width="31" height="34" viewBox="0 0 31 34" fill="none" xmlns="http://www.w3.org/2000/svg">
<g filter="url(#filter0_d_47_3570)">
<path fill-rule="evenodd" clip-rule="evenodd" d="M17.852 7.02639C17.8412 5.90543 16.9267 5.00006 15.8001 5.00006C14.6669 5.00006 13.7482 5.91633 13.7482 7.04659C13.7482 7.05327 13.7482 7.05994 13.7483 7.0666C13.7591 8.18764 14.6736 9.09311 15.8002 9.09311C16.9335 9.09311 17.8522 8.17684 17.8522 7.04658C17.8522 7.03984 17.8521 7.03311 17.852 7.02639Z" fill="#A3A3A3"/>
<path fill-rule="evenodd" clip-rule="evenodd" d="M17.8519 15.7795C17.8409 14.6587 16.9264 13.7535 15.8 13.7535C14.6668 13.7535 13.748 14.6697 13.748 15.8C13.748 15.8067 13.7481 15.8134 13.7482 15.8201C13.759 16.9411 14.6735 17.8465 15.8001 17.8465C16.9334 17.8465 17.8521 16.9303 17.8521 15.8C17.8521 15.7932 17.852 15.7863 17.8519 15.7795Z" fill="#A3A3A3"/>
<path fill-rule="evenodd" clip-rule="evenodd" d="M17.8519 24.5329C17.8409 23.4121 16.9264 22.507 15.8 22.507C14.6668 22.507 13.748 23.4232 13.748 24.5535C13.748 24.5602 13.7481 24.5669 13.7482 24.5735C13.759 25.6948 14.6736 26.6 15.8001 26.6C16.9333 26.6 17.8521 25.684 17.8521 24.5535C17.8521 24.5466 17.852 24.5398 17.8519 24.5329Z" fill="#A3A3A3"/>
</g>
<defs>
<filter id="filter0_d_47_3570" x="-2.92" y="0.679993" width="37.4401" height="37.44" filterUnits="userSpaceOnUse" color-interpolation-filters="sRGB">
<feFlood flood-opacity="0" result="BackgroundImageFix"/>
<feColorMatrix in="SourceAlpha" type="matrix" values="0 0 0 0 0 0 0 0 0 0 0 0 0 0 0 0 0 0 127 0" result="hardAlpha"/>
<feOffset dy="3.6"/>
<feGaussianBlur stdDeviation="1.8"/>
<feComposite in2="hardAlpha" operator="out"/>
<feColorMatrix type="matrix" values="0 0 0 0 0.127132 0 0 0 0 0.127132 0 0 0 0 0.127132 0 0 0 0.25 0"/>
<feBlend mode="normal" in2="BackgroundImageFix" result="effect1_dropShadow_47_3570"/>
<feBlend mode="normal" in="SourceGraphic" in2="effect1_dropShadow_47_3570" result="shape"/>
</filter>
</defs>
</svg>
